<?xml version="1.0" encoding="UTF-8" standalone="no"?>
<!-- Created with Inkscape (http://www.inkscape.org/) -->

<svg
   xmlns:dc="http://purl.org/dc/elements/1.1/"
   xmlns:cc="http://creativecommons.org/ns#"
   xmlns:rdf="http://www.w3.org/1999/02/22-rdf-syntax-ns#"
   xmlns:svg="http://www.w3.org/2000/svg"
   xmlns="http://www.w3.org/2000/svg"
   xmlns:sodipodi="http://sodipodi.sourceforge.net/DTD/sodipodi-0.dtd"
   xmlns:inkscape="http://www.inkscape.org/namespaces/inkscape"
   width="175.1125mm"
   height="214.48715mm"
   viewBox="0 0 175.1125 214.48715"
   version="1.1"
   id="svg8"
   inkscape:version="0.92.4 (5da689c313, 2019-01-14)"
   sodipodi:docname="bulb.svg">
  <defs
     id="defs2">
    <style
       id="style2">.cls-1{font-size:66px;}.cls-1,.cls-2{fill:#080444;font-family:Mont-Bold, Mont;}.cls-3{letter-spacing:-.09em;}.cls-4{letter-spacing:0em;}.cls-5{letter-spacing:-.04em;}.cls-6{fill:#fff;}.cls-7,.cls-8{fill:#31dd74;}.cls-9{fill:#d7cdee;}.cls-10{fill:#3ee680;}.cls-11{fill:#18725f;}.cls-12{fill:#39e180;}.cls-13{letter-spacing:-.02em;}.cls-14{letter-spacing:-.02em;}.cls-15{letter-spacing:-.01em;}.cls-16{fill:#6cf1c7;}.cls-16,.cls-8,.cls-17,.cls-18{stroke:#022341;stroke-width:4.63px;}.cls-16,.cls-8,.cls-17,.cls-18,.cls-19{stroke-linecap:round;stroke-miterlimit:10;}.cls-17{fill:#022341;}.cls-18,.cls-19{fill:none;}.cls-20{letter-spacing:-.01em;}.cls-21{letter-spacing:-.01em;}.cls-22{letter-spacing:-.01em;}.cls-2{font-size:46.77px;}.cls-23{letter-spacing:-.02em;}.cls-19{stroke:#31dd74;stroke-width:5px;}.cls-24{letter-spacing:-.02em;}.cls-25{letter-spacing:-.03em;}.cls-26{letter-spacing:-.01em;}.cls-27{letter-spacing:0em;}</style>
  </defs>
  <sodipodi:namedview
     id="base"
     pagecolor="#ffffff"
     bordercolor="#666666"
     borderopacity="1.0"
     inkscape:pageopacity="0.0"
     inkscape:pageshadow="2"
     inkscape:zoom="0.49497475"
     inkscape:cx="211.18402"
     inkscape:cy="317.14592"
     inkscape:document-units="mm"
     inkscape:current-layer="layer1"
     showgrid="false"
     fit-margin-top="0"
     fit-margin-left="0"
     fit-margin-right="0"
     fit-margin-bottom="0"
     inkscape:window-width="1920"
     inkscape:window-height="991"
     inkscape:window-x="-9"
     inkscape:window-y="-9"
     inkscape:window-maximized="1" />
  <metadata
     id="metadata5">
    <rdf:RDF>
      <cc:Work
         rdf:about="">
        <dc:format>image/svg+xml</dc:format>
        <dc:type
           rdf:resource="http://purl.org/dc/dcmitype/StillImage" />
        <dc:title></dc:title>
      </cc:Work>
    </rdf:RDF>
  </metadata>
  <g
     inkscape:label="Layer 1"
     inkscape:groupmode="layer"
     id="layer1"
     transform="translate(-19.303011,-54.395601)">
    <g
       id="g5329"
       transform="matrix(1.9360391,0,0,1.9360391,7.5682593,-73.161737)">
      <path
         inkscape:connector-curvature="0"
         id="path4593"
         d="m 49.706886,176.58411 c -0.93663,-0.23569 -1.47963,-0.48836 -1.75644,-0.81733 -0.28207,-0.33523 -0.42559,-0.38689 -1.37414,-0.49468 -0.58254,-0.0662 -1.54174,-0.26019 -2.13155,-0.43111 -2.78756,-0.8078 -4.54274,-2.0858 -5.42646,-3.95115 l -0.39871,-0.84157 -0.0699,-11.52828 c -0.0759,-12.52901 -0.054,-12.12891 -0.819,-14.9584 -0.64858,-2.39893 -1.90782,-4.97039 -3.47205,-7.09021 -0.43464,-0.58901 -1.76104,-2.03477 -2.94756,-3.2128 -1.18652,-1.17802 -2.5868,-2.68048 -3.11174,-3.33879 -3.45644,-4.33458 -5.56308,-9.38878 -6.27552,-15.05605 -0.32181,-2.55985 -0.10852,-6.99955 0.46001,-9.5754 2.73127,-12.37472 12.57103,-21.39314 25.24415,-23.13699 1.72724,-0.23767 5.89507,-0.20647 7.69288,0.0576 4.39491,0.64552 8.61875,2.24061 12.15088,4.58866 1.93935,1.28922 2.85599,2.02586 4.39932,3.53542 5.34445,5.2275 8.36202,11.76903 8.89034,19.27256 0.35988,5.11137 -0.62697,10.05592 -2.96054,14.83356 -1.69683,3.47398 -3.19873,5.4879 -6.67114,8.94543 -2.39005,2.3798 -3.39944,3.65626 -4.50796,5.7007 -0.73927,1.36342 -1.49938,3.27931 -1.86215,4.69365 -0.67078,2.61516 -0.65511,2.30443 -0.74004,14.67808 -0.0711,10.35625 -0.10171,11.64678 -0.28741,12.11234 -0.98297,2.46434 -3.83034,4.19636 -7.75789,4.71902 -0.93418,0.12431 -1.11908,0.1907 -1.37363,0.49322 -0.51158,0.60798 -1.18011,0.79302 -3.00391,0.83144 -0.90084,0.019 -1.75129,0.006 -1.88988,-0.0289 z"
         style="fill:#31dd74;fill-opacity:1;stroke-width:0.12599207" />
      <g
         id="g5298">
        <path
           inkscape:connector-curvature="0"
           style="fill:#31dd74;fill-opacity:1;stroke-width:0.12599207"
           d="m 19.49012,143.25309 c -0.40535,-0.23609 -0.6289,-0.8388 -0.47928,-1.29216 0.18188,-0.55113 7.7394,-8.09561 8.23024,-8.21606 0.5197,-0.12753 1.10025,0.16475 1.30617,0.65758 0.14988,0.35872 0.14957,0.47841 -0.002,0.82874 -0.0992,0.22914 -1.89153,2.11574 -4.06963,4.28373 -3.61773,3.60095 -3.92309,3.87399 -4.32858,3.87043 -0.23996,-0.002 -0.5355,-0.0616 -0.65677,-0.13226 z"
           id="path4583" />
        <path
           inkscape:connector-curvature="0"
           style="fill:#31dd74;fill-opacity:1;stroke-width:0.12599207"
           d="m 78.06795,139.51492 c -2.14067,-2.13084 -3.96517,-4.04137 -4.05443,-4.24563 -0.36305,-0.83077 0.40634,-1.74093 1.28865,-1.52442 0.42394,0.10403 8.01106,7.61971 8.23297,8.15546 0.29345,0.70844 -0.30165,1.48885 -1.13531,1.48885 -0.40841,0 -0.71705,-0.27604 -4.33188,-3.87426 z"
           id="path4581" />
        <path
           inkscape:connector-curvature="0"
           style="fill:#31dd74;fill-opacity:1;stroke-width:0.12599207"
           d="m 6.67424,112.11 c -0.73793,-0.37828 -0.83158,-1.51265 -0.16117,-1.95221 0.30176,-0.19786 0.83927,-0.22339 5.44327,-0.25854 2.80964,-0.0214 5.35652,-0.003 5.65972,0.0416 0.73966,0.10813 1.14961,0.52417 1.14961,1.16665 0,0.36134 -0.0842,0.56689 -0.32503,0.79318 l -0.32502,0.30544 -5.56511,0.0317 c -4.29331,0.0245 -5.63621,-0.005 -5.87627,-0.12781 z"
           id="path4575" />
        <path
           inkscape:connector-curvature="0"
           style="fill:#31dd74;fill-opacity:1;stroke-width:0.12599207"
           d="m 84.53353,112.1821 c -0.44861,-0.16862 -0.75595,-0.59179 -0.75595,-1.04083 0,-0.60134 0.28165,-0.9754 0.85416,-1.1344 0.63084,-0.1752 10.38604,-0.1752 11.01688,0 0.86131,0.23921 1.13683,1.16354 0.55017,1.84576 l -0.30398,0.3535 -5.58615,0.0235 c -3.07238,0.0129 -5.67119,-0.008 -5.77513,-0.0475 z"
           id="path4573" />
        <path
           inkscape:connector-curvature="0"
           style="fill:#31dd74;fill-opacity:1;stroke-width:0.12599207"
           d="m 23.13954,84.582366 c -2.1384,-2.13084 -3.97223,-4.03364 -4.07516,-4.22845 -0.41496,-0.78527 0.40447,-1.76289 1.2944,-1.5443 0.45614,0.11204 7.92906,7.50944 8.18634,8.10361 0.15277,0.35279 0.15239,0.4691 -0.003,0.8403 -0.20964,0.50175 -0.52517,0.7031 -1.10181,0.7031 -0.3735,0 -0.78539,-0.37102 -4.30106,-3.87426 z"
           id="path4567" />
        <path
           inkscape:connector-curvature="0"
           style="fill:#31dd74;fill-opacity:1;stroke-width:0.12599207"
           d="m 74.41086,88.313936 c -0.12776,-0.0743 -0.31278,-0.32768 -0.41116,-0.56313 -0.15397,-0.3685 -0.15419,-0.48512 -0.002,-0.83758 0.25728,-0.59417 7.7302,-7.99157 8.18634,-8.10361 0.88993,-0.21859 1.70935,0.75903 1.2944,1.5443 -0.10294,0.19481 -1.93676,2.09761 -4.07517,4.22845 -3.61453,3.60176 -3.91869,3.87399 -4.32428,3.87043 -0.23995,-0.002 -0.5408,-0.0646 -0.66856,-0.13886 z"
           id="path4565" />
        <path
           inkscape:connector-curvature="0"
           style="fill:#31dd74;fill-opacity:1;stroke-width:0.12599207"
           d="m 50.50598,78.260956 -0.36828,-0.36828 v -5.66094 -5.660927 l 0.30896,-0.33338 c 0.4346,-0.46894 1.21533,-0.46894 1.64993,0 l 0.30896,0.33338 v 5.660927 5.66094 l -0.36828,0.36828 c -0.25135,0.25136 -0.49445,0.36829 -0.76565,0.36829 -0.27119,0 -0.51429,-0.11693 -0.76564,-0.36829 z"
           id="path4543" />
      </g>
      <g
         id="g5306">
        <path
           inkscape:connector-curvature="0"
           style="fill:#18725f;fill-opacity:1;stroke-width:0.12599207"
           d="m 84.22101,126.01779 c -2.17387,-0.91322 -2.6838,-1.17545 -2.87101,-1.47644 -0.45157,-0.72605 0.0654,-1.68939 0.90614,-1.68835 0.27085,3.7e-4 1.30464,0.35525 2.59237,0.89003 1.17803,0.48921 2.35666,0.97791 2.61918,1.086 0.81396,0.33512 1.09127,1.2544 0.56212,1.8634 -0.53203,0.61231 -0.90076,0.547 -3.8088,-0.67464 z"
           id="path4577" />
        <path
           inkscape:connector-curvature="0"
           style="fill:#18725f;fill-opacity:1;stroke-width:0.12599207"
           d="m 17.33486,98.302916 c -1.67188,-0.69697 -2.71453,-1.20263 -2.86632,-1.39009 -0.67867,-0.83812 0.1971,-2.09896 1.2383,-1.78275 0.1925,0.0585 1.39889,0.53934 2.68085,1.06861 2.89509,1.19527 3.3135,1.56366 2.87329,2.52981 -0.16111,0.3536 -0.70046,0.69567 -1.07164,0.67966 -0.12471,-0.005 -1.40923,-0.50274 -2.85448,-1.10524 z"
           id="path4571" />
        <path
           inkscape:connector-curvature="0"
           style="fill:#18725f;fill-opacity:1;stroke-width:0.12599207"
           d="m 81.77557,99.242116 c -0.35417,-0.19631 -0.63308,-0.65461 -0.63936,-1.05062 -0.009,-0.58511 0.60525,-0.99022 3.01934,-1.99039 1.28197,-0.53112 2.48836,-1.0133 2.68086,-1.0715 1.07374,-0.32465 1.93826,0.99129 1.1934,1.81652 -0.28198,0.31241 -5.32744,2.47676 -5.7518,2.46734 -0.11073,-0.002 -0.33683,-0.0796 -0.50244,-0.17135 z"
           id="path4569" />
        <path
           inkscape:connector-curvature="0"
           style="fill:#18725f;fill-opacity:1;stroke-width:0.12599207"
           d="m 37.68167,80.928596 c -0.33194,-0.27859 -2.41104,-5.30381 -2.41104,-5.82753 0,-0.84322 1.20639,-1.35127 1.86886,-0.78705 0.31799,0.27083 2.41487,5.31734 2.41487,5.8118 0,0.55231 -0.5127,1.02327 -1.11395,1.02327 -0.28833,0 -0.60603,-0.0923 -0.75874,-0.22049 z"
           id="path4563" />
        <path
           inkscape:connector-curvature="0"
           style="fill:#18725f;fill-opacity:1;stroke-width:0.12599207"
           d="m 63.29785,80.815706 c -0.17106,-0.18458 -0.30896,-0.48686 -0.30896,-0.67725 0,-0.44685 2.02377,-5.36795 2.36514,-5.7512 0.60123,-0.675 1.91859,-0.18488 1.91859,0.71381 0,0.52372 -2.0791,5.54894 -2.41104,5.82753 -0.41275,0.34642 -1.19007,0.2903 -1.56373,-0.11289 z"
           id="path4561" />
        <path
           inkscape:connector-curvature="0"
           style="fill:#18725f;fill-opacity:1;stroke-width:0.12599207"
           d="m 14.72423,126.6419 c -0.44358,-0.44358 -0.47255,-0.89105 -0.0848,-1.30952 0.32691,-0.3528 5.06948,-2.35394 5.57869,-2.35394 1.01844,0 1.39366,1.26287 0.53755,1.80921 -0.42255,0.26967 -5.21946,2.22253 -5.45929,2.22253 -0.11213,0 -0.36959,-0.16573 -0.57215,-0.36828 z"
           id="path4629" />
      </g>
      <path
         inkscape:connector-curvature="0"
         id="path4535"
         d="m 49.706926,176.58409 c -0.83351,-0.17119 -1.44963,-0.48012 -1.73952,-0.87222 -0.23097,-0.3124 -0.35361,-0.35381 -1.24275,-0.41964 -1.43108,-0.10595 -2.82542,-0.50377 -4.28179,-1.22162 -2.01343,-0.99245 -3.20968,-2.34617 -3.56506,-4.03439 -0.104,-0.49406 -0.13487,-2.93506 -0.10753,-8.50447 l 0.0383,-7.81151 12.5677,-0.0321 12.56771,-0.0321 v 8.04123 c 0,8.85105 0.006,8.76959 -0.78264,10.01216 -1.16405,1.83317 -3.88738,3.22164 -7.11933,3.62974 -1.01157,0.12773 -1.18767,0.18674 -1.36504,0.45745 -0.38303,0.58457 -1.21372,0.83488 -2.89122,0.87119 -0.83155,0.018 -1.76704,-0.0197 -2.07887,-0.0837 z"
         style="fill:#18725f;fill-opacity:1;stroke-width:0.12599207" />
      <path
         inkscape:connector-curvature="0"
         id="path4533"
         d="m 52.872336,176.1316 c 0.11645,-0.13119 0.26827,-0.38725 0.33738,-0.56904 0.0937,-0.24634 0.24654,-0.35319 0.60028,-0.41956 1.12841,-0.21169 2.58467,-1.37742 3.16617,-2.5345 0.32794,-0.65256 0.63873,-1.64716 0.68608,-2.19561 l 0.0381,-0.44098 -0.50397,0.0429 c -0.27718,0.0236 -2.93943,0.37403 -5.91611,0.77882 -2.97668,0.4048 -5.45383,0.71023 -5.50479,0.67873 -0.051,-0.0315 -0.81336,0.0389 -1.69424,0.15633 l -1.60159,0.21358 -0.29566,-0.34372 c -0.16261,-0.18904 -0.29565,-0.50653 -0.29565,-0.70552 0,-0.57059 0.45926,-0.83591 1.73294,-1.00113 0.60603,-0.0786 1.41371,-0.22586 1.79484,-0.32722 0.38113,-0.10136 3.30099,-0.53178 6.48859,-0.95649 3.1876,-0.42471 5.82398,-0.8161 5.85863,-0.86974 0.0346,-0.0536 0.0439,-0.47351 0.0206,-0.93304 l -0.0424,-0.83551 -0.39856,0.0668 c -1.52464,0.25538 -11.72313,1.57947 -12.17882,1.5812 -0.48143,0.002 -1.44944,0.12992 -3.48906,0.46168 -0.54038,0.0879 -1.04841,-0.39652 -1.04265,-0.99416 0.007,-0.75277 0.49351,-1.10596 1.53112,-1.11215 0.74544,-0.004 2.82297,-0.29291 3.50456,-0.4866 0.24253,-0.0689 3.04901,-0.47566 6.23661,-0.90385 3.1876,-0.4282 5.82398,-0.82243 5.85863,-0.87608 0.0346,-0.0536 0.0439,-0.47351 0.0206,-0.93304 l -0.0424,-0.83551 -0.39856,0.0668 c -1.52465,0.25538 -11.72313,1.57947 -12.17883,1.58121 -0.48143,0.002 -1.44943,0.12991 -3.48906,0.46167 -0.54037,0.0879 -1.04841,-0.39652 -1.04264,-0.99416 0.007,-0.75277 0.49351,-1.10596 1.53111,-1.11215 0.74544,-0.004 2.82298,-0.29291 3.50456,-0.4866 0.24254,-0.0689 3.04901,-0.47565 6.23661,-0.90385 3.1876,-0.4282 5.82398,-0.82243 5.85863,-0.87607 0.0346,-0.0537 0.0439,-0.47352 0.0206,-0.93305 l -0.0424,-0.83551 -0.39856,0.0668 c -1.52464,0.25539 -11.72313,1.57948 -12.17882,1.58121 -0.48143,0.002 -1.44944,0.12992 -3.48906,0.46168 -0.54038,0.0879 -1.04841,-0.39652 -1.04265,-0.99416 0.007,-0.75277 0.49351,-1.10597 1.53112,-1.11216 0.74544,-0.004 2.82297,-0.2929 3.50456,-0.48659 0.24253,-0.0689 3.04901,-0.47519 6.23661,-0.90281 3.1876,-0.42761 5.81876,-0.79881 5.84702,-0.82487 0.0283,-0.026 0.0392,-0.4252 0.0242,-0.88699 -0.0188,-0.57918 0.0239,-0.87202 0.1376,-0.94411 0.0906,-0.0575 1.48454,-0.10538 3.09758,-0.10644 l 2.9328,-0.002 -0.035,8.28398 -0.035,8.28398 -0.36513,0.74364 c -1.0271,2.09183 -4.10784,3.74223 -7.57131,4.05608 -0.87639,0.0794 -0.97325,0.11619 -1.13618,0.43126 -0.18746,0.36251 -0.80047,0.66958 -1.64614,0.82459 -0.47823,0.0877 -0.48755,0.0828 -0.28281,-0.14787 z"
         style="fill:#022341;fill-opacity:1;stroke-width:0.12599207" />
      <path
         id="path5098"
         transform="scale(0.26458333)"
         d="m 194.44922,309.89062 c -5.60349,-0.0419 -11.17343,0.15438 -14.4375,0.60352 -47.89841,6.59093 -85.0892,40.67472 -95.412111,87.44531 -2.148774,9.7355 -2.954571,26.51639 -1.738281,36.19141 2.570122,20.44463 9.953053,38.77203 21.978512,54.64453 a 142.58906,112.46649 13.307052 0 0 17.21875,4.83399 142.58906,112.46649 13.307052 0 0 162.60352,-79.15821 142.58906,112.46649 13.307052 0 0 -16.56836,-76.39648 c -3.97957,-3.64506 -7.35668,-6.19397 -13.08203,-10 -13.34978,-8.87452 -29.3151,-14.90399 -45.92578,-17.34375 -3.39744,-0.49903 -9.03324,-0.77836 -14.63672,-0.82032 z"
         style="opacity:1;vector-effect:none;fill:#6ce79c;fill-opacity:1;stroke:none;stroke-width:1.09010911;stroke-linecap:round;stroke-linejoin:round;stroke-miterlimit:4;stroke-dasharray:none;stroke-dashoffset:0;stroke-opacity:1;paint-order:markers stroke fill"
         inkscape:connector-curvature="0" />
      <path
         inkscape:connector-curvature="0"
         id="path5045"
         d="m 51.410369,101.64844 c -0.790358,-0.003 -1.623811,0.12038 -2.065506,0.34572 -1.15061,0.587 -2.296007,2.07952 -2.768307,3.60804 -0.3254,1.05312 -0.454893,3.45003 -0.264583,4.89635 0.330311,2.51028 1.567979,5.19986 3.20239,6.95823 0.36509,0.39277 0.370345,0.41516 0.153995,0.65422 -0.29251,0.32322 -2.113695,0.97807 -3.234944,1.16324 -0.733642,0.12116 -0.912807,0.11615 -1.056267,-0.031 -0.095,-0.0974 -0.397124,-0.74416 -0.671793,-1.43712 -1.638832,-3.42053 -3.048915,-7.14044 -6.008936,-9.65419 -1.405102,-1.1216 -3.384447,-1.99481 -4.743897,-1.04955 -0.824839,0.57912 -1.154128,1.27768 -1.213879,2.57504 -0.006,3.56028 2.258602,7.19441 5.097364,9.27902 1.451499,1.04019 3.65755,1.90429 5.434809,2.12907 0.484219,0.0612 0.714833,0.15878 0.842843,0.35553 0.097,0.14901 0.401117,1.06803 0.675929,2.04225 2.086578,7.39712 3.163493,16.6131 3.167763,27.11204 l 0.001,3.18172 h 0.799952 0.799949 l 0.08268,-1.92185 c 0.0883,-2.04236 -0.07484,-8.22827 -0.299722,-11.37036 -0.450189,-6.29065 -1.384049,-12.0545 -2.777609,-17.13694 -0.272288,-0.9931 -0.495576,-1.88863 -0.495576,-1.99058 0,-0.19885 0.258258,-0.33847 0.626317,-0.33847 0.522822,0 2.542135,-0.67969 3.626136,-1.2206 l 1.165304,-0.58136 1.16582,0.58136 c 1.151279,0.57449 3.111492,1.2206 3.703132,1.2206 0.167661,0 0.33876,0.0885 0.380339,0.19688 0.0416,0.10833 -0.128728,1.0297 -0.378788,2.04742 -0.940679,3.82846 -1.58718,7.6581 -2.15129,12.74858 -0.546809,4.93435 -0.954979,11.59598 -0.954979,15.57889 v 2.18643 h 0.818554 0.819071 l 0.0021,-0.40979 c 0.004,-1.1214 0.265952,-7.71907 0.378272,-9.54361 0.432912,-7.03196 1.31707,-13.74888 2.47065,-18.77301 0.488781,-2.12875 0.888858,-3.6556 0.982888,-3.74964 0.0329,-0.0329 0.658138,-0.16698 1.389578,-0.29818 2.76605,-0.49618 4.819071,-1.579 6.69158,-3.52949 1.089051,-1.13441 1.57222,-1.83209 2.207101,-3.18689 1.25762,-2.6837 1.124924,-5.19355 -0.342098,-6.48488 -1.017029,-0.89522 -2.267797,-0.9822 -3.801317,-0.26458 -1.02177,0.47815 -2.80145,2.22472 -3.788399,3.7176 -0.910791,1.37768 -2.27085,4.19785 -2.977081,6.17327 -0.322059,0.90084 -0.65845,1.71306 -0.747241,1.80454 -0.1298,0.13373 -0.316453,0.13813 -0.952913,0.0227 -1.054259,-0.19118 -2.820006,-0.83834 -3.084566,-1.13068 -0.201541,-0.22269 -0.174701,-0.28087 0.536919,-1.15859 1.25402,-1.54673 2.013329,-3.05874 2.571417,-5.12062 0.35937,-1.3277 0.393816,-4.35851 0.06305,-5.56762 -0.666502,-2.43651 -1.955856,-3.95795 -3.795636,-4.48034 -0.349033,-0.0991 -0.80736,-0.1468 -1.281576,-0.14883 z m 0.114724,2.13889 c 0.712639,0 0.930235,0.0566 1.447456,0.37775 2.3554,1.46253 2.779659,6.26557 0.8847,10.01645 -0.6936,1.37291 -1.920888,2.89801 -2.332156,2.89801 -0.120941,0 -0.44154,-0.24086 -0.712619,-0.53537 -1.91322,-2.07861 -2.947333,-5.00916 -2.780191,-7.87962 0.127135,-2.18349 0.839703,-3.75085 2.045351,-4.49947 0.517221,-0.32115 0.734827,-0.37775 1.447459,-0.37775 z m -16.091009,5.24981 c 0.245042,0.005 0.566799,0.11372 0.978752,0.31677 0.91145,0.44925 3.073223,2.62746 3.955315,3.98529 1.12844,1.73702 3.046166,5.748 2.913517,6.09368 -0.0964,0.2512 -0.532143,0.20026 -1.667081,-0.19482 -3.91827,-1.36396 -6.585101,-4.73214 -6.819741,-8.61342 -0.06689,-1.10594 0.10015,-1.59857 0.639238,-1.5875 z m 31.280777,0.1049 c 0.859552,0 1.441257,0.85318 1.441257,2.1146 0,1.92221 -1.519946,4.65387 -3.439067,6.17998 -1.431729,1.13854 -3.714131,2.16266 -4.819862,2.16266 -0.456456,0 -0.464521,-0.008 -0.386022,-0.40049 0.256411,-1.28205 2.019369,-5.05373 3.17345,-6.78977 1.220181,-1.83547 2.985934,-3.26698 4.030244,-3.26698 z"
         style="fill:#ffffff;stroke-width:0.12599207" />
      <ellipse
         transform="rotate(-44.984)"
         ry="7.5328779"
         rx="15.065756"
         cy="101.34448"
         cx="-40.908482"
         id="path5096"
         style="opacity:0.4;vector-effect:none;fill:#ffffff;fill-opacity:1;stroke:none;stroke-width:0.09321462;stroke-linecap:round;stroke-linejoin:round;stroke-miterlimit:4;stroke-dasharray:none;stroke-dashoffset:0;stroke-opacity:1;paint-order:markers stroke fill" />
    </g>
  </g>
</svg>
