<?xml version="1.0" encoding="UTF-8" standalone="no"?>
<!-- Created with Inkscape (http://www.inkscape.org/) -->

<svg
   xmlns:dc="http://purl.org/dc/elements/1.1/"
   xmlns:cc="http://creativecommons.org/ns#"
   xmlns:rdf="http://www.w3.org/1999/02/22-rdf-syntax-ns#"
   xmlns:svg="http://www.w3.org/2000/svg"
   xmlns="http://www.w3.org/2000/svg"
   xmlns:sodipodi="http://sodipodi.sourceforge.net/DTD/sodipodi-0.dtd"
   xmlns:inkscape="http://www.inkscape.org/namespaces/inkscape"
   width="117.85857mm"
   height="98.231659mm"
   viewBox="0 0 117.85857 98.231659"
   version="1.1"
   id="svg8"
   inkscape:version="0.92.4 (5da689c313, 2019-01-14)"
   sodipodi:docname="chat.svg">
  <defs
     id="defs2">
    <style
       id="style2">.cls-1{font-size:66px;}.cls-1,.cls-2{fill:#080444;font-family:Mont-Bold, Mont;}.cls-3{letter-spacing:-.09em;}.cls-4{letter-spacing:0em;}.cls-5{letter-spacing:-.04em;}.cls-6{fill:#fff;}.cls-7,.cls-8{fill:#31dd74;}.cls-9{fill:#d7cdee;}.cls-10{fill:#3ee680;}.cls-11{fill:#18725f;}.cls-12{fill:#39e180;}.cls-13{letter-spacing:-.02em;}.cls-14{letter-spacing:-.02em;}.cls-15{letter-spacing:-.01em;}.cls-16{fill:#6cf1c7;}.cls-16,.cls-8,.cls-17,.cls-18{stroke:#022341;stroke-width:4.63px;}.cls-16,.cls-8,.cls-17,.cls-18,.cls-19{stroke-linecap:round;stroke-miterlimit:10;}.cls-17{fill:#022341;}.cls-18,.cls-19{fill:none;}.cls-20{letter-spacing:-.01em;}.cls-21{letter-spacing:-.01em;}.cls-22{letter-spacing:-.01em;}.cls-2{font-size:46.77px;}.cls-23{letter-spacing:-.02em;}.cls-19{stroke:#31dd74;stroke-width:5px;}.cls-24{letter-spacing:-.02em;}.cls-25{letter-spacing:-.03em;}.cls-26{letter-spacing:-.01em;}.cls-27{letter-spacing:0em;}</style>
  </defs>
  <sodipodi:namedview
     id="base"
     pagecolor="#ffffff"
     bordercolor="#666666"
     borderopacity="1.0"
     inkscape:pageopacity="0.0"
     inkscape:pageshadow="2"
     inkscape:zoom="0.98994949"
     inkscape:cx="289.62778"
     inkscape:cy="76.204023"
     inkscape:document-units="mm"
     inkscape:current-layer="g4623"
     showgrid="false"
     inkscape:window-width="1920"
     inkscape:window-height="991"
     inkscape:window-x="-9"
     inkscape:window-y="-9"
     inkscape:window-maximized="1"
     fit-margin-top="0"
     fit-margin-left="0"
     fit-margin-right="0"
     fit-margin-bottom="0" />
  <metadata
     id="metadata5">
    <rdf:RDF>
      <cc:Work
         rdf:about="">
        <dc:format>image/svg+xml</dc:format>
        <dc:type
           rdf:resource="http://purl.org/dc/dcmitype/StillImage" />
        <dc:title></dc:title>
      </cc:Work>
    </rdf:RDF>
  </metadata>
  <g
     inkscape:label="Layer 1"
     inkscape:groupmode="layer"
     id="layer1"
     transform="translate(-47.480704,-117.56384)">
    <g
       id="g4623">
      <path
         inkscape:connector-curvature="0"
         id="path4604"
         d="m 52.784675,215.54526 c -0.946169,-0.41791 -1.670768,-1.59806 -1.670768,-2.72118 0,-0.47956 0.530024,-1.50447 1.477686,-2.85741 2.672699,-3.81571 4.527653,-8.06905 5.159815,-11.83125 l 0.342189,-2.03649 -1.668045,-1.66157 c -2.940831,-2.92942 -5.070538,-6.0568 -6.6158,-9.71501 -5.752077,-13.6173 -0.664537,-27.96169 13.214052,-37.25719 3.509527,-2.35059 9.810436,-5.21861 13.513562,-6.15104 1.074283,-0.2705 1.282761,-0.44804 1.810446,-1.54181 1.054748,-2.18625 3.419288,-5.51693 5.446348,-7.67171 3.68099,-3.91291 7.40488,-6.60277 12.69579,-9.17048 16.04635,-7.7874 36.22586,-7.0478 51.40218,1.88394 2.86738,1.68755 7.1385,5.05075 8.9375,7.03766 8.9448,9.8791 10.91277,21.46618 5.54906,32.67191 -1.55251,3.24346 -2.97544,5.28922 -5.52889,7.94895 l -2.11791,2.20607 0.34126,2.031 c 0.59212,3.52388 2.40914,7.8494 4.62197,11.00285 1.86547,2.65843 2.01179,2.92643 2.01322,3.68736 0.002,1.12813 -0.66743,2.18239 -1.69599,2.67048 -0.84942,0.40307 -1.14807,0.4068 -3.57091,0.0445 -6.77189,-1.01255 -13.46791,-3.54281 -19.33438,-7.306 -1.12244,-0.72002 -2.11621,-1.30913 -2.20836,-1.30913 -0.0922,0 -0.48369,0.62508 -0.87009,1.38907 -1.69694,3.35517 -4.93798,7.31588 -8.22996,10.05742 -11.46344,9.54667 -28.2575,13.38892 -44.66299,10.21829 l -2.918872,-0.56413 -2.505086,1.64765 c -4.715205,3.10129 -11.106333,5.72699 -16.677345,6.85163 -3.810871,0.76931 -5.279676,0.87403 -6.249682,0.44559 z"
         style="fill:#31dd74;fill-opacity:1;stroke:none;stroke-width:4.56500006;stroke-linejoin:round;stroke-miterlimit:4;stroke-dasharray:none" />
      <path
         inkscape:connector-curvature="0"
         id="path4602"
         d="m 60.042003,210.50699 c 4.984096,-1.2075 9.443932,-3.20042 14.462686,-6.46277 1.587066,-1.03165 3.04097,-1.87573 3.230898,-1.87573 0.189929,0 1.3559,0.23564 2.591043,0.52364 14.11502,3.29119 30.21938,0.34384 40.76956,-7.46146 2.49047,-1.84251 6.13725,-5.51394 7.52451,-7.57536 l 1.13118,-1.6809 -0.75597,0.163 c -0.41578,0.0897 -1.94659,0.27745 -3.4018,0.41731 -15.09284,1.45058 -30.46665,-3.39352 -40.13885,-12.64726 -3.16332,-3.02646 -5.21728,-5.69623 -6.874437,-8.93552 -2.495325,-4.87767 -3.258563,-8.32704 -3.033559,-13.70982 0.08576,-2.05155 0.233309,-4.12062 0.327895,-4.59794 l 0.171977,-0.86785 -1.552554,0.56677 c -8.641106,3.15454 -16.127049,9.126 -19.874043,15.85331 -1.754562,3.15012 -2.977465,7.80233 -2.977465,11.32696 0,2.36395 0.703233,5.92222 1.689217,8.5472 1.280343,3.40866 3.129172,6.29634 5.907788,9.22736 2.052664,2.16525 2.482397,2.77109 2.721096,3.83622 0.680342,3.03582 -1.391271,10.11249 -4.357612,14.8857 -0.384349,0.61846 -0.60277,1.12432 -0.485382,1.12414 0.117389,-1.9e-4 1.433109,-0.29584 2.923822,-0.657 z"
         style="fill:#18725f;fill-opacity:1;stroke:none;stroke-width:4.56500006;stroke-linejoin:round;stroke-miterlimit:4;stroke-dasharray:none" />
      <path
         inkscape:connector-curvature="0"
         id="path4600"
         d="m 155.08398,188.34402 c -3.05685,-5.20604 -4.87041,-11.49564 -4.21919,-14.63254 0.24672,-1.18845 0.55327,-1.63449 2.47203,-3.59692 3.59541,-3.67724 5.77817,-7.47133 7.10485,-12.34965 0.75257,-2.76724 0.80691,-8.35529 0.10681,-10.98328 -1.25519,-4.71166 -3.27626,-8.2226 -6.94088,-12.05744 -3.08364,-3.22687 -5.81394,-5.28566 -9.67728,-7.29717 -4.90512,-2.55394 -9.06731,-3.94677 -14.64203,-4.89982 -18.19918,-3.1113 -37.29575,3.73483 -45.54984,16.32965 -2.39728,3.65799 -3.621,7.00446 -4.01746,10.98644 -1.604479,16.11511 13.66354,30.17645 35.28979,32.50073 5.20781,0.55971 13.11427,0.0156 17.9543,-1.23548 0.85257,-0.22038 1.89409,-0.32515 2.31449,-0.23282 0.4204,0.0923 1.92549,0.9404 3.34466,1.8846 4.96646,3.30425 12.43011,6.34111 17.07159,6.94619 0.11208,0.0146 -0.16324,-0.59851 -0.61184,-1.36249 z"
         style="fill:#31dd74;fill-opacity:1;stroke:none;stroke-width:4.56500006;stroke-linejoin:round;stroke-miterlimit:4;stroke-dasharray:none" />
      <path
         inkscape:connector-curvature="0"
         id="path4598"
         d="m 96.80012,160.26441 c -2.52652,-0.70789 -4.80947,-3.01224 -5.49546,-5.547 -0.71178,-2.63002 0.30522,-6.08197 2.31058,-7.84269 1.59045,-1.39644 3.13186,-1.9746 5.25596,-1.97146 2.43308,0.004 4.23753,0.79136 5.80427,2.53395 2.65605,2.95417 2.70775,7.44372 0.11957,10.38404 -1.93727,2.20085 -5.24838,3.21269 -7.99492,2.44316 z"
         style="fill:#ffffff;fill-opacity:1;stroke:none;stroke-width:4.56500006;stroke-linejoin:round;stroke-miterlimit:4;stroke-dasharray:none" />
      <path
         inkscape:connector-curvature="0"
         id="path4594"
         d="m 118.266,160.2732 c -6.93412,-1.9479 -7.79146,-11.47028 -1.3189,-14.64879 2.08254,-1.02267 4.84991,-1.02973 6.79493,-0.0173 2.85072,1.48385 4.41231,3.9911 4.41231,7.08432 0,2.18809 -0.60456,3.70222 -2.14585,5.37432 -1.86627,2.02467 -5.10555,2.94823 -7.74249,2.20747 z"
         style="fill:#ffffff;fill-opacity:1;stroke:none;stroke-width:4.56500006;stroke-linejoin:round;stroke-miterlimit:4;stroke-dasharray:none" />
      <path
         inkscape:connector-curvature="0"
         id="path4590"
         d="m 140.14619,160.39708 c -2.4002,-0.62393 -4.53858,-2.36651 -5.51131,-4.4912 -0.7766,-1.69632 -0.78204,-4.72109 -0.0115,-6.40291 0.8042,-1.7553 2.0485,-3.04055 3.75499,-3.87856 1.25723,-0.61739 1.82801,-0.73513 3.48763,-0.71942 3.27585,0.031 5.73468,1.62179 7.10061,4.5938 2.24242,4.8791 -1.12896,10.49305 -6.59236,10.97745 -0.78886,0.0699 -1.79148,0.0343 -2.22804,-0.0792 z"
         style="fill:#ffffff;fill-opacity:1;stroke:none;stroke-width:4.56500006;stroke-linejoin:round;stroke-miterlimit:4;stroke-dasharray:none" />
      <path
         id="path4596"
         d="m 100.53538,155.89159 c 2.5751,-1.32207 2.56341,-5.23693 -0.0193,-6.4625 -1.16938,-0.55491 -2.11017,-0.55977 -3.25438,-0.0168 -1.97352,0.9365 -2.62732,3.77121 -1.2479,5.41056 1.29927,1.54409 2.87176,1.91577 4.52157,1.06874 z"
         style="fill:#31dd74;fill-opacity:1;stroke:none;stroke-width:4.56500006;stroke-linejoin:round;stroke-miterlimit:4;stroke-dasharray:none"
         inkscape:connector-curvature="0" />
      <path
         id="path4592"
         d="m 122.50892,155.63208 c 0.42682,-0.30393 0.97054,-1.03868 1.20825,-1.63278 1.06965,-2.67332 -1.44728,-5.59642 -4.21966,-4.9006 -0.37187,0.0933 -1.10235,0.56031 -1.6233,1.03772 -1.84767,1.69326 -1.35824,4.59987 0.9783,5.80999 1.127,0.58369 2.5694,0.45969 3.65641,-0.31433 z"
         style="fill:#31dd74;fill-opacity:1;stroke:none;stroke-width:4.56500006;stroke-linejoin:round;stroke-miterlimit:4;stroke-dasharray:none"
         inkscape:connector-curvature="0" />
      <path
         id="path4586"
         d="m 143.29036,156.02864 c 1.81358,-0.75776 2.7236,-3.19861 1.82908,-4.90592 -1.36577,-2.60675 -4.71377,-2.77023 -6.35704,-0.31041 -1.17113,1.75309 -0.46765,4.12052 1.52136,5.11984 1.11204,0.55871 1.84412,0.5822 3.0066,0.0965 z"
         style="fill:#31dd74;fill-opacity:1;stroke:none;stroke-width:4.56500006;stroke-linejoin:round;stroke-miterlimit:4;stroke-dasharray:none"
         inkscape:connector-curvature="0" />
    </g>
  </g>
</svg>
