<?xml version="1.0" encoding="UTF-8" standalone="no"?>
<svg
   xmlns:dc="http://purl.org/dc/elements/1.1/"
   xmlns:cc="http://creativecommons.org/ns#"
   xmlns:rdf="http://www.w3.org/1999/02/22-rdf-syntax-ns#"
   xmlns:svg="http://www.w3.org/2000/svg"
   xmlns="http://www.w3.org/2000/svg"
   xmlns:sodipodi="http://sodipodi.sourceforge.net/DTD/sodipodi-0.dtd"
   xmlns:inkscape="http://www.inkscape.org/namespaces/inkscape"
   id="Layer_1"
   viewBox="0 0 870.21004 460.10514"
   version="1.1"
   sodipodi:docname="code.svg"
   inkscape:version="0.92.4 (5da689c313, 2019-01-14)"
   width="870.21002"
   height="460.10513">
  <metadata
     id="metadata193">
    <rdf:RDF>
      <cc:Work
         rdf:about="">
        <dc:format>image/svg+xml</dc:format>
        <dc:type
           rdf:resource="http://purl.org/dc/dcmitype/StillImage" />
        <dc:title></dc:title>
      </cc:Work>
    </rdf:RDF>
  </metadata>
  <sodipodi:namedview
     pagecolor="#ffffff"
     bordercolor="#666666"
     borderopacity="1"
     objecttolerance="10"
     gridtolerance="10"
     guidetolerance="10"
     inkscape:pageopacity="0"
     inkscape:pageshadow="2"
     inkscape:window-width="1920"
     inkscape:window-height="991"
     id="namedview191"
     showgrid="false"
     inkscape:zoom="1.0838646"
     inkscape:cx="467.58786"
     inkscape:cy="257.77477"
     inkscape:window-x="-9"
     inkscape:window-y="-9"
     inkscape:window-maximized="1"
     inkscape:current-layer="Layer_1"
     fit-margin-top="0"
     fit-margin-left="0"
     fit-margin-right="0"
     fit-margin-bottom="0" />
  <defs
     id="defs4">
    <style
       id="style2">.cls-1{letter-spacing:-.02em;}.cls-2,.cls-3{fill:#fff;}.cls-2,.cls-4,.cls-5,.cls-6,.cls-7{stroke-miterlimit:10;}.cls-2,.cls-5,.cls-7{stroke-width:5px;}.cls-2,.cls-6,.cls-7{stroke:#022341;}.cls-8{letter-spacing:-.04em;}.cls-9{letter-spacing:0em;}.cls-10{letter-spacing:-.02em;}.cls-11{letter-spacing:-.02em;}.cls-12{letter-spacing:-.04em;}.cls-13{letter-spacing:-.02em;}.cls-14{letter-spacing:-.03em;}.cls-15{letter-spacing:-.02em;}.cls-16{letter-spacing:-.02em;}.cls-17{letter-spacing:-.02em;}.cls-18{fill:#043b4d;}.cls-19{fill:#3ee680;}.cls-20{fill:#18725f;}.cls-21,.cls-5{fill:#6cf1c7;}.cls-22{fill:#39e180;}.cls-23{letter-spacing:-.01em;}.cls-24{letter-spacing:-.01em;}.cls-25{letter-spacing:-.03em;}.cls-4{stroke:#fff;stroke-width:4.63px;}.cls-4,.cls-5,.cls-6,.cls-7{stroke-linecap:round;}.cls-4,.cls-6,.cls-7{fill:none;}.cls-26{letter-spacing:-.01em;}.cls-27{letter-spacing:-.02em;}.cls-28{letter-spacing:-.02em;}.cls-29{letter-spacing:-.01em;}.cls-30{letter-spacing:-.03em;}.cls-5{stroke:#18725f;}.cls-31{letter-spacing:-.01em;}.cls-32{letter-spacing:-.03em;}.cls-33{letter-spacing:-.02em;}.cls-6{stroke-width:4.82px;}.cls-34{letter-spacing:-.03em;}.cls-35{letter-spacing:-.03em;}.cls-36{letter-spacing:-.02em;}.cls-37{letter-spacing:-.01em;}.cls-38{letter-spacing:-.03em;}.cls-39{font-size:46.77px;}.cls-39,.cls-40{fill:#080444;font-family:Mont-Bold, Mont;}.cls-41{letter-spacing:-.02em;}.cls-42{letter-spacing:-.02em;}.cls-43{letter-spacing:-.02em;}.cls-44{letter-spacing:-.02em;}.cls-45{letter-spacing:-.02em;}.cls-46{letter-spacing:-.02em;}.cls-47{letter-spacing:-.02em;}.cls-48{letter-spacing:-.02em;}.cls-49{letter-spacing:-.02em;}.cls-40{font-size:68px;}.cls-50{letter-spacing:-.02em;}.cls-51{letter-spacing:-.02em;}.cls-52{letter-spacing:-.02em;}.cls-53{letter-spacing:-.03em;}.cls-54{letter-spacing:0em;}.cls-55{letter-spacing:-.01em;}</style>
  </defs>
  <g
     id="g920"
     transform="translate(-221.25,-636.96)">
    <path
       id="path8"
       d="m 221.25,636.97 v 379.44 c 0,27.76 22.58,50.33 50.33,50.33 27.75,0 50.33,-22.58 50.33,-50.33 V 726.02 c 0,-4.28 3.47,-7.75 7.74,-7.75 H 496.14 V 636.96 H 221.25 Z"
       class="cls-18"
       inkscape:connector-curvature="0"
       style="fill:#043b4d" />
    <line
       id="line12"
       y2="734.33002"
       x2="463.28"
       y1="734.33002"
       x1="258.22"
       class="cls-5"
       style="fill:#6cf1c7;stroke:#18725f;stroke-width:5px;stroke-linecap:round;stroke-miterlimit:10" />
    <line
       id="line14"
       y2="773.27002"
       x2="463.28"
       y1="773.27002"
       x1="258.22"
       class="cls-5"
       style="fill:#6cf1c7;stroke:#18725f;stroke-width:5px;stroke-linecap:round;stroke-miterlimit:10" />
    <line
       id="line16"
       y2="929.03003"
       x2="463.28"
       y1="929.03003"
       x1="258.22"
       class="cls-5"
       style="fill:#6cf1c7;stroke:#18725f;stroke-width:5px;stroke-linecap:round;stroke-miterlimit:10" />
    <line
       id="line18"
       y2="967.96997"
       x2="463.28"
       y1="967.96997"
       x1="258.22"
       class="cls-5"
       style="fill:#6cf1c7;stroke:#18725f;stroke-width:5px;stroke-linecap:round;stroke-miterlimit:10" />
    <line
       id="line142"
       y2="812.21002"
       x2="463.28"
       y1="812.21002"
       x1="258.22"
       class="cls-5"
       style="fill:#6cf1c7;stroke:#18725f;stroke-width:5px;stroke-linecap:round;stroke-miterlimit:10" />
    <line
       id="line144"
       y2="851.15002"
       x2="463.28"
       y1="851.15002"
       x1="258.22"
       class="cls-5"
       style="fill:#6cf1c7;stroke:#18725f;stroke-width:5px;stroke-linecap:round;stroke-miterlimit:10" />
    <line
       id="line146"
       y2="890.09003"
       x2="463.28"
       y1="890.09003"
       x1="258.22"
       class="cls-5"
       style="fill:#6cf1c7;stroke:#18725f;stroke-width:5px;stroke-linecap:round;stroke-miterlimit:10" />
    <path
       id="path148"
       d="m 328.96,718.73 c -3.78,0 -7.14,2.77 -7.48,6.53 -0.02,0.23 -0.03,0.46 -0.03,0.7 v 290.39 c 0,27.74 -22.55,50.3 -50.28,50.33 v 0.05 h 292.67 c 32.51,0 58.87,-26.36 58.87,-58.87 V 726.3 c 0,-4.18 -3.39,-7.57 -7.57,-7.57 z"
       class="cls-22"
       inkscape:connector-curvature="0"
       style="fill:#39e180" />
    <g
       id="g158">
      <path
         id="path150"
         transform="rotate(140.74,777.3884,946.70557)"
         d="m 775.83,864.42 h 3.16 c 7.7,0 13.95,6.25 13.95,13.95 v 150.57 H 761.88 V 878.37 c 0,-7.7 6.25,-13.95 13.95,-13.95 z"
         class="cls-20"
         inkscape:connector-curvature="0"
         style="fill:#18725f" />
      <path
         id="path152"
         transform="rotate(140.75,815.40028,994.00102)"
         d="m 812.15,891.11 h 6.43 c 10.3,0 18.66,8.36 18.66,18.66 v 187.22 H 793.49 V 909.77 c 0,-10.3 8.36,-18.66 18.66,-18.66 z"
         class="cls-18"
         inkscape:connector-curvature="0"
         style="fill:#043b4d" />
      <rect
         id="rect154"
         transform="rotate(140.75,749.66478,912.06808)"
         ry="2.3599999"
         rx="2.3599999"
         height="4.71"
         width="47.810001"
         y="909.76001"
         x="725.72998"
         class="cls-21"
         style="fill:#6cf1c7" />
      <circle
         id="circle156"
         r="121.61"
         cy="788.20001"
         cx="650.40997"
         class="cls-2"
         style="fill:#ffffff;stroke:#022341;stroke-width:5px;stroke-miterlimit:10" />
    </g>
    <path
       id="path160"
       d="m 814.43,1088.23 c -9.29,-12.33 4.96,-13.6 4.96,-13.6 0,0 -27.93,5.96 -32.4,-12.43 -3.27,-13.47 36.01,-17.62 36.01,-17.62 0,0 -49.02,21.11 -55.13,-6.66 -3.39,-15.43 39.13,-19.75 39.13,-19.75 0,0 -66.24,18.54 -72.3,-6.43 -5.31,-21.86 27.28,-31.42 82.93,-47.89 -0.96,-5.45 -61.46,-55.87 -51.71,-71.87 2.51,-4.12 13.38,-1.95 24.77,2.13 37.11,13.29 34.89,14.44 81.6,31.63 48.98,18.03 219.17,-49.25 219.17,-49.25 0,0 -28.34,79.31 -53.77,113.69 -27.71,37.48 -92.03,90.54 -139.32,99.97 -43.49,8.67 -74.64,10.41 -83.93,-1.92 z"
       class="cls-22"
       inkscape:connector-curvature="0"
       style="fill:#39e180" />
    <line
       id="line162"
       y2="1014.95"
       x2="828.64001"
       y1="1025.17"
       x1="774.65997"
       class="cls-6"
       style="fill:none;stroke:#022341;stroke-width:4.82000017px;stroke-linecap:round;stroke-miterlimit:10" />
    <line
       id="line164"
       y2="1047.4"
       x2="832.81"
       y1="1053.1"
       x1="788.96002"
       class="cls-6"
       style="fill:none;stroke:#022341;stroke-width:4.82000017px;stroke-linecap:round;stroke-miterlimit:10" />
    <path
       id="path166"
       d="m 773.22,977.6 c 0,0 28.56,-9.36 43.3,-13.31 14.74,-3.94 34.11,-6.84 34.11,-6.84"
       class="cls-6"
       inkscape:connector-curvature="0"
       style="fill:none;stroke:#022341;stroke-width:4.82000017px;stroke-linecap:round;stroke-miterlimit:10" />
    <line
       id="line168"
       y2="1074.5601"
       x2="830.72998"
       y1="1075.72"
       x1="808.09003"
       class="cls-6"
       style="fill:none;stroke:#022341;stroke-width:4.82000017px;stroke-linecap:round;stroke-miterlimit:10" />
    <g
       id="text1002"
       style="font-style:normal;font-variant:normal;font-weight:bold;font-stretch:normal;font-size:32.88820267px;line-height:25.69390678px;font-family:monospace;-inkscape-font-specification:'monospace Bold';font-variant-ligatures:normal;font-variant-caps:normal;font-variant-numeric:normal;font-feature-settings:normal;text-align:start;letter-spacing:0px;word-spacing:0px;writing-mode:lr-tb;text-anchor:start;fill:#39e180;fill-opacity:1;stroke:none;stroke-width:1.02775633"
       aria-label="fiat shamir">
      <path
         id="path846"
         style="font-style:normal;font-variant:normal;font-weight:bold;font-stretch:normal;font-family:monospace;-inkscape-font-specification:'monospace Bold';fill:#39e180;fill-opacity:1;stroke-width:1.02775633"
         d="m 262.29692,678.9785 v 7.99723 h 4.68914 q 1.18834,0 1.68616,0.4657 0.51388,0.44964 0.51388,1.18834 0,0.72265 -0.51388,1.18835 -0.49782,0.44964 -1.68616,0.44964 h -9.94033 q -1.18835,0 -1.70222,-0.44964 -0.49782,-0.4657 -0.49782,-1.2044 0,-0.72265 0.49782,-1.17229 0.51387,-0.4657 1.70222,-0.4657 h 1.95916 v -7.99723 h -1.57375 q -1.18835,0 -1.70222,-0.44964 -0.49782,-0.46571 -0.49782,-1.20441 0,-0.72264 0.49782,-1.17228 0.51387,-0.4657 1.70222,-0.4657 h 1.57375 v -1.25258 q 0,-2.15186 1.60587,-3.56503 1.62193,-1.42922 4.68914,-1.42922 1.36498,0 3.1475,0.25694 1.79857,0.24088 2.29639,0.69052 0.51388,0.44964 0.51388,1.15623 0,0.75475 -0.44964,1.23651 -0.44965,0.46571 -1.10805,0.46571 -0.30512,0 -0.91535,-0.11241 -2.03945,-0.40147 -3.6132,-0.40147 -1.63799,0 -2.26428,0.49782 -0.61023,0.48176 -0.61023,1.2044 v 1.25258 h 5.07455 q 1.18834,0 1.68616,0.4657 0.51388,0.44964 0.51388,1.18834 0,0.72264 -0.51388,1.18835 -0.49782,0.44964 -1.68616,0.44964 z"
         inkscape:connector-curvature="0" />
      <path
         id="path848"
         style="font-style:normal;font-variant:normal;font-weight:bold;font-stretch:normal;font-family:monospace;-inkscape-font-specification:'monospace Bold';fill:#39e180;fill-opacity:1;stroke-width:1.02775633"
         d="m 283.2214,669.43964 v 3.48473 h -3.91832 v -3.48473 z m 0.44964,6.24683 v 11.28926 h 3.95044 q 1.18834,0 1.68616,0.4657 0.51388,0.44964 0.51388,1.18834 0,0.72265 -0.51388,1.18835 -0.49782,0.44964 -1.68616,0.44964 h -11.19291 q -1.18834,0 -1.70222,-0.44964 -0.49782,-0.4657 -0.49782,-1.2044 0,-0.72265 0.49782,-1.17229 0.51388,-0.4657 1.70222,-0.4657 h 3.95044 v -7.99723 h -2.64969 q -1.17228,0 -1.68616,-0.44964 -0.51388,-0.46571 -0.51388,-1.20441 0,-0.72264 0.49782,-1.17228 0.51388,-0.4657 1.70222,-0.4657 z"
         inkscape:connector-curvature="0" />
      <path
         id="path850"
         style="font-style:normal;font-variant:normal;font-weight:bold;font-stretch:normal;font-family:monospace;-inkscape-font-specification:'monospace Bold';fill:#39e180;fill-opacity:1;stroke-width:1.02775633"
         d="m 304.72398,690.26776 v -0.77082 q -1.23651,0.65841 -2.72997,0.97958 -1.49346,0.33724 -2.71392,0.33724 -2.64969,0 -4.30373,-1.39711 -1.65405,-1.41316 -1.65405,-3.11539 0,-2.07157 2.10369,-3.83802 2.11975,-1.78252 5.84537,-1.78252 1.49345,0 3.45261,0.32118 v -0.78688 q 0,-0.7387 -0.64234,-1.2044 -0.62629,-0.4657 -2.40881,-0.4657 -1.46134,0 -3.78985,0.57811 -0.86717,0.20876 -1.34893,0.20876 -0.6584,0 -1.12411,-0.4657 -0.44964,-0.48176 -0.44964,-1.22046 0,-0.41753 0.16059,-0.72264 0.16058,-0.30512 0.44964,-0.48176 0.28906,-0.19271 1.2044,-0.44965 1.22046,-0.33723 2.4891,-0.52993 1.26864,-0.20877 2.29639,-0.20877 3.06721,0 4.75338,1.33288 1.70222,1.31681 1.70222,3.6132 v 6.77677 h 0.56205 q 1.18834,0 1.68616,0.4657 0.51388,0.44964 0.51388,1.18834 0,0.72265 -0.51388,1.18835 -0.49782,0.44964 -1.68616,0.44964 z m 0,-5.89354 q -1.97521,-0.38541 -3.64532,-0.38541 -2.00734,0 -3.45262,0.97958 -0.89928,0.62629 -0.89928,1.26864 0,0.4657 0.43358,0.75476 0.80294,0.52993 2.20004,0.52993 1.18834,0 2.6818,-0.4657 1.50952,-0.4657 2.6818,-1.26863 z"
         inkscape:connector-curvature="0" />
      <path
         id="path852"
         style="font-style:normal;font-variant:normal;font-weight:bold;font-stretch:normal;font-family:monospace;-inkscape-font-specification:'monospace Bold';fill:#39e180;fill-opacity:1;stroke-width:1.02775633"
         d="m 320.67027,678.9785 v 6.60012 q 0,1.05988 0.43358,1.39711 0.67447,0.52994 2.4088,0.52994 2.52122,0 4.65703,-1.07594 0.81899,-0.41752 1.28469,-0.41752 0.64235,0 1.10805,0.48176 0.48176,0.48176 0.48176,1.17228 0,0.64235 -0.51388,1.10805 -0.78687,0.75476 -3.11538,1.39711 -2.31246,0.62629 -3.90227,0.62629 -3.06721,0 -4.60884,-1.31681 -1.52558,-1.33288 -1.52558,-3.25992 v -7.24247 h -1.18834 q -1.18834,0 -1.70222,-0.44964 -0.49782,-0.46571 -0.49782,-1.20441 0,-0.72264 0.49782,-1.17228 0.51388,-0.4657 1.70222,-0.4657 h 1.18834 v -2.97086 q 0,-1.18834 0.44965,-1.68616 0.4657,-0.51388 1.2044,-0.51388 0.72264,0 1.17228,0.51388 0.46571,0.49782 0.46571,1.68616 v 2.97086 h 6.08624 q 1.18834,0 1.68616,0.4657 0.51388,0.44964 0.51388,1.18834 0,0.72264 -0.51388,1.18835 -0.49782,0.44964 -1.68616,0.44964 z"
         inkscape:connector-curvature="0" />
      <path
         id="path854"
         style="font-style:normal;font-variant:normal;font-weight:bold;font-stretch:normal;font-family:monospace;-inkscape-font-specification:'monospace Bold';fill:#39e180;fill-opacity:1;stroke-width:1.02775633"
         d="m 364.47838,679.54055 q -0.80293,-0.49781 -1.68616,-0.7387 -0.88323,-0.25693 -1.84675,-0.25693 -1.91099,0 -3.03509,0.62628 -0.49782,0.273 -0.49782,0.59418 0,0.36935 0.67446,0.72264 0.51388,0.25694 2.29639,0.49782 3.27598,0.44964 4.56067,0.89928 1.68617,0.59418 2.60151,1.76646 0.91535,1.17228 0.91535,2.47304 0,1.76645 -1.5577,2.9548 -2.23215,1.71828 -5.79718,1.71828 -1.42923,0 -2.64969,-0.25694 -1.2044,-0.24088 -2.2161,-0.72264 -0.24088,0.20876 -0.51388,0.32117 -0.27299,0.11241 -0.56205,0.11241 -0.77082,0 -1.23652,-0.49782 -0.44964,-0.51388 -0.44964,-1.70222 v -1.10805 q 0,-1.18834 0.44964,-1.68616 0.4657,-0.51388 1.2044,-0.51388 0.59417,0 0.99564,0.33723 0.40147,0.32118 0.62629,1.12411 0.75476,0.64235 1.81463,0.97958 1.05988,0.32118 2.44092,0.32118 2.26428,0 3.51686,-0.70659 0.59417,-0.35329 0.59417,-0.7387 0,-0.64234 -0.85111,-1.05987 -0.85111,-0.41753 -3.51686,-0.70658 -3.96649,-0.41753 -5.29936,-1.60587 -1.33288,-1.17229 -1.33288,-2.89057 0,-1.76645 1.49346,-2.93874 2.0234,-1.60587 5.29937,-1.60587 1.14017,0 2.18398,0.22483 1.05988,0.20876 2.0234,0.6584 0.30511,-0.22482 0.56205,-0.33723 0.273,-0.11241 0.49782,-0.11241 0.67447,0 1.12411,0.51388 0.44964,0.49782 0.44964,1.68616 v 0.80293 q 0,1.07594 -0.25693,1.46134 -0.51388,0.7387 -1.39711,0.7387 -0.59417,0 -1.04382,-0.36935 -0.44964,-0.36935 -0.57811,-0.97958 z"
         inkscape:connector-curvature="0" />
      <path
         id="path856"
         style="font-style:normal;font-variant:normal;font-weight:bold;font-stretch:normal;font-family:monospace;-inkscape-font-specification:'monospace Bold';fill:#39e180;fill-opacity:1;stroke-width:1.02775633"
         d="m 377.24504,669.43964 v 7.01765 q 1.02775,-0.61023 2.07157,-0.89929 1.05987,-0.30512 2.1358,-0.30512 1.70223,0 3.0351,0.57812 1.33287,0.57811 2.20004,1.83069 0.88323,1.23652 0.88323,3.13144 v 6.1826 q 1.25257,0 1.63798,0.24088 0.77082,0.49782 0.77082,1.41316 0,0.72265 -0.49782,1.18835 -0.49782,0.44964 -1.68616,0.44964 h -3.75774 q -1.17228,0 -1.68616,-0.44964 -0.49782,-0.4657 -0.49782,-1.2044 0,-0.89929 0.77082,-1.39711 0.40147,-0.25694 1.63799,-0.24088 v -5.95778 q 0,-1.26863 -0.57812,-1.78251 -0.75476,-0.69052 -2.23216,-0.69052 -1.09199,0 -1.9431,0.43358 -0.83505,0.41753 -2.26427,1.83069 v 6.16654 q 1.26863,0 1.63798,0.24088 0.78688,0.49782 0.78688,1.41316 0,0.72265 -0.51388,1.18835 -0.49782,0.44964 -1.68616,0.44964 h -3.74168 q -1.18834,0 -1.70222,-0.44964 -0.49782,-0.4657 -0.49782,-1.2044 0,-0.89929 0.78688,-1.39711 0.38541,-0.25694 1.63799,-0.24088 v -14.24406 h -0.56206 q -1.18834,0 -1.70222,-0.44964 -0.49782,-0.46571 -0.49782,-1.20441 0,-0.72264 0.49782,-1.17228 0.51388,-0.4657 1.70222,-0.4657 z"
         inkscape:connector-curvature="0" />
      <path
         id="path858"
         style="font-style:normal;font-variant:normal;font-weight:bold;font-stretch:normal;font-family:monospace;-inkscape-font-specification:'monospace Bold';fill:#39e180;fill-opacity:1;stroke-width:1.02775633"
         d="m 403.32435,690.26776 v -0.77082 q -1.23652,0.65841 -2.72998,0.97958 -1.49346,0.33724 -2.71392,0.33724 -2.64968,0 -4.30373,-1.39711 -1.65404,-1.41316 -1.65404,-3.11539 0,-2.07157 2.10369,-3.83802 2.11974,-1.78252 5.84536,-1.78252 1.49346,0 3.45262,0.32118 v -0.78688 q 0,-0.7387 -0.64235,-1.2044 -0.62629,-0.4657 -2.4088,-0.4657 -1.46134,0 -3.78985,0.57811 -0.86717,0.20876 -1.34893,0.20876 -0.65841,0 -1.12411,-0.4657 -0.44965,-0.48176 -0.44965,-1.22046 0,-0.41753 0.16059,-0.72264 0.16059,-0.30512 0.44964,-0.48176 0.28906,-0.19271 1.20441,-0.44965 1.22046,-0.33723 2.48909,-0.52993 1.26864,-0.20877 2.2964,-0.20877 3.06721,0 4.75337,1.33288 1.70222,1.31681 1.70222,3.6132 v 6.77677 h 0.56206 q 1.18834,0 1.68616,0.4657 0.51388,0.44964 0.51388,1.18834 0,0.72265 -0.51388,1.18835 -0.49782,0.44964 -1.68616,0.44964 z m 0,-5.89354 q -1.97522,-0.38541 -3.64532,-0.38541 -2.00734,0 -3.45262,0.97958 -0.89929,0.62629 -0.89929,1.26864 0,0.4657 0.43359,0.75476 0.80293,0.52993 2.20004,0.52993 1.18834,0 2.6818,-0.4657 1.50951,-0.4657 2.6818,-1.26863 z"
         inkscape:connector-curvature="0" />
      <path
         id="path860"
         style="font-style:normal;font-variant:normal;font-weight:bold;font-stretch:normal;font-family:monospace;-inkscape-font-specification:'monospace Bold';fill:#39e180;fill-opacity:1;stroke-width:1.02775633"
         d="m 414.99902,675.68647 v 0.9314 q 0.80294,-0.78687 1.44528,-1.07593 0.65841,-0.30512 1.50952,-0.30512 0.72264,0 1.42923,0.3533 0.70658,0.35329 1.38104,1.05987 0.85111,-0.70658 1.71828,-1.04382 0.88323,-0.35329 1.79858,-0.35329 1.83069,0 2.97085,0.97958 1.50952,1.2847 1.50952,3.37233 v 7.37094 q 1.02776,0 1.52558,0.4657 0.49782,0.4657 0.49782,1.18834 0,0.72265 -0.49782,1.18835 -0.49782,0.44964 -1.68617,0.44964 h -3.13144 v -10.38997 q 0,-0.75476 -0.273,-1.04382 -0.273,-0.28905 -0.83505,-0.28905 -0.546,0 -1.0117,0.28905 -0.59417,0.40147 -1.44528,1.50952 v 6.63224 q 1.02776,0 1.52558,0.4657 0.49782,0.4657 0.49782,1.18834 0,0.72265 -0.49782,1.18835 -0.49782,0.44964 -1.68617,0.44964 h -3.13144 v -10.38997 q 0,-0.7387 -0.28906,-1.02776 -0.273,-0.30511 -0.83505,-0.30511 -0.57811,0 -1.14017,0.36935 -0.56205,0.35329 -1.34893,1.42922 v 6.63224 q 1.02776,0 1.52558,0.4657 0.51388,0.4657 0.51388,1.18834 0,0.72265 -0.51388,1.18835 -0.49782,0.44964 -1.68617,0.44964 h -2.97085 q -1.18835,0 -1.68617,-0.44964 -0.51387,-0.4657 -0.51387,-1.2044 0,-0.72265 0.49782,-1.17229 0.49781,-0.4657 1.54163,-0.4657 v -7.99723 q -1.04382,0 -1.54163,-0.4657 -0.49782,-0.4657 -0.49782,-1.18835 0,-0.72264 0.51387,-1.17228 0.49782,-0.4657 1.68617,-0.4657 z"
         inkscape:connector-curvature="0" />
      <path
         id="path862"
         style="font-style:normal;font-variant:normal;font-weight:bold;font-stretch:normal;font-family:monospace;-inkscape-font-specification:'monospace Bold';fill:#39e180;fill-opacity:1;stroke-width:1.02775633"
         d="m 440.98199,669.43964 v 3.48473 h -3.91832 v -3.48473 z m 0.44964,6.24683 v 11.28926 h 3.95044 q 1.18834,0 1.68616,0.4657 0.51388,0.44964 0.51388,1.18834 0,0.72265 -0.51388,1.18835 -0.49782,0.44964 -1.68616,0.44964 h -11.19291 q -1.18834,0 -1.70222,-0.44964 -0.49782,-0.4657 -0.49782,-1.2044 0,-0.72265 0.49782,-1.17229 0.51388,-0.4657 1.70222,-0.4657 h 3.95044 v -7.99723 h -2.64968 q -1.17229,0 -1.68617,-0.44964 -0.51387,-0.46571 -0.51387,-1.20441 0,-0.72264 0.49782,-1.17228 0.51387,-0.4657 1.70222,-0.4657 z"
         inkscape:connector-curvature="0" />
      <path
         id="path864"
         style="font-style:normal;font-variant:normal;font-weight:bold;font-stretch:normal;font-family:monospace;-inkscape-font-specification:'monospace Bold';fill:#39e180;fill-opacity:1;stroke-width:1.02775633"
         d="m 458.83926,675.68647 v 2.05551 q 2.07157,-1.49346 3.25991,-1.99128 1.20441,-0.49782 2.24822,-0.49782 1.60587,0 3.11539,1.18835 1.02775,0.80293 1.02775,1.63798 0,0.70659 -0.49782,1.20441 -0.48176,0.48176 -1.17228,0.48176 -0.61023,0 -1.2847,-0.61023 -0.67446,-0.61023 -1.2044,-0.61023 -0.69052,0 -2.07157,0.86716 -1.36499,0.86717 -3.4205,2.60151 v 4.96214 h 4.68914 q 1.18834,0 1.68616,0.4657 0.51388,0.44964 0.51388,1.18834 0,0.72265 -0.51388,1.18835 -0.49782,0.44964 -1.68616,0.44964 h -9.94033 q -1.18835,0 -1.70223,-0.44964 -0.49781,-0.4657 -0.49781,-1.2044 0,-0.72265 0.49781,-1.17229 0.51388,-0.4657 1.70223,-0.4657 h 1.95916 v -7.99723 h -1.18835 q -1.18834,0 -1.70222,-0.44964 -0.49782,-0.46571 -0.49782,-1.20441 0,-0.72264 0.49782,-1.17228 0.51388,-0.4657 1.70222,-0.4657 z"
         inkscape:connector-curvature="0" />
    </g>
    <text
       id="text1010"
       y="886.34918"
       x="386.24905"
       style="font-style:normal;font-variant:normal;font-weight:bold;font-stretch:normal;font-size:96.75131226px;line-height:75.58696747px;font-family:monospace;-inkscape-font-specification:'monospace Bold';font-variant-ligatures:normal;font-variant-caps:normal;font-variant-numeric:normal;font-feature-settings:normal;text-align:start;letter-spacing:0px;word-spacing:0px;writing-mode:lr-tb;text-anchor:start;fill:#043b4d;fill-opacity:1;stroke:none;stroke-width:3.02347851"
       xml:space="preserve"><tspan
         style="font-style:normal;font-variant:normal;font-weight:bold;font-stretch:normal;font-family:monospace;-inkscape-font-specification:'monospace Bold';fill:#043b4d;fill-opacity:1;stroke-width:3.02347851"
         y="886.34918"
         x="386.24905"
         id="tspan1008"
         sodipodi:role="line">&lt;--</tspan><tspan
         id="tspan1012"
         style="font-style:normal;font-variant:normal;font-weight:bold;font-stretch:normal;font-family:monospace;-inkscape-font-specification:'monospace Bold';fill:#043b4d;fill-opacity:1;stroke-width:3.02347851"
         y="961.93616"
         x="386.24905"
         sodipodi:role="line">===</tspan></text>
    <g
       id="text1050"
       style="font-style:normal;font-variant:normal;font-weight:bold;font-stretch:normal;font-size:43.48836517px;line-height:33.97528458px;font-family:monospace;-inkscape-font-specification:'monospace Bold';font-variant-ligatures:normal;font-variant-caps:normal;font-variant-numeric:normal;font-feature-settings:normal;text-align:start;letter-spacing:0px;word-spacing:0px;writing-mode:lr-tb;text-anchor:start;fill:#043b4d;fill-opacity:1;stroke:none;stroke-width:1.35901141"
       aria-label="whoops">
      <path
         id="path867"
         style="font-style:normal;font-variant:normal;font-weight:bold;font-stretch:normal;font-family:monospace;-inkscape-font-specification:'monospace Bold';fill:#043b4d;fill-opacity:1;stroke-width:1.35901141"
         d="m 589.58238,787.86586 -3.01531,8.02666 h -4.09827 l -3.65234,-14.92789 q -1.18914,-0.0637 -1.80494,-0.65828 -0.59457,-0.6158 -0.59457,-1.52888 0,-0.95556 0.65828,-1.55013 0.6795,-0.6158 2.25086,-0.6158 h 4.0558 q 1.57135,0 2.22963,0.6158 0.6795,0.59457 0.6795,1.57136 0,0.97679 -0.76444,1.6563 -0.57334,0.50963 -2.25087,0.50963 l 1.6563,6.90123 2.69679,-7.07111 h 3.86469 l 2.71802,7.07111 1.69876,-6.90123 q -1.61382,0 -2.12345,-0.31852 -1.01926,-0.65827 -1.01926,-1.86864 0,-0.95556 0.65827,-1.55013 0.67951,-0.6158 2.25086,-0.6158 h 4.09827 q 1.57136,0 2.22963,0.6158 0.67951,0.59457 0.67951,1.57136 0,0.87062 -0.59457,1.48642 -0.57333,0.59457 -1.72,0.67951 l -3.5674,14.92789 h -4.03457 z"
         inkscape:connector-curvature="0" />
      <path
         id="path869"
         style="font-style:normal;font-variant:normal;font-weight:bold;font-stretch:normal;font-family:monospace;-inkscape-font-specification:'monospace Bold';fill:#043b4d;fill-opacity:1;stroke-width:1.35901141"
         d="m 611.13545,768.3513 v 9.2795 q 1.35901,-0.80691 2.73926,-1.18913 1.40148,-0.40346 2.82419,-0.40346 2.25086,0 4.01333,0.76444 1.76247,0.76445 2.90914,2.42074 1.1679,1.63506 1.1679,4.14074 v 8.1753 q 1.65629,0 2.16592,0.31852 1.01926,0.65827 1.01926,1.86864 0,0.95556 -0.65827,1.57136 -0.65827,0.59457 -2.22963,0.59457 h -4.96889 q -1.55012,0 -2.22962,-0.59457 -0.65828,-0.6158 -0.65828,-1.59259 0,-1.18914 1.01926,-1.84741 0.53087,-0.33975 2.16593,-0.31852 v -7.87802 q 0,-1.67753 -0.76445,-2.35703 -0.99802,-0.91309 -2.9516,-0.91309 -1.44395,0 -2.56938,0.57334 -1.1042,0.55209 -2.99407,2.42074 v 8.15406 q 1.67753,0 2.16592,0.31852 1.0405,0.65827 1.0405,1.86864 0,0.95556 -0.67951,1.57136 -0.65827,0.59457 -2.22963,0.59457 h -4.94765 q -1.57136,0 -2.25086,-0.59457 -0.65827,-0.6158 -0.65827,-1.59259 0,-1.18914 1.04049,-1.84741 0.50963,-0.33975 2.16592,-0.31852 v -18.83505 h -0.7432 q -1.57136,0 -2.25087,-0.59456 -0.65827,-0.6158 -0.65827,-1.59259 0,-0.95556 0.65827,-1.55013 0.67951,-0.6158 2.25087,-0.6158 z"
         inkscape:connector-curvature="0" />
      <path
         id="path871"
         style="font-style:normal;font-variant:normal;font-weight:bold;font-stretch:normal;font-family:monospace;-inkscape-font-specification:'monospace Bold';fill:#043b4d;fill-opacity:1;stroke-width:1.35901141"
         d="m 653.00999,786.61302 q 0,2.50567 -1.40148,4.86271 -1.38025,2.3358 -4.14074,3.73728 -2.73926,1.38025 -5.73333,1.38025 -2.97284,0 -5.69086,-1.35901 -2.71802,-1.38025 -4.14074,-3.73729 -1.42271,-2.35703 -1.42271,-4.92641 0,-2.61185 1.44394,-5.11753 1.44395,-2.52691 4.14074,-3.97086 2.71803,-1.44395 5.66963,-1.44395 2.97284,0 5.71209,1.48642 2.7605,1.46518 4.16198,3.97086 1.40148,2.48444 1.40148,5.11753 z m -4.35309,0.0212 q 0,-2.10222 -1.50765,-3.86469 -2.05975,-2.37827 -5.41481,-2.37827 -2.9516,0 -4.92642,1.88988 -1.97481,1.88987 -1.97481,4.37432 0,2.03851 1.99605,3.82222 1.99604,1.76246 4.90518,1.76246 2.93037,0 4.92641,-1.76246 1.99605,-1.78371 1.99605,-3.84346 z"
         inkscape:connector-curvature="0" />
      <path
         id="path873"
         style="font-style:normal;font-variant:normal;font-weight:bold;font-stretch:normal;font-family:monospace;-inkscape-font-specification:'monospace Bold';fill:#043b4d;fill-opacity:1;stroke-width:1.35901141"
         d="m 679.08601,786.61302 q 0,2.50567 -1.40148,4.86271 -1.38024,2.3358 -4.14074,3.73728 -2.73925,1.38025 -5.73332,1.38025 -2.97284,0 -5.69086,-1.35901 -2.71803,-1.38025 -4.14074,-3.73729 -1.42272,-2.35703 -1.42272,-4.92641 0,-2.61185 1.44395,-5.11753 1.44395,-2.52691 4.14074,-3.97086 2.71802,-1.44395 5.66963,-1.44395 2.97283,0 5.71209,1.48642 2.76049,1.46518 4.16197,3.97086 1.40148,2.48444 1.40148,5.11753 z m -4.35308,0.0212 q 0,-2.10222 -1.50765,-3.86469 -2.05976,-2.37827 -5.41481,-2.37827 -2.95161,0 -4.92642,1.88988 -1.97481,1.88987 -1.97481,4.37432 0,2.03851 1.99604,3.82222 1.99605,1.76246 4.90519,1.76246 2.93036,0 4.92641,-1.76246 1.99605,-1.78371 1.99605,-3.84346 z"
         inkscape:connector-curvature="0" />
      <path
         id="path875"
         style="font-style:normal;font-variant:normal;font-weight:bold;font-stretch:normal;font-family:monospace;-inkscape-font-specification:'monospace Bold';fill:#043b4d;fill-opacity:1;stroke-width:1.35901141"
         d="m 688.45045,793.49301 v 7.13481 h 2.61185 q 1.57136,0 2.22963,0.59457 0.67951,0.6158 0.67951,1.59259 0,0.95556 -0.67951,1.55012 -0.65827,0.61581 -2.22963,0.61581 h -7.70814 q -1.57136,0 -2.25086,-0.61581 -0.65827,-0.59456 -0.65827,-1.55012 0,-0.97679 0.6795,-1.59259 0.67951,-0.59457 2.22963,-0.59457 h 0.74321 v -19.66319 h -0.74321 q -1.57136,0 -2.25086,-0.59457 -0.65827,-0.6158 -0.65827,-1.59259 0,-0.95556 0.65827,-1.55013 0.6795,-0.6158 2.25086,-0.6158 h 5.09629 v 1.48642 q 1.52889,-1.04049 3.16395,-1.55012 1.63506,-0.50963 3.35506,-0.50963 4.45926,0 7.60197,3.03654 3.14272,3.01531 3.14272,6.92247 0,4.31061 -3.71605,7.11357 -3.10025,2.3358 -6.98617,2.3358 -1.67753,0 -3.31259,-0.48839 -1.63506,-0.4884 -3.24889,-1.46519 z m 12.91061,-7.47456 q 0,-0.91309 -0.72197,-2.31457 -0.72198,-1.42271 -2.22963,-2.35703 -1.48642,-0.95556 -3.5037,-0.95556 -3.24889,0 -5.16,2.44198 -1.29531,1.67753 -1.29531,3.22765 0,1.74123 1.84741,3.39753 1.86864,1.63506 4.6079,1.63506 2.76049,0 4.6079,-1.63506 1.8474,-1.63506 1.8474,-3.44 z"
         inkscape:connector-curvature="0" />
      <path
         id="path877"
         style="font-style:normal;font-variant:normal;font-weight:bold;font-stretch:normal;font-family:monospace;-inkscape-font-specification:'monospace Bold';fill:#043b4d;fill-opacity:1;stroke-width:1.35901141"
         d="m 724.63414,781.70784 q -1.06173,-0.65828 -2.22963,-0.97679 -1.1679,-0.33976 -2.44198,-0.33976 -2.52691,0 -4.01333,0.82815 -0.65827,0.36099 -0.65827,0.78568 0,0.48839 0.89185,0.95555 0.67951,0.33976 3.03655,0.65828 4.33184,0.59456 6.03061,1.18913 2.22963,0.78568 3.44,2.3358 1.21037,1.55012 1.21037,3.27012 0,2.3358 -2.05976,3.90716 -2.9516,2.2721 -7.66567,2.2721 -1.88988,0 -3.5037,-0.33976 -1.59259,-0.31851 -2.93037,-0.95555 -0.31852,0.27605 -0.67951,0.42469 -0.36098,0.14864 -0.7432,0.14864 -1.01926,0 -1.63507,-0.65827 -0.59456,-0.6795 -0.59456,-2.25086 v -1.46519 q 0,-1.57135 0.59456,-2.22962 0.61581,-0.67951 1.5926,-0.67951 0.78567,0 1.31654,0.44593 0.53086,0.42469 0.82815,1.48642 0.99802,0.84938 2.3995,1.2953 1.40148,0.42469 3.22765,0.42469 2.99407,0 4.65037,-0.93432 0.78568,-0.46716 0.78568,-0.97679 0,-0.84938 -1.12543,-1.40148 -1.12543,-0.55209 -4.65037,-0.93432 -5.24493,-0.5521 -7.0074,-2.12345 -1.76247,-1.55012 -1.76247,-3.82222 0,-2.3358 1.97481,-3.88592 2.67556,-2.12346 7.00741,-2.12346 1.50765,0 2.88789,0.29728 1.40149,0.27605 2.67556,0.87062 0.40345,-0.29728 0.74321,-0.44593 0.36099,-0.14864 0.65827,-0.14864 0.89185,0 1.48642,0.67951 0.59457,0.65827 0.59457,2.22963 v 1.06172 q 0,1.42272 -0.33976,1.93235 -0.6795,0.97679 -1.8474,0.97679 -0.78568,0 -1.38025,-0.4884 -0.59457,-0.48839 -0.76444,-1.2953 z"
         inkscape:connector-curvature="0" />
    </g>
  </g>
</svg>
