<?xml version="1.0" encoding="UTF-8" standalone="no"?>
<!-- Created with Inkscape (http://www.inkscape.org/) -->

<svg
   xmlns:dc="http://purl.org/dc/elements/1.1/"
   xmlns:cc="http://creativecommons.org/ns#"
   xmlns:rdf="http://www.w3.org/1999/02/22-rdf-syntax-ns#"
   xmlns:svg="http://www.w3.org/2000/svg"
   xmlns="http://www.w3.org/2000/svg"
   xmlns:sodipodi="http://sodipodi.sourceforge.net/DTD/sodipodi-0.dtd"
   xmlns:inkscape="http://www.inkscape.org/namespaces/inkscape"
   width="106.36491mm"
   height="135.42188mm"
   viewBox="0 0 106.36491 135.42188"
   version="1.1"
   id="svg8"
   inkscape:version="0.92.4 (5da689c313, 2019-01-14)"
   sodipodi:docname="exercise.svg">
  <defs
     id="defs2">
    <style
       id="style2">.cls-1{font-size:66px;}.cls-1,.cls-2{fill:#080444;font-family:Mont-Bold, Mont;}.cls-3{letter-spacing:-.09em;}.cls-4{letter-spacing:0em;}.cls-5{letter-spacing:-.04em;}.cls-6{fill:#fff;}.cls-7,.cls-8{fill:#31dd74;}.cls-9{fill:#d7cdee;}.cls-10{fill:#3ee680;}.cls-11{fill:#18725f;}.cls-12{fill:#39e180;}.cls-13{letter-spacing:-.02em;}.cls-14{letter-spacing:-.02em;}.cls-15{letter-spacing:-.01em;}.cls-16{fill:#6cf1c7;}.cls-16,.cls-8,.cls-17,.cls-18{stroke:#022341;stroke-width:4.63px;}.cls-16,.cls-8,.cls-17,.cls-18,.cls-19{stroke-linecap:round;stroke-miterlimit:10;}.cls-17{fill:#022341;}.cls-18,.cls-19{fill:none;}.cls-20{letter-spacing:-.01em;}.cls-21{letter-spacing:-.01em;}.cls-22{letter-spacing:-.01em;}.cls-2{font-size:46.77px;}.cls-23{letter-spacing:-.02em;}.cls-19{stroke:#31dd74;stroke-width:5px;}.cls-24{letter-spacing:-.02em;}.cls-25{letter-spacing:-.03em;}.cls-26{letter-spacing:-.01em;}.cls-27{letter-spacing:0em;}</style>
  </defs>
  <sodipodi:namedview
     id="base"
     pagecolor="#ffffff"
     bordercolor="#666666"
     borderopacity="1.0"
     inkscape:pageopacity="0.0"
     inkscape:pageshadow="2"
     inkscape:zoom="0.35"
     inkscape:cx="219.89841"
     inkscape:cy="492.363"
     inkscape:document-units="mm"
     inkscape:current-layer="layer1"
     showgrid="false"
     fit-margin-top="0"
     fit-margin-left="0"
     fit-margin-right="0"
     fit-margin-bottom="0"
     inkscape:window-width="1920"
     inkscape:window-height="991"
     inkscape:window-x="-9"
     inkscape:window-y="-9"
     inkscape:window-maximized="1" />
  <metadata
     id="metadata5">
    <rdf:RDF>
      <cc:Work
         rdf:about="">
        <dc:format>image/svg+xml</dc:format>
        <dc:type
           rdf:resource="http://purl.org/dc/dcmitype/StillImage" />
        <dc:title></dc:title>
      </cc:Work>
    </rdf:RDF>
  </metadata>
  <g
     inkscape:label="Layer 1"
     inkscape:groupmode="layer"
     id="layer1"
     transform="translate(-54.918732,-83.396484)">
    <path
       style="fill:#18725f;fill-opacity:1;stroke-width:0.26458332"
       d="m 65.143045,218.41503 c -3.56548,-0.86306 -6.89632,-3.18487 -8.55825,-5.96566 -1.7709,-2.96313 -1.66485,0.34652 -1.66485,-51.95548 0,-51.83719 -0.0921,-48.69882 1.52568,-51.99061 0.97876,-1.99155 3.75806,-4.74835 5.85356,-5.80615 2.70166,-1.36379 4.38138,-1.59243 11.73691,-1.59759 l 6.54843,-0.005 v -2.760907 c 0,-3.22793 0.20919,-3.93097 1.38247,-4.646321 0.79003,-0.481677 1.33611,-0.528387 6.18798,-0.529289 l 5.3215,-9.89e-4 0.87514,-1.777664 c 1.16542,-2.367304 4.00075,-5.201371 6.355235,-6.352393 4.44059,-2.170844 9.96325,-2.174196 14.53809,-0.0088 2.32257,1.099323 5.13446,3.930261 6.31019,6.352945 l 0.86672,1.785937 h 5.28358 c 7.62592,0 7.73203,0.06472 7.87415,4.803058 l 0.094,3.134443 6.52057,0.005 c 7.32433,0.005 9.00672,0.2346 11.71222,1.59731 2.08416,1.04974 4.8484,3.79705 5.84633,5.8105 1.62205,3.27272 1.52973,0.13518 1.52973,51.98655 0,52.30227 0.10597,48.99542 -1.66485,51.95276 -1.70617,2.84937 -4.65371,4.93711 -8.27963,5.86447 -1.99786,0.51097 -3.02635,0.52286 -43.34524,0.50134 -34.699705,-0.0185 -41.546625,-0.082 -42.849675,-0.39744 z"
       id="path896"
       inkscape:connector-curvature="0" />
    <path
       style="fill:#31dd74;fill-opacity:1;stroke-width:0.26458332"
       d="m 149.78362,212.07601 c 1.99543,-0.51691 3.35754,-1.41157 4.28666,-2.81558 l 0.72987,-1.10289 V 160.51322 112.8689 l -0.58267,-1.08915 c -0.9391,-1.75541 -1.8561,-2.67162 -3.46437,-3.46139 l -1.50921,-0.74113 -6.81302,-0.0892 -6.81302,-0.0892 v 4.13257 c 0,4.49384 -0.18764,5.33899 -1.44237,6.49682 l -0.71681,0.66146 -25.11966,0.0701 c -28.193735,0.0787 -26.294645,0.20929 -27.240305,-1.87358 -0.42495,-0.93598 -0.50346,-1.75404 -0.50838,-5.29715 l -0.006,-4.19021 -6.81302,0.0892 -6.81302,0.0892 -1.5092,0.74112 c -1.60828,0.78977 -2.52528,1.70598 -3.46438,3.4614 l -0.58267,1.08914 v 47.64432 47.64432 l 0.72987,1.10289 c 0.40142,0.6066 1.17533,1.39695 1.71979,1.75634 2.25769,1.49028 0.46714,1.43143 44.127565,1.45033 35.44705,0.0153 40.41461,-0.0311 41.80416,-0.39109 z"
       id="path894"
       inkscape:connector-curvature="0" />
    <path
       style="fill:#ffffff;fill-opacity:1;stroke-width:0.26458332"
       d="m 79.393905,198.23048 c -0.43656,-0.27155 -2.42127,-2.15374 -4.41046,-4.18265 -2.92713,-2.98558 -3.65155,-3.87463 -3.79943,-4.66292 -0.4044,-2.15564 0.64644,-3.62252 2.73913,-3.82361 l 1.37728,-0.13233 2.77519,2.73093 2.7752,2.73094 0.85904,-0.80339 c 0.47248,-0.44187 2.82358,-2.67994 5.22467,-4.9735 2.4011,-2.29355 4.77183,-4.34589 5.2683,-4.56077 1.20505,-0.52155 2.38072,-0.26707 3.40851,0.73777 1.08505,1.06084 1.32922,2.32014 0.67827,3.49821 -0.6548,1.18504 -13.22179,13.10566 -14.30751,13.57163 -1.13116,0.48546 -1.63937,0.45987 -2.58819,-0.13031 z"
       id="path892"
       inkscape:connector-curvature="0" />
    <path
       style="fill:#ffffff;fill-opacity:1;stroke-width:0.26458332"
       d="m 103.95594,194.47135 c -1.98469,-0.58464 -2.89739,-3.25992 -1.65222,-4.8429 1.21419,-1.54359 0.39421,-1.4856 21.00637,-1.4856 20.1595,0 19.99139,-0.0101 21.12758,1.26587 1.14475,1.28553 0.72559,3.74456 -0.80982,4.75091 -0.65955,0.43228 -2.07095,0.46883 -19.7721,0.51204 -11.1707,0.0273 -19.40875,-0.0557 -19.89981,-0.20032 z"
       id="path890"
       inkscape:connector-curvature="0" />
    <path
       style="fill:#ffffff;fill-opacity:1;stroke-width:0.26458332"
       d="m 79.361895,172.45691 c -1.02826,-0.58881 -8.01201,-8.06403 -8.18764,-8.76383 -0.42817,-1.70596 0.67999,-3.64447 2.2849,-3.99697 1.40845,-0.30935 2.45944,0.30762 5.00317,2.93705 l 2.43163,2.51355 5.07081,-4.85666 c 2.78894,-2.67117 5.36519,-5.05751 5.72499,-5.30298 1.4914,-1.01747 3.93533,-0.18323 4.67928,1.59729 0.78294,1.87385 0.48816,2.27414 -6.69575,9.09271 -3.58918,3.40665 -6.83456,6.40148 -7.21196,6.65518 -0.79085,0.53165 -2.28385,0.5917 -3.09943,0.12466 z"
       id="path888"
       inkscape:connector-curvature="0" />
    <path
       style="fill:#ffffff;fill-opacity:1;stroke-width:0.26458332"
       d="m 103.22424,168.31619 c -1.95625,-1.29685 -2.00478,-4.14056 -0.0906,-5.30764 0.84517,-0.5153 1.34371,-0.52833 20.26036,-0.52929 21.28261,-0.001 20.50111,-0.0589 21.34748,1.57785 0.68594,1.32646 0.51918,2.53368 -0.50428,3.65057 l -0.90563,0.9883 -19.66572,0.0673 c -19.09456,0.0653 -19.68826,0.0523 -20.44163,-0.44708 z"
       id="path886"
       inkscape:connector-curvature="0" />
    <path
       style="fill:#ffffff;fill-opacity:1;stroke-width:0.26458332"
       d="m 79.658485,146.76263 c -0.43656,-0.192 -2.48381,-2.08604 -4.54944,-4.20897 -2.9745,-3.05702 -3.79231,-4.05505 -3.93173,-4.79819 -0.24069,-1.28303 0.0339,-2.19254 0.93375,-3.09235 0.60407,-0.60408 0.99603,-0.75985 1.91195,-0.75985 1.4074,0 1.65432,0.16803 4.43832,3.02027 1.21938,1.24927 2.28524,2.27105 2.36856,2.27062 0.0833,-5.3e-4 2.47323,-2.21296 5.31088,-4.91674 2.83766,-2.70378 5.56558,-5.09432 6.06205,-5.31231 2.2134,-0.97188 4.84835,1.12743 4.40192,3.5071 -0.162,0.86353 -1.632,2.38572 -9.80251,10.1505 -3.62172,3.44188 -5.0727,4.52801 -6.01077,4.49937 -0.18658,-0.006 -0.69641,-0.16745 -1.13298,-0.35945 z"
       id="path884"
       inkscape:connector-curvature="0" />
    <path
       style="fill:#ffffff;fill-opacity:1;stroke-width:0.26458332"
       d="m 102.65077,141.99952 c -0.76313,-0.76314 -0.89958,-1.08478 -0.89958,-2.12055 0,-1.02127 0.14812,-1.38261 0.90563,-2.20927 l 0.90562,-0.9883 19.00427,-0.0772 c 10.45235,-0.0424 19.38772,-0.008 19.85638,0.0767 2.637,0.47607 3.5765,3.55008 1.66823,5.45834 l -0.75984,0.75985 h -19.89056 -19.89056 z"
       id="path882"
       inkscape:connector-curvature="0" />
    <path
       style="fill:#a7f1c4;fill-opacity:1;stroke-width:0.26458332"
       d="m 129.00327,106.00546 v -6.46657 l -5.18027,-0.08187 -5.18027,-0.08187 -0.87599,-0.956492 c -0.50329,-0.549541 -1.05286,-1.564883 -1.29169,-2.386441 -1.84459,-6.345149 -9.46142,-8.689836 -14.32423,-4.40942 -1.4963,1.317088 -2.274535,2.504773 -2.912665,4.445062 -1.06364,3.234047 -1.51271,3.439583 -7.51497,3.439583 h -4.52407 v 6.482288 6.48229 h 20.902075 20.90208 z"
       id="path826"
       inkscape:connector-curvature="0" />
  </g>
</svg>
