<?xml version="1.0" encoding="UTF-8" standalone="no"?>
<svg
   xmlns:dc="http://purl.org/dc/elements/1.1/"
   xmlns:cc="http://creativecommons.org/ns#"
   xmlns:rdf="http://www.w3.org/1999/02/22-rdf-syntax-ns#"
   xmlns:svg="http://www.w3.org/2000/svg"
   xmlns="http://www.w3.org/2000/svg"
   xmlns:sodipodi="http://sodipodi.sourceforge.net/DTD/sodipodi-0.dtd"
   xmlns:inkscape="http://www.inkscape.org/namespaces/inkscape"
   id="Layer_1"
   viewBox="0 0 953.9048 629.90002"
   version="1.1"
   sodipodi:docname="fist-bump.svg"
   width="953.90479"
   height="629.90002"
   inkscape:version="0.92.4 (5da689c313, 2019-01-14)">
  <metadata
     id="metadata225">
    <rdf:RDF>
      <cc:Work
         rdf:about="">
        <dc:format>image/svg+xml</dc:format>
        <dc:type
           rdf:resource="http://purl.org/dc/dcmitype/StillImage" />
        <dc:title></dc:title>
      </cc:Work>
    </rdf:RDF>
  </metadata>
  <sodipodi:namedview
     pagecolor="#ffffff"
     bordercolor="#666666"
     borderopacity="1"
     objecttolerance="10"
     gridtolerance="10"
     guidetolerance="10"
     inkscape:pageopacity="0"
     inkscape:pageshadow="2"
     inkscape:window-width="1920"
     inkscape:window-height="991"
     id="namedview223"
     showgrid="false"
     fit-margin-top="0"
     fit-margin-left="0"
     fit-margin-right="0"
     fit-margin-bottom="0"
     inkscape:zoom="0.19179196"
     inkscape:cx="-917.35721"
     inkscape:cy="646.78053"
     inkscape:window-x="-9"
     inkscape:window-y="-9"
     inkscape:window-maximized="1"
     inkscape:current-layer="Layer_1" />
  <defs
     id="defs4">
    <style
       id="style2">.cls-1{letter-spacing:-.02em;}.cls-2{letter-spacing:-.02em;}.cls-3{font-size:66px;}.cls-3,.cls-4,.cls-5{fill:#080444;}.cls-3,.cls-5{font-family:Mont-Bold, Mont;}.cls-6{letter-spacing:-.02em;}.cls-7{letter-spacing:-.01em;}.cls-8{letter-spacing:0em;}.cls-9{letter-spacing:-.04em;}.cls-10{letter-spacing:-.01em;}.cls-11{fill:#043b4d;}.cls-12{fill:#fff;}.cls-13{fill:#3ee680;}.cls-14{fill:#18725f;}.cls-15{fill:#6cf1c7;}.cls-16{letter-spacing:-.02em;}.cls-17{letter-spacing:-.02em;}.cls-18{letter-spacing:-.02em;}.cls-19{letter-spacing:-.02em;}.cls-20{letter-spacing:-.01em;}.cls-21{letter-spacing:0em;}.cls-22{letter-spacing:0em;}.cls-23{letter-spacing:-.02em;}.cls-24{letter-spacing:-.02em;}.cls-25{letter-spacing:0em;}.cls-26{letter-spacing:-.01em;}.cls-27{letter-spacing:-.02em;}.cls-28{letter-spacing:-.01em;}.cls-29{letter-spacing:-.02em;}.cls-30{letter-spacing:-.01em;}.cls-31{letter-spacing:.01em;}.cls-32{stroke-width:2.65px;}.cls-32,.cls-33{fill:none;stroke:#080444;stroke-linecap:round;stroke-miterlimit:10;}.cls-5{font-size:46.77px;}.cls-34{letter-spacing:-.02em;}.cls-35{letter-spacing:-.02em;}.cls-36{letter-spacing:0em;}.cls-37{letter-spacing:-.02em;}.cls-38{letter-spacing:-.02em;}.cls-39{letter-spacing:-.02em;}.cls-40{letter-spacing:-.02em;}.cls-41{letter-spacing:-.02em;}.cls-42{letter-spacing:-.02em;}.cls-43{letter-spacing:-.02em;}.cls-33{stroke-width:3.42px;}.cls-44{letter-spacing:-.02em;}.cls-45{letter-spacing:-.03em;}.cls-46{letter-spacing:-.01em;}.cls-47{letter-spacing:-.01em;}.cls-48{letter-spacing:0em;}</style>
  </defs>
  <g
     id="g1074"
     transform="translate(-134.61,-549.13)">
    <g
       id="g18">
      <path
         id="path10"
         d="m 500.44,595.58 c 6.07,11.42 1.73,25.6 -9.69,31.67"
         class="cls-33"
         inkscape:connector-curvature="0"
         style="fill:none;stroke:#080444;stroke-width:3.42000008px;stroke-linecap:round;stroke-miterlimit:10" />
      <path
         id="path12"
         d="m 532.11,605.27 c -11.42,6.07 -25.6,1.73 -31.67,-9.69"
         class="cls-33"
         inkscape:connector-curvature="0"
         style="fill:none;stroke:#080444;stroke-width:3.42000008px;stroke-linecap:round;stroke-miterlimit:10" />
      <path
         id="path14"
         d="m 522.53,637.13 c -6.07,-11.42 -1.73,-25.6 9.69,-31.67"
         class="cls-33"
         inkscape:connector-curvature="0"
         style="fill:none;stroke:#080444;stroke-width:3.42000008px;stroke-linecap:round;stroke-miterlimit:10" />
      <path
         id="path16"
         d="m 490.86,627.45 c 11.42,-6.07 25.6,-1.73 31.67,9.69"
         class="cls-33"
         inkscape:connector-curvature="0"
         style="fill:none;stroke:#080444;stroke-width:3.42000008px;stroke-linecap:round;stroke-miterlimit:10" />
    </g>
    <g
       id="g28">
      <path
         id="path20"
         d="m 838.3,1080.7 c -3.2,5.7 -10.42,7.72 -16.12,4.52"
         class="cls-32"
         inkscape:connector-curvature="0"
         style="fill:none;stroke:#080444;stroke-width:2.6500001px;stroke-linecap:round;stroke-miterlimit:10" />
      <path
         id="path22"
         d="m 842.82,1096.82 c -5.7,-3.2 -7.72,-10.42 -4.52,-16.12"
         class="cls-32"
         inkscape:connector-curvature="0"
         style="fill:none;stroke:#080444;stroke-width:2.6500001px;stroke-linecap:round;stroke-miterlimit:10" />
      <path
         id="path24"
         d="m 826.65,1101.43 c 3.2,-5.7 10.42,-7.72 16.12,-4.52"
         class="cls-32"
         inkscape:connector-curvature="0"
         style="fill:none;stroke:#080444;stroke-width:2.6500001px;stroke-linecap:round;stroke-miterlimit:10" />
      <path
         id="path26"
         d="m 822.13,1085.32 c 5.7,3.2 7.72,10.42 4.52,16.12"
         class="cls-32"
         inkscape:connector-curvature="0"
         style="fill:none;stroke:#080444;stroke-width:2.6500001px;stroke-linecap:round;stroke-miterlimit:10" />
    </g>
    <g
       id="g38">
      <path
         id="path30"
         d="m 319.27,837.12 c -3.2,5.7 -10.42,7.72 -16.12,4.52"
         class="cls-32"
         inkscape:connector-curvature="0"
         style="fill:none;stroke:#080444;stroke-width:2.6500001px;stroke-linecap:round;stroke-miterlimit:10" />
      <path
         id="path32"
         d="m 323.79,853.24 c -5.7,-3.2 -7.72,-10.42 -4.52,-16.12"
         class="cls-32"
         inkscape:connector-curvature="0"
         style="fill:none;stroke:#080444;stroke-width:2.6500001px;stroke-linecap:round;stroke-miterlimit:10" />
      <path
         id="path34"
         d="m 307.62,857.86 c 3.2,-5.7 10.42,-7.72 16.12,-4.52"
         class="cls-32"
         inkscape:connector-curvature="0"
         style="fill:none;stroke:#080444;stroke-width:2.6500001px;stroke-linecap:round;stroke-miterlimit:10" />
      <path
         id="path36"
         d="m 303.1,841.74 c 5.7,3.2 7.72,10.42 4.52,16.12"
         class="cls-32"
         inkscape:connector-curvature="0"
         style="fill:none;stroke:#080444;stroke-width:2.6500001px;stroke-linecap:round;stroke-miterlimit:10" />
    </g>
    <line
       id="line168"
       y2="645.40002"
       x2="658.67999"
       y1="592.32001"
       x1="675.01001"
       class="cls-33"
       style="fill:none;stroke:#080444;stroke-width:3.42000008px;stroke-linecap:round;stroke-miterlimit:10" />
    <path
       style="fill:#3ee680;fill-opacity:1;opacity:0.555"
       id="path170"
       d="m 483.56,1118.13 c 0,0 25.86,-83.02 73.49,-83.02 47.63,0 72.13,61.24 72.13,61.24 0,0 39.47,-65.32 73.49,-65.32 34.02,0 78.93,57.16 78.93,57.16 0,0 -4.08,-38.11 23.14,-61.24 27.22,-23.14 125.2,-6.8 125.2,-6.8 0,0 -36.74,-55.8 -36.74,-89.82 0,-34.02 100.71,-59.88 100.71,-59.88 0,0 -64.68,-13.28 -88.46,-43.55 -29.94,-38.11 24.5,-121.12 24.5,-121.12 0,0 -55.8,17.69 -81.66,17.69 -25.86,0 -27.22,-65.32 -27.22,-65.32 0,0 -46.27,42.19 -72.13,42.19 -25.86,0 -31.3,-107.51 -31.3,-107.51 0,0 -24.5,85.74 -68.05,85.74 -43.55,0 -83.02,-44.91 -83.02,-44.91 0,0 -16.4,52.63 -40.83,54.44 -36.74,2.72 -77.57,-57.16 -77.57,-57.16 0,0 9.53,72.13 -6.8,102.07 -16.33,29.94 -95.26,28.58 -95.26,28.58 0,0 31.3,35.38 31.3,80.29 0,44.91 -87.1,92.54 -87.1,92.54 0,0 93.84,-8.25 103.43,27.22 13.61,50.35 -20.41,97.99 -20.41,97.99 0,0 54.44,-38.11 88.46,-19.05 20.15,11.28 21.77,77.57 21.77,77.57 z"
       class="cls-15"
       inkscape:connector-curvature="0" />
    <polygon
       id="polygon172"
       points="934.36,803.42 1010.91,706.45 1025.2,720.74 "
       class="cls-15"
       style="fill:#6cf1c7" />
    <polygon
       id="polygon174"
       points="1018.06,757.49 949.67,810.56 1027.24,770.75 "
       class="cls-15"
       style="fill:#6cf1c7" />
    <polygon
       id="polygon176"
       points="611.92,552.96 637.02,635.8 627.6,549.13 "
       class="cls-15"
       style="fill:#6cf1c7" />
    <polygon
       id="polygon178"
       points="395.44,694.77 325.23,626.86 337.6,616.75 "
       class="cls-15"
       style="fill:#6cf1c7" />
    <polygon
       id="polygon180"
       points="321.9,668.1 383.64,697.64 328.03,656.9 "
       class="cls-15"
       style="fill:#6cf1c7" />
    <polygon
       id="polygon182"
       points="924.15,1120.85 851.69,1067.78 913.95,1133.1 "
       class="cls-15"
       style="fill:#6cf1c7" />
    <polygon
       id="polygon184"
       points="921.09,1082.07 864.95,1060.63 913.95,1095.33 "
       class="cls-15"
       style="fill:#6cf1c7" />
    <polygon
       id="polygon186"
       points="432.18,1087.17 339.3,1165.76 351.55,1179.03 "
       class="cls-15"
       style="fill:#6cf1c7" />
    <polygon
       id="polygon188"
       points="411.77,1083.09 338.28,1112.69 346.44,1126.98 "
       class="cls-15"
       style="fill:#6cf1c7" />
    <g
       id="g204">
      <path
         id="path190"
         d="M 204.14,989.77 C 264.92,911.34 410.22,789.51 545.51,798 c 58.59,3.68 134.67,72.11 73.46,135.01 l -2.92,6.26 c 0,0 26.42,27.95 -13.22,55.84 -17.44,12.27 -42.8,-3.95 -42.8,-3.95 l -6.05,2.71 c -9.21,3.7 -16.98,4.95 -16.98,4.95 l -0.93,4.64 c -6.69,34.25 -80.79,53.45 -90.86,20.86 0,0 -23.18,16.49 -72.27,4.9 -112.05,-26.45 -215.72,67.76 -215.72,67.76 l -22.61,15.1 c 0,0 8.74,-43.88 69.52,-122.31 z"
         class="cls-14"
         inkscape:connector-curvature="0"
         style="fill:#18725f" />
      <g
         id="g202">
        <path
           id="path192"
           d="m 586.74,968.58 c 10.31,-4.38 24.81,-13.33 29,-29.91 6.99,-27.57 -27.94,-55.16 -29.44,-56.33 -0.97,-0.76 -2.38,-0.58 -3.14,0.39 -0.76,0.97 -0.58,2.38 0.39,3.14 0.34,0.27 34.12,26.96 27.85,51.7 -4.01,15.83 -18.44,24.12 -29.86,28.25 -1.36,0.5 -1.96,2.2 -1,3.49 0.59,0.78 1.65,1.04 2.57,0.7 1.12,-0.41 2.34,-0.88 3.62,-1.43 z"
           class="cls-4"
           inkscape:connector-curvature="0"
           style="fill:#080444" />
        <path
           id="path194"
           d="m 556.42,995.35 c 11.56,-4.92 24.79,-13.67 28.58,-28.65 6.98,-27.59 -27.94,-55.17 -29.43,-56.33 -0.98,-0.76 -2.38,-0.58 -3.14,0.39 -0.76,0.97 -0.58,2.38 0.39,3.14 0.34,0.27 34.11,26.95 27.84,51.71 -6.26,24.74 -43.63,30.95 -44.01,31.01 -1.22,0.18 -2.05,1.34 -1.86,2.56 0.19,1.22 1.34,2.05 2.55,1.86 0.76,-0.12 9.33,-1.54 19.07,-5.68 z"
           class="cls-4"
           inkscape:connector-curvature="0"
           style="fill:#080444" />
        <path
           id="path196"
           d="m 446.08,1026.37 c 1.04,-0.44 1.6,-1.61 1.26,-2.72 -9.28,-30.03 19.81,-39.49 21.05,-39.87 1.15,-0.38 1.83,-1.62 1.47,-2.8 -0.37,-1.18 -1.61,-1.84 -2.79,-1.47 -0.34,0.11 -34.61,11.13 -24,45.46 0.36,1.18 1.62,1.84 2.79,1.48 0.07,-0.02 0.15,-0.05 0.22,-0.08 z"
           class="cls-4"
           inkscape:connector-curvature="0"
           style="fill:#080444" />
        <path
           id="path198"
           d="m 537.87,1000.88 c 0.66,-0.28 1.17,-0.87 1.32,-1.63 6.91,-35.38 -26.42,-55.8 -26.75,-56.01 -1.06,-0.63 -2.43,-0.29 -3.06,0.77 -0.63,1.06 -0.29,2.43 0.76,3.07 0.31,0.19 30.97,19.05 24.66,51.31 -0.24,1.21 0.55,2.38 1.76,2.62 0.46,0.09 0.9,0.03 1.3,-0.14 z"
           class="cls-4"
           inkscape:connector-curvature="0"
           style="fill:#080444" />
        <path
           id="path200"
           d="m 455.35,991.23 c 0.06,-0.02 0.12,-0.05 0.17,-0.08 1.09,-0.58 1.47,-1.96 0.91,-3.06 l -8.37,-16.22 c -0.57,-1.1 -1.9,-1.54 -3.01,-0.96 -1.1,0.57 -1.53,1.91 -0.96,3.01 l 8.4,16.28 c 0.54,1.05 1.79,1.49 2.86,1.03 z"
           class="cls-4"
           inkscape:connector-curvature="0"
           style="fill:#080444" />
      </g>
    </g>
    <g
       id="g220">
      <path
         id="path206"
         d="m 1088.46,1086.31 c 2,-71.75 -51.05,-143.69 -109.78,-187.73 -30.45,-22.84 -50.37,-35.01 -82.45,-53.86 -68.03,-39.99 -103.91,-44.61 -155.86,-40.66 -9.5,0.72 -109.15,30.22 -66.81,90.69 0.56,0.79 0.85,1.75 0.81,2.72 v 0.11 c -0.04,0.87 -0.34,1.7 -0.85,2.41 -3.37,4.65 -15.22,24.67 10.88,47.4 18.8,16.38 41.65,2.41 41.65,2.41 l -1.8,-0.93 c 4.38,2.09 8.39,3.44 10.9,4.18 1.64,0.49 2.84,1.9 3.07,3.59 l 0.13,0.95 c 1.77,13.51 31.65,29.77 48.33,27.95 16.68,-1.82 13.42,-6.55 16.94,-5.08 34.91,14.6 76.19,-2.61 148.52,27.67 13.51,5.66 102.88,62.61 129.42,81.61 2.85,2.04 6.81,0.06 6.9,-3.43 z"
         class="cls-11"
         inkscape:connector-curvature="0"
         style="fill:#043b4d" />
      <g
         id="g218">
        <path
           id="path208"
           d="m 696.93,927.47 c -8.18,-4.1 -21.23,-11.91 -22.09,-25.84 -2.27,-36.8 50.85,-55.51 52.13,-56.38 0.83,-0.57 1.97,-0.35 2.53,0.48 0.57,0.83 0.35,1.97 -0.48,2.53 -0.29,0.2 -50.6,16.75 -50.6,52.69 0,13.33 13.79,20.59 22.88,24.54 0.92,0.41 1.35,1.48 0.94,2.4 -0.4,0.92 -1.48,1.35 -2.4,0.94 -0.9,-0.39 -1.88,-0.85 -2.91,-1.36 z"
           class="cls-15"
           inkscape:connector-curvature="0"
           style="fill:#6cf1c7" />
        <path
           id="path210"
           d="m 720.26,950.83 c -9.17,-4.6 -19.49,-12.4 -21.81,-24.8 -4.28,-22.83 46.35,-50.46 47.62,-51.33 0.83,-0.57 1.97,-0.35 2.53,0.48 0.57,0.83 0.35,1.97 -0.48,2.53 -0.29,0.2 -49.94,27.16 -46.1,47.65 3.83,20.47 33.96,27.44 34.26,27.51 0.98,0.21 1.6,1.19 1.38,2.18 -0.22,0.98 -1.19,1.6 -2.18,1.38 -0.61,-0.14 -7.52,-1.73 -15.24,-5.6 z"
           class="cls-15"
           inkscape:connector-curvature="0"
           style="fill:#6cf1c7" />
        <path
           id="path212"
           d="m 800.08,986.37 c -0.79,-0.4 -1.16,-1.33 -0.84,-2.18 8.7,-22.94 -13.44,-31.7 -14.39,-32.06 -0.88,-0.35 -1.35,-1.35 -1,-2.25 0.34,-0.9 1.35,-1.35 2.24,-1.01 0.26,0.1 26.35,10.33 16.4,36.56 -0.34,0.9 -1.35,1.35 -2.25,1.01 -0.06,-0.02 -0.11,-0.05 -0.16,-0.07 z"
           class="cls-15"
           inkscape:connector-curvature="0"
           style="fill:#6cf1c7" />
        <path
           id="path214"
           d="m 735.08,956.28 c -0.52,-0.26 -0.91,-0.77 -0.99,-1.39 -3.82,-29.17 24.37,-44.1 24.66,-44.25 0.89,-0.46 1.99,-0.11 2.46,0.78 0.46,0.89 0.11,1.99 -0.78,2.46 -0.26,0.14 -26.2,13.93 -22.71,40.54 0.13,1 -0.57,1.91 -1.57,2.05 -0.38,0.05 -0.74,-0.02 -1.05,-0.18 z"
           class="cls-15"
           inkscape:connector-curvature="0"
           style="fill:#6cf1c7" />
        <path
           id="path216"
           d="m 791.28,955.57 c 0,0 -0.08,-0.04 -0.11,-0.06 -0.82,-0.49 -1.09,-1.56 -0.6,-2.39 l 7.34,-12.28 c 0.49,-0.83 1.55,-1.11 2.39,-0.6 0.82,0.49 1.09,1.56 0.6,2.39 l -7.34,12.28 c -0.47,0.79 -1.47,1.07 -2.27,0.67 z"
           class="cls-15"
           inkscape:connector-curvature="0"
           style="fill:#6cf1c7" />
      </g>
    </g>
  </g>
</svg>
