<?xml version="1.0" encoding="UTF-8" standalone="no"?>
<svg
   xmlns:dc="http://purl.org/dc/elements/1.1/"
   xmlns:cc="http://creativecommons.org/ns#"
   xmlns:rdf="http://www.w3.org/1999/02/22-rdf-syntax-ns#"
   xmlns:svg="http://www.w3.org/2000/svg"
   xmlns="http://www.w3.org/2000/svg"
   xmlns:xlink="http://www.w3.org/1999/xlink"
   xmlns:sodipodi="http://sodipodi.sourceforge.net/DTD/sodipodi-0.dtd"
   xmlns:inkscape="http://www.inkscape.org/namespaces/inkscape"
   id="Layer_1"
   viewBox="0 0 819.79549 775.77808"
   version="1.1"
   sodipodi:docname="hands on shield.svg"
   inkscape:version="0.92.4 (5da689c313, 2019-01-14)"
   width="819.79547"
   height="775.77808">
  <metadata
     id="metadata191">
    <rdf:RDF>
      <cc:Work
         rdf:about="">
        <dc:format>image/svg+xml</dc:format>
        <dc:type
           rdf:resource="http://purl.org/dc/dcmitype/StillImage" />
        <dc:title></dc:title>
      </cc:Work>
    </rdf:RDF>
  </metadata>
  <sodipodi:namedview
     pagecolor="#ffffff"
     bordercolor="#666666"
     borderopacity="1"
     objecttolerance="10"
     gridtolerance="10"
     guidetolerance="10"
     inkscape:pageopacity="0"
     inkscape:pageshadow="2"
     inkscape:window-width="1920"
     inkscape:window-height="991"
     id="namedview189"
     showgrid="false"
     showguides="false"
     inkscape:zoom="0.19179195"
     inkscape:cx="-304.51565"
     inkscape:cy="798.19833"
     inkscape:window-x="-9"
     inkscape:window-y="-9"
     inkscape:window-maximized="1"
     inkscape:current-layer="Layer_1"
     scale-x="1e-05"
     fit-margin-top="0"
     fit-margin-left="0"
     fit-margin-right="0"
     fit-margin-bottom="0" />
  <defs
     id="defs4">
    <linearGradient
       inkscape:collect="always"
       id="linearGradient1002">
      <stop
         style="stop-color:#2adb83;stop-opacity:1"
         offset="0"
         id="stop998" />
      <stop
         style="stop-color:#b3edac;stop-opacity:1"
         offset="1"
         id="stop1000" />
    </linearGradient>
    <style
       id="style2">.cls-1{letter-spacing:-.02em;}.cls-2{font-size:66px;}.cls-2,.cls-3{fill:#080444;font-family:Mont-Bold, Mont;}.cls-4{letter-spacing:-.02em;}.cls-5{letter-spacing:-.01em;}.cls-6{letter-spacing:0em;}.cls-7{letter-spacing:-.05em;}.cls-8{letter-spacing:-.04em;}.cls-9{letter-spacing:-.02em;}.cls-10,.cls-11{fill:#043b4d;}.cls-10,.cls-12{stroke-width:2.72px;}.cls-10,.cls-12,.cls-13,.cls-14{stroke:#080444;stroke-linecap:round;stroke-miterlimit:10;}.cls-15{letter-spacing:-.03em;}.cls-16{letter-spacing:-.02em;}.cls-17{fill:#fff;}.cls-18{fill:#3ee680;}.cls-19,.cls-12,.cls-14{fill:#18725f;}.cls-20{fill:#6cf1c7;}.cls-21{fill:#39e180;}.cls-22{letter-spacing:-.02em;}.cls-23{letter-spacing:-.01em;}.cls-24{letter-spacing:-.03em;}.cls-25{letter-spacing:-.02em;}.cls-26{letter-spacing:-.02em;}.cls-27{letter-spacing:-.01em;}.cls-28{letter-spacing:0em;}.cls-29{letter-spacing:-.02em;}.cls-30{letter-spacing:-.01em;}.cls-31{letter-spacing:-.02em;}.cls-32{letter-spacing:-.02em;}.cls-33{letter-spacing:-.02em;}.cls-13{fill:none;stroke-width:2.38px;}.cls-34{letter-spacing:-.01em;}.cls-35{letter-spacing:-.01em;}.cls-36{letter-spacing:-.01em;}.cls-3{font-size:46.77px;}.cls-14{stroke-width:3.05px;}.cls-37{letter-spacing:-.02em;}.cls-38{letter-spacing:-.02em;}.cls-39{letter-spacing:-.02em;}.cls-40{letter-spacing:-.02em;}.cls-41{letter-spacing:-.02em;}.cls-42{letter-spacing:-.02em;}.cls-43{letter-spacing:-.02em;}.cls-44{letter-spacing:-.02em;}.cls-45{letter-spacing:-.02em;}.cls-46{letter-spacing:0em;}.cls-47{letter-spacing:-.02em;}.cls-48{letter-spacing:-.02em;}.cls-49{letter-spacing:-.03em;}.cls-50{letter-spacing:-.03em;}.cls-51{letter-spacing:-.01em;}.cls-52{letter-spacing:0em;}</style>
    <linearGradient
       inkscape:collect="always"
       xlink:href="#linearGradient1002"
       id="linearGradient1004"
       x1="604.24475"
       y1="927.17365"
       x2="608.69794"
       y2="366.10406"
       gradientUnits="userSpaceOnUse" />
    <style
       id="style1006">.cls-1{letter-spacing:-.02em;}.cls-2{letter-spacing:-.02em;}.cls-3,.cls-4,.cls-5,.cls-6{fill:none;}.cls-7{letter-spacing:-.02em;}.cls-8{letter-spacing:-.02em;}.cls-9{letter-spacing:-.02em;}.cls-10{letter-spacing:0em;}.cls-11{fill:url(#linear-gradient);}.cls-12{letter-spacing:-.04em;}.cls-13{letter-spacing:-.02em;}.cls-14{letter-spacing:-.02em;}.cls-15{clip-path:url(#clippath);}.cls-16{letter-spacing:-.02em;}.cls-17{letter-spacing:-.02em;}.cls-18{letter-spacing:-.02em;}.cls-19{letter-spacing:-.02em;}.cls-20{fill:#022341;}.cls-21{fill:#fff;}.cls-22{fill:#31dd74;}.cls-23{fill:#3ee680;}.cls-24,.cls-25,.cls-26{fill:#080444;}.cls-27{fill:#18725f;}.cls-28{fill:#6cf1c7;}.cls-29{fill:#56db9b;}.cls-30{letter-spacing:-.02em;}.cls-31{letter-spacing:-.02em;}.cls-4{stroke-width:2.2px;}.cls-4,.cls-5,.cls-6{stroke-linecap:round;stroke-miterlimit:10;}.cls-4,.cls-6{stroke:#043b4d;}.cls-32{letter-spacing:-.01em;}.cls-33{letter-spacing:.01em;}.cls-25{font-size:76px;}.cls-25,.cls-26{font-family:Mont-Bold, Mont;}.cls-5{stroke:#022341;stroke-width:4.63px;}.cls-34{letter-spacing:-.05em;}.cls-35{clip-path:url(#clippath-1);}.cls-36{clip-path:url(#clippath-3);}.cls-37{clip-path:url(#clippath-2);}.cls-38{fill:#6f6fd2;mix-blend-mode:multiply;opacity:.42;}.cls-39{letter-spacing:-.04em;}.cls-6{stroke-width:2.83px;}.cls-40{letter-spacing:-.01em;}.cls-41{letter-spacing:-.04em;}.cls-42{letter-spacing:-.01em;}.cls-43{letter-spacing:-.01em;}.cls-44{letter-spacing:-.02em;}.cls-45{letter-spacing:-.01em;}.cls-46{letter-spacing:-.03em;}.cls-47{fill:url(#linear-gradient-2);}.cls-48{letter-spacing:0em;}.cls-49{letter-spacing:-.09em;}.cls-50{letter-spacing:-.01em;}.cls-51{letter-spacing:-.02em;}.cls-26{font-size:46.77px;}.cls-52{letter-spacing:.01em;}.cls-53{letter-spacing:-.02em;}.cls-54{isolation:isolate;}.cls-55{letter-spacing:-.02em;}.cls-56{letter-spacing:-.02em;}.cls-57{letter-spacing:-.03em;}.cls-58{letter-spacing:0em;}.cls-59{letter-spacing:0em;}</style>
    <linearGradient
       gradientUnits="userSpaceOnUse"
       y2="893.01001"
       x2="355.26999"
       y1="893.01001"
       x1="97.800003"
       id="linear-gradient">
      <stop
         id="stop1008"
         stop-color="#18725f"
         offset="0" />
      <stop
         id="stop1010"
         stop-color="#043b4d"
         offset="1" />
    </linearGradient>
    <clipPath
       id="clippath">
      <polygon
         id="polygon1013"
         points="173.32,996.4 355.27,928.61 310.68,783.22 106.42,781.44 "
         class="cls-3"
         style="fill:none" />
    </clipPath>
    <clipPath
       id="clippath-1">
      <rect
         id="rect1016"
         height="224.96001"
         width="258.85001"
         y="776.44"
         x="101.42"
         class="cls-3"
         style="fill:none" />
    </clipPath>
    <linearGradient
       xlink:href="#linear-gradient"
       y2="987.47998"
       x2="555.14001"
       y1="987.47998"
       x1="184.91"
       id="linear-gradient-2" />
    <clipPath
       id="clippath-2">
      <polygon
         id="polygon1020"
         points="1039.06,1074.64 869.17,1011.34 910.81,875.6 1101.52,873.93 "
         class="cls-3"
         style="fill:none" />
    </clipPath>
    <clipPath
       id="clippath-3">
      <rect
         id="rect1023"
         height="210.7"
         width="242.35001"
         y="868.92999"
         x="864.16998"
         class="cls-3"
         style="fill:none" />
    </clipPath>
  </defs>
  <g
     id="g1397"
     transform="translate(-194.02725,-270.77078)">
    <path
       style="fill:url(#linearGradient1004);fill-opacity:1"
       inkscape:connector-curvature="0"
       id="path8"
       d="m 873.61474,426.46363 c 0,0 -46.19,-27.55 -121.51,-47.05 -0.02,0 -0.04,0 -0.06,-0.01 -1.76,-0.46 -3.53,-0.91 -5.32,-1.35 -0.08,-0.02 -0.16,-0.04 -0.24,-0.06 -1.74,-0.43 -3.5,-0.86 -5.27,-1.29 -0.11,-0.03 -0.23,-0.05 -0.34,-0.08 -1.75,-0.42 -3.51,-0.83 -5.29,-1.24 -0.14,-0.03 -0.27,-0.06 -0.41,-0.09 -1.76,-0.4 -3.54,-0.8 -5.33,-1.19 -0.15,-0.03 -0.3,-0.06 -0.44,-0.1 -1.78,-0.39 -3.57,-0.77 -5.37,-1.15 -0.18,-0.04 -0.37,-0.07 -0.55,-0.11 -1.77,-0.37 -3.56,-0.73 -5.36,-1.09 -0.23,-0.05 -0.46,-0.09 -0.69,-0.14 -1.75,-0.34 -3.51,-0.68 -5.29,-1.02 -0.31,-0.06 -0.62,-0.11 -0.93,-0.17 -1.69,-0.31 -3.4,-0.63 -5.11,-0.93 -0.44,-0.08 -0.88,-0.15 -1.32,-0.23 -1.58,-0.28 -3.17,-0.55 -4.77,-0.82 -0.64,-0.11 -1.28,-0.21 -1.92,-0.31 -1.41,-0.23 -2.82,-0.46 -4.24,-0.68 -0.91,-0.14 -1.84,-0.28 -2.76,-0.42 -1.14,-0.17 -2.28,-0.34 -3.43,-0.51 -1.32,-0.19 -2.66,-0.38 -3.99,-0.56 -0.74,-0.1 -1.48,-0.21 -2.23,-0.31 -1.9,-0.25 -3.81,-0.5 -5.73,-0.74 -0.17,-0.02 -0.35,-0.04 -0.52,-0.07 -22.48,-2.77 -46.45,-4.42 -71.69,-4.42 -158.07,0 -268.7,66.01 -268.7,66.01 0,0 -96.14,333.49 269.37,500.74 l 0.07,0.1 c 365.51,-167.25 269.37,-500.74 269.37,-500.74 z m -269.39,378.76 -0.04,-0.06 c -208.2,-95.27 -153.44,-285.23 -153.44,-285.23 0,0 63.02,-37.6 153.06,-37.6 14.37,0 28.03,0.94 40.83,2.52 0.1,0.01 0.2,0.03 0.3,0.04 1.09,0.14 2.18,0.27 3.26,0.42 0.42,0.06 0.83,0.11 1.25,0.17 0.77,0.11 1.53,0.21 2.29,0.32 0.65,0.09 1.29,0.19 1.94,0.29 0.53,0.08 1.06,0.16 1.58,0.24 0.81,0.13 1.62,0.26 2.42,0.39 0.36,0.06 0.72,0.12 1.07,0.17 0.91,0.15 1.82,0.31 2.72,0.46 0.25,0.04 0.51,0.09 0.76,0.13 0.98,0.17 1.94,0.35 2.91,0.53 0.18,0.03 0.36,0.07 0.53,0.1 1.01,0.19 2.01,0.38 3,0.58 0.14,0.03 0.27,0.05 0.41,0.08 1.02,0.2 2.03,0.41 3.04,0.62 0.11,0.02 0.22,0.04 0.32,0.07 1.02,0.21 2.04,0.43 3.05,0.65 0.09,0.02 0.18,0.04 0.27,0.06 1.02,0.22 2.03,0.45 3.03,0.68 0.08,0.02 0.16,0.04 0.24,0.05 1.01,0.23 2.02,0.47 3.02,0.71 0.06,0.01 0.12,0.03 0.18,0.04 1.02,0.24 2.02,0.49 3.02,0.74 0.04,0 0.08,0.02 0.12,0.03 1.02,0.25 2.03,0.51 3.03,0.77 0.02,0 0.03,0 0.05,0.01 42.9,11.11 69.21,26.8 69.21,26.8 0,0 54.76,189.96 -153.44,285.23 z"
       class="cls-20" />
    <path
       style="fill:#39e180"
       inkscape:connector-curvature="0"
       id="path150"
       d="m 683.79474,629.23363 c -11.64,-5.57 13.2,-55.28 13.2,-55.28 0,0 -34.26,63.55 -44.26,57.69 -10,-5.86 20.12,-66.27 20.12,-66.27 0,0 -40.58,74.09 -51.66,66.9 -11.08,-7.19 27.83,-84.61 27.83,-84.61 0,0 -27.06,65.48 -45.05,54.97 -6.26,-3.66 21.64,-67.62 35.51,-96.06 1.96,-4.02 -0.1,-10.06 -4.57,-9.98 -29.9,0.55 -38.41,-8.52 -29.51,-14.87 11.68,-8.34 65.81,-14.39 65.81,-14.39 16.51,1.58 38.91,-67.97 28.99,-196.07 -0.48,-6.14 65.72,45.84 65.72,114.03 0,68.19 -32.95,161.13 -34.7,165.98 -0.05,0.14 -0.1,0.26 -0.16,0.39 -1.91,4.42 -35.98,82.98 -47.29,77.56 z"
       class="cls-21" />
    <g
       transform="translate(29.494742,-272.82637)"
       id="g160">
      <path
         style="letter-spacing:-0.02em;fill:#18725f"
         inkscape:connector-curvature="0"
         id="path152"
         d="m 552.35,850.64 c -4.59,9.59 -35.62,-5.13 -50.68,-12.15 -0.87,-0.4 -1.22,0.95 -0.16,1.22 15.48,3.95 58.19,33.54 53.24,41.98 -5.1,8.69 -39.78,-7.23 -60.11,-18.96 -2.53,-1.46 -1.48,-0.92 1.25,0.09 17.38,6.37 65.84,39.39 59.53,49.11 -5.61,8.64 -59.4,-24.05 -79.52,-29.83 -0.88,-0.25 7.83,2.19 8.63,2.64 26.48,14.83 42.79,41.7 36.92,49.77 -4.29,5.88 -49.71,-31.54 -87.7,-45.52 -5.48,-2.02 -11.45,1.46 -12.4,7.23 -2.32,14.14 -5.53,37.03 -16.51,32.81 -12.83,-4.93 -14.28,-60.74 -14.38,-65.49 0,-0.2 -0.11,-0.39 -0.28,-0.5 -4.51,-2.91 -46.43,-13.39 -123.75,-23.48 -39.29,-5.13 -95.84,-9.37 -101.89,-23.01 -1.03,-2.32 104.37,-56.6 212.77,-44.03 70.08,8.13 115.68,33.42 115.68,33.42 0,0 64.93,33.07 59.36,44.71 z"
         class="cls-19" />
      <path
         style="letter-spacing:-0.02em;fill:#18725f;stroke:#080444;stroke-width:3.04999995px;stroke-linecap:round;stroke-miterlimit:10"
         inkscape:connector-curvature="0"
         id="path154"
         d="m 519.69,848.94 c 0,0 -10.5,-7.03 -21.57,-12.29 -9.66,-4.59 -21.53,-9.58 -21.53,-9.58"
         class="cls-14" />
      <path
         style="letter-spacing:-0.02em;fill:#18725f;stroke:#080444;stroke-width:3.04999995px;stroke-linecap:round;stroke-miterlimit:10"
         inkscape:connector-curvature="0"
         id="path156"
         d="m 494.66,891.74 c 0,0 -10.5,-7.03 -21.57,-12.29 -9.66,-4.59 -14.26,-6.61 -14.26,-6.61"
         class="cls-14" />
      <path
         style="letter-spacing:-0.02em;fill:#18725f;stroke:#080444;stroke-width:3.04999995px;stroke-linecap:round;stroke-miterlimit:10"
         inkscape:connector-curvature="0"
         id="path158"
         d="m 522.96,879.49 c 0,0 -11.85,-7.3 -24.42,-14.11 -9.31,-5.04 -34.03,-15.26 -34.03,-15.26"
         class="cls-14" />
    </g>
    <path
       style="letter-spacing:-0.02em;fill:none;stroke:#080444;stroke-width:2.38000011px;stroke-linecap:round;stroke-miterlimit:10"
       inkscape:connector-curvature="0"
       id="path162"
       d="m 683.04474,585.19363 c 0,0 -3.14,8.64 -6.15,15.72 -1.13,2.66 -2.43,5.3 -3.67,7.64"
       class="cls-13" />
    <path
       style="letter-spacing:-0.02em;fill:none;stroke:#080444;stroke-width:2.38000011px;stroke-linecap:round;stroke-miterlimit:10"
       inkscape:connector-curvature="0"
       id="path164"
       d="m 624.57474,599.01363 c 0,0 5.4,-7.67 9.21,-15.64 3.32,-6.95 6.84,-15.44 6.84,-15.44"
       class="cls-13" />
    <path
       style="letter-spacing:-0.02em;fill:none;stroke:#080444;stroke-width:2.38000011px;stroke-linecap:round;stroke-miterlimit:10"
       inkscape:connector-curvature="0"
       id="path166"
       d="m 640.59474,619.50363 c 0,0 5.55,-8.62 10.62,-17.7 3.75,-6.72 10.06,-22.9 10.06,-22.9"
       class="cls-13" />
    <g
       transform="translate(29.494742,-272.82637)"
       id="g176">
      <path
         style="fill:#043b4d"
         inkscape:connector-curvature="0"
         id="path168"
         d="m 505.57,960.3 c 9.59,4.59 -7.86,29.61 -9.74,42.75 -0.14,0.95 -2.31,-0.08 -2.04,-1.14 3.95,-15.48 33.54,-58.19 41.98,-53.24 8.69,5.1 -1.5,22.35 -3.41,35.98 -0.27,1.9 -15.14,26.66 -14.5,24.85 5.96,-16.97 31.49,-61.52 41.29,-55.15 8.64,5.61 -17.19,53.07 -22.97,73.18 -0.29,1 4.6,-16.98 5.11,-17.89 14.88,-26.34 25.32,-36.51 33.35,-30.67 6.37,4.64 -27.62,57.8 -38.04,97.23 -0.08,0.32 0.26,0.55 0.54,0.72 5.58,3.33 50.74,-6.74 45.1,7.94 -4.93,12.83 -59.87,28 -64.63,28.1 -0.2,0 -0.39,0.11 -0.5,0.28 -2.91,4.51 -40.01,64.1 -16.92,135.93 22.97,71.45 -26.68,70.4 -31.08,70.17 -0.2,-0.01 -0.64,-0.16 -0.48,-0.27 17.72,-12.13 -43.55,-88.82 -30.98,-197.22 8.13,-70.08 27.06,-108.78 27.06,-108.78 0,0 29.22,-58.34 40.86,-52.77 z"
         class="cls-11" />
      <path
         style="letter-spacing:0em;fill:#043b4d;stroke:#080444;stroke-width:2.72000003px;stroke-linecap:round;stroke-miterlimit:10"
         inkscape:connector-curvature="0"
         id="path170"
         d="m 508.12,972.88 c 0,0 -6.31,8.66 -10.82,17.68 -3.93,7.87 -8.12,17.5 -8.12,17.5"
         class="cls-10" />
      <path
         style="letter-spacing:0em;fill:#043b4d;stroke:#080444;stroke-width:2.72000003px;stroke-linecap:round;stroke-miterlimit:10"
         inkscape:connector-curvature="0"
         id="path172"
         d="m 552.5,990.38 c 0,0 -6.31,8.66 -10.82,17.68 -3.93,7.87 -8.12,17.5 -8.12,17.5"
         class="cls-10" />
      <path
         style="letter-spacing:0em;fill:#043b4d;stroke:#080444;stroke-width:2.72000003px;stroke-linecap:round;stroke-miterlimit:10"
         inkscape:connector-curvature="0"
         id="path174"
         d="m 537.29,970.31 c 0,0 -6.49,9.74 -12.45,20.02 -4.41,7.61 -11.91,25.98 -11.91,25.98"
         class="cls-10" />
    </g>
    <g
       transform="translate(29.494742,-272.82637)"
       id="g186">
      <path
         style="letter-spacing:-0.02em;fill:#18725f"
         inkscape:connector-curvature="0"
         id="path178"
         d="m 605.67,994.22 c 4.59,-9.59 29.61,7.86 42.75,9.74 0.95,0.14 -0.08,2.31 -1.14,2.04 -15.48,-3.95 -58.19,-33.54 -53.24,-41.98 5.1,-8.69 22.35,1.5 35.98,3.41 1.9,0.27 26.66,15.14 24.85,14.5 -16.97,-5.96 -61.52,-31.49 -55.15,-41.29 5.61,-8.64 53.07,17.19 73.18,22.97 1,0.29 -16.98,-4.6 -17.89,-5.11 -26.34,-14.88 -35.87,-29.54 -30.03,-37.57 4.68,-6.42 60.64,23.96 100.13,34.15 0.15,0.04 0.37,-0.01 0.47,-0.14 2.32,-3.24 -6.38,-21.66 -9.48,-33.48 -1.83,-6.98 3.4,-12.08 8.88,-9.98 12.83,4.93 30.94,27.51 42.84,50.24 13.72,26.19 48.32,85.12 120.15,62.03 78.52,-25.24 97.19,27.22 96.33,26.72 -20.49,6.82 -89.93,50.82 -198.62,38.22 -70.08,-8.13 -123.21,-45.98 -123.21,-45.98 0,0 -62.38,-36.87 -56.81,-48.51 z"
         class="cls-19" />
      <path
         style="letter-spacing:-0.04em;fill:#18725f;stroke:#080444;stroke-width:2.72000003px;stroke-linecap:round;stroke-miterlimit:10"
         inkscape:connector-curvature="0"
         id="path180"
         d="m 621.5,992.75 c 0,0 8.66,6.31 17.68,10.82 7.87,3.93 17.5,8.12 17.5,8.12"
         class="cls-12" />
      <path
         style="letter-spacing:-0.04em;fill:#18725f;stroke:#080444;stroke-width:2.72000003px;stroke-linecap:round;stroke-miterlimit:10"
         inkscape:connector-curvature="0"
         id="path182"
         d="m 639,948.38 c 0,0 8.66,6.31 17.68,10.82 7.87,3.93 17.5,8.12 17.5,8.12"
         class="cls-12" />
      <path
         style="letter-spacing:-0.04em;fill:#18725f;stroke:#080444;stroke-width:2.72000003px;stroke-linecap:round;stroke-miterlimit:10"
         inkscape:connector-curvature="0"
         id="path184"
         d="m 617.31,962.5 c 0,0 9.74,6.49 20.02,12.45 7.61,4.41 25.98,11.91 25.98,11.91"
         class="cls-12" />
    </g>
  </g>
</svg>
