<?xml version="1.0" encoding="UTF-8" standalone="no"?>
<svg
   xmlns:dc="http://purl.org/dc/elements/1.1/"
   xmlns:cc="http://creativecommons.org/ns#"
   xmlns:rdf="http://www.w3.org/1999/02/22-rdf-syntax-ns#"
   xmlns:svg="http://www.w3.org/2000/svg"
   xmlns="http://www.w3.org/2000/svg"
   xmlns:xlink="http://www.w3.org/1999/xlink"
   xmlns:sodipodi="http://sodipodi.sourceforge.net/DTD/sodipodi-0.dtd"
   xmlns:inkscape="http://www.inkscape.org/namespaces/inkscape"
   id="Layer_1"
   viewBox="0 0 809.51399 208.6514"
   version="1.1"
   sodipodi:docname="zAcademy-logo.svg"
   inkscape:version="0.92.4 (5da689c313, 2019-01-14)"
   width="809.51398"
   height="208.6514">
  <metadata
     id="metadata179">
    <rdf:RDF>
      <cc:Work
         rdf:about="">
        <dc:format>image/svg+xml</dc:format>
        <dc:type
           rdf:resource="http://purl.org/dc/dcmitype/StillImage" />
        <dc:title></dc:title>
      </cc:Work>
    </rdf:RDF>
  </metadata>
  <sodipodi:namedview
     pagecolor="#ffffff"
     bordercolor="#666666"
     borderopacity="1"
     objecttolerance="10"
     gridtolerance="10"
     guidetolerance="10"
     inkscape:pageopacity="0"
     inkscape:pageshadow="2"
     inkscape:window-width="1920"
     inkscape:window-height="991"
     id="namedview177"
     showgrid="false"
     inkscape:zoom="0.38358391"
     inkscape:cx="434.92219"
     inkscape:cy="44.539064"
     inkscape:window-x="-9"
     inkscape:window-y="-9"
     inkscape:window-maximized="1"
     inkscape:current-layer="Layer_1"
     fit-margin-top="0"
     fit-margin-left="0"
     fit-margin-right="0"
     fit-margin-bottom="0" />
  <defs
     id="defs10">
    <style
       id="style2">.cls-1{fill:url(#linear-gradient);}.cls-2{fill:#022341;}.cls-3,.cls-4{fill:#fff;}.cls-5{fill:#31dd74;}.cls-6{fill:#3ee680;}.cls-7{fill:#080444;}.cls-8{fill:#39e180;}.cls-9{fill:#6cf1c7;}.cls-9,.cls-4{stroke:#022341;stroke-linecap:round;stroke-miterlimit:10;stroke-width:4.63px;}.cls-10{fill:url(#linear-gradient-2);}</style>
    <linearGradient
       id="linear-gradient"
       x1="404.14001"
       y1="898.65002"
       x2="905.32001"
       y2="898.65002"
       gradientUnits="userSpaceOnUse">
      <stop
         offset="0"
         stop-color="#18725f"
         id="stop4" />
      <stop
         offset="1"
         stop-color="#043b4d"
         id="stop6" />
    </linearGradient>
    <linearGradient
       id="linear-gradient-2"
       x1="223.14999"
       y1="1038.95"
       x2="836.19"
       y2="1038.95"
       xlink:href="#linear-gradient" />
  </defs>
  <g
     id="g1040"
     transform="matrix(2.209822,0,0,2.209822,-706.31707,-1244.7407)">
    <path
       style="fill:#3ee680"
       inkscape:connector-curvature="0"
       id="path16"
       d="m 410.19623,574.06644 c 0,0 -19.33,-10.66 -40.21,-10.66 l -29.33,34.66 c 0,0 6.63,4.28 12.63,4.28 10.53,0 21.14,-16.72 21.14,-16.72 l 33.47,28.29 c 0,0 4.07,-11.03 4.07,-21.62 0,-11.18 -1.78,-18.22 -1.78,-18.22 z"
       class="cls-6" />
    <path
       style="fill:#3ee680"
       inkscape:connector-curvature="0"
       id="path18"
       d="m 373.52623,611.31644 c -0.7,-0.6 -0.77,-1.65 -0.18,-2.35 0.59,-0.7 1.65,-0.77 2.35,-0.18 l 24.41,21 c 2.57,-3.79 4.82,-7.97 6.57,-12.56 l -31.88,-27.25 c 0,0 -1.85,2.4 -5.96,7.18 -6.11,7.11 -16,13.66 -33.1,1.56 l 29.99,-35.44 c -26.22,0 -44.77,11 -44.77,11 0,0 -1.33,5.22 -1.33,18.88 0,45.99 46.21,64.54 46.21,64.54 3,-1.36 6.56,-3.19 10.35,-5.55 l -21.66,-18.63 c -0.7,-0.6 -0.78,-1.65 -0.18,-2.35 0.6,-0.7 1.65,-0.77 2.35,-0.18 l 22.4,19.27 c 3,-2.02 6.09,-4.36 9.1,-7.03 l -24.33,-20.94 c -0.7,-0.6 -0.77,-1.65 -0.18,-2.35 0.6,-0.7 1.65,-0.77 2.35,-0.18 l 24.62,21.18 c 2.64,-2.55 5.18,-5.36 7.51,-8.46 l -24.64,-21.2 z"
       class="cls-6" />
    <g
       id="text1010"
       style="font-style:normal;font-variant:normal;font-weight:600;font-stretch:normal;font-size:45.01255035px;line-height:35.16605377px;font-family:Poppins;-inkscape-font-specification:'Poppins Semi-Bold';font-variant-ligatures:normal;font-variant-caps:normal;font-variant-numeric:normal;font-feature-settings:normal;text-align:start;letter-spacing:0px;word-spacing:0px;writing-mode:lr-tb;text-anchor:start;fill:#080444;fill-opacity:1;stroke:none;stroke-width:1.4066422"
       aria-label="zAcademy">
      <path
         id="path1012"
         style="fill:#080444;fill-opacity:1;stroke-width:1.4066422"
         d="m 450.79414,621.09358 h 11.1181 v 5.17644 h -18.2751 v -5.08642 l 10.89304,-14.67409 h -10.84802 v -5.17644 h 18.09504 v 5.08641 z"
         inkscape:connector-curvature="0" />
      <path
         id="path1014"
         style="fill:#080444;fill-opacity:1;stroke-width:1.4066422"
         d="m 486.01294,620.28335 h -12.51349 l -2.07057,5.98667 h -6.61685 l 11.29815,-31.46377 h 7.33705 l 11.29815,31.46377 h -6.66186 z m -1.71047,-5.04141 -4.54627,-13.14366 -4.54627,13.14366 z"
         inkscape:connector-curvature="0" />
      <path
         id="path1016"
         style="fill:#080444;fill-opacity:1;stroke-width:1.4066422"
         d="m 497.39197,613.80154 q 0,-3.87108 1.57544,-6.75188 1.57544,-2.92582 4.36622,-4.50125 2.79078,-1.62046 6.39178,-1.62046 4.63629,0 7.65214,2.34066 3.06085,2.29564 4.09614,6.4818 h -6.7969 q -0.54015,-1.62045 -1.84551,-2.5207 -1.26035,-0.94526 -3.15088,-0.94526 -2.70075,0 -4.27619,1.98055 -1.57544,1.93554 -1.57544,5.53654 0,3.55599 1.57544,5.53655 1.57544,1.93554 4.27619,1.93554 3.82607,0 4.99639,-3.42096 h 6.7969 q -1.03529,4.05113 -4.09614,6.4368 -3.06086,2.38566 -7.65214,2.38566 -3.601,0 -6.39178,-1.57544 -2.79078,-1.62045 -4.36622,-4.50125 -1.57544,-2.92582 -1.57544,-6.7969 z"
         inkscape:connector-curvature="0" />
      <path
         id="path1018"
         style="fill:#080444;fill-opacity:1;stroke-width:1.4066422"
         d="m 524.46983,613.71152 q 0,-3.78106 1.48542,-6.70687 1.53043,-2.92582 4.09614,-4.50126 2.61073,-1.57544 5.80662,-1.57544 2.79078,0 4.86136,1.12532 2.11559,1.12531 3.37594,2.83579 v -3.55599 h 6.34677 v 24.93695 h -6.34677 V 622.624 q -1.21534,1.75549 -3.37594,2.92582 -2.11559,1.12531 -4.90637,1.12531 -3.15088,0 -5.76161,-1.62045 -2.56571,-1.62045 -4.09614,-4.54627 -1.48542,-2.97083 -1.48542,-6.79689 z m 19.62548,0.09 q 0,-2.29564 -0.90025,-3.91609 -0.90026,-1.66546 -2.43068,-2.5207 -1.53043,-0.90025 -3.28592,-0.90025 -1.75549,0 -3.2409,0.85524 -1.48542,0.85523 -2.43068,2.5207 -0.90025,1.62045 -0.90025,3.87108 0,2.25063 0.90025,3.9611 0.94526,1.66547 2.43068,2.56572 1.53043,0.90025 3.2409,0.90025 1.75549,0 3.28592,-0.85524 1.53042,-0.90025 2.43068,-2.5207 0.90025,-1.66547 0.90025,-3.96111 z"
         inkscape:connector-curvature="0" />
      <path
         id="path1020"
         style="fill:#080444;fill-opacity:1;stroke-width:1.4066422"
         d="m 554.97639,613.71152 q 0,-3.78106 1.48541,-6.70687 1.53043,-2.92582 4.14116,-4.50126 2.61073,-1.57544 5.80662,-1.57544 2.43067,0 4.63629,1.0803 2.20561,1.03529 3.51098,2.79078 v -11.8383 h 6.39178 v 33.30929 h -6.39178 v -3.69103 q -1.17033,1.84551 -3.28592,2.97083 -2.11559,1.12531 -4.90637,1.12531 -3.15087,0 -5.7616,-1.62045 -2.61073,-1.62045 -4.14116,-4.54627 -1.48541,-2.97083 -1.48541,-6.79689 z m 19.62547,0.09 q 0,-2.29564 -0.90025,-3.91609 -0.90025,-1.66546 -2.43068,-2.5207 -1.53042,-0.90025 -3.28591,-0.90025 -1.75549,0 -3.24091,0.85524 -1.48541,0.85523 -2.43068,2.5207 -0.90025,1.62045 -0.90025,3.87108 0,2.25063 0.90025,3.9611 0.94527,1.66547 2.43068,2.56572 1.53043,0.90025 3.24091,0.90025 1.75549,0 3.28591,-0.85524 1.53043,-0.90025 2.43068,-2.5207 0.90025,-1.66547 0.90025,-3.96111 z"
         inkscape:connector-curvature="0" />
      <path
         id="path1022"
         style="fill:#080444;fill-opacity:1;stroke-width:1.4066422"
         d="m 610.28486,613.26139 q 0,1.35038 -0.18005,2.43068 h -18.23009 q 0.22507,2.70075 1.89053,4.23118 1.66547,1.53043 4.09614,1.53043 3.51098,0 4.9964,-3.01584 h 6.79689 q -1.0803,3.601 -4.14115,5.94165 -3.06086,2.29564 -7.5171,2.29564 -3.601,0 -6.48181,-1.57544 -2.83579,-1.62045 -4.45624,-4.54626 -1.57544,-2.92582 -1.57544,-6.75189 0,-3.87108 1.57544,-6.79689 1.57544,-2.92582 4.41123,-4.50126 2.83579,-1.57544 6.52682,-1.57544 3.55599,0 6.34677,1.53043 2.83579,1.53043 4.36622,4.36622 1.57544,2.79078 1.57544,6.43679 z m -6.52682,-1.8005 q -0.045,-2.43068 -1.75549,-3.87108 -1.71048,-1.48541 -4.18617,-1.48541 -2.34065,0 -3.9611,1.4404 -1.57544,1.39539 -1.93554,3.91609 z"
         inkscape:connector-curvature="0" />
      <path
         id="path1024"
         style="fill:#080444;fill-opacity:1;stroke-width:1.4066422"
         d="m 645.8532,600.97297 q 4.59128,0 7.38206,2.83579 2.83579,2.79078 2.83579,7.83218 v 14.62908 h -6.30176 v -13.77384 q 0,-2.92582 -1.48541,-4.45624 -1.48541,-1.57544 -4.05113,-1.57544 -2.56571,0 -4.09614,1.57544 -1.48542,1.53042 -1.48542,4.45624 v 13.77384 h -6.30175 v -13.77384 q 0,-2.92582 -1.48542,-4.45624 -1.48541,-1.57544 -4.05113,-1.57544 -2.61072,0 -4.14115,1.57544 -1.48542,1.53042 -1.48542,4.45624 v 13.77384 h -6.30175 v -24.93695 h 6.30175 v 3.01584 q 1.21534,-1.57544 3.10587,-2.47569 1.93554,-0.90025 4.23118,-0.90025 2.92582,0 5.22146,1.26035 2.29564,1.21534 3.55599,3.51098 1.21534,-2.16061 3.51098,-3.46597 2.34065,-1.30536 5.0414,-1.30536 z"
         inkscape:connector-curvature="0" />
      <path
         id="path1026"
         style="fill:#080444;fill-opacity:1;stroke-width:1.4066422"
         d="m 685.95165,601.33307 -15.4393,36.73024 h -6.70687 l 5.4015,-12.42347 -9.99278,-24.30677 h 7.06697 l 6.43679,17.41985 6.52682,-17.41985 z"
         inkscape:connector-curvature="0" />
    </g>
  </g>
</svg>
