<?xml version="1.0" encoding="UTF-8" standalone="no"?>
<svg
   xmlns:dc="http://purl.org/dc/elements/1.1/"
   xmlns:cc="http://creativecommons.org/ns#"
   xmlns:rdf="http://www.w3.org/1999/02/22-rdf-syntax-ns#"
   xmlns:svg="http://www.w3.org/2000/svg"
   xmlns="http://www.w3.org/2000/svg"
   xmlns:xlink="http://www.w3.org/1999/xlink"
   xmlns:sodipodi="http://sodipodi.sourceforge.net/DTD/sodipodi-0.dtd"
   xmlns:inkscape="http://www.inkscape.org/namespaces/inkscape"
   id="Layer_1"
   viewBox="0 0 809.10591 208.65138"
   version="1.1"
   sodipodi:docname="logo.svg"
   inkscape:version="0.92.4 (5da689c313, 2019-01-14)"
   width="809.1059"
   height="208.65138">
  <metadata
     id="metadata179">
    <rdf:RDF>
      <cc:Work
         rdf:about="">
        <dc:format>image/svg+xml</dc:format>
        <dc:type
           rdf:resource="http://purl.org/dc/dcmitype/StillImage" />
        <dc:title></dc:title>
      </cc:Work>
    </rdf:RDF>
  </metadata>
  <sodipodi:namedview
     pagecolor="#ffffff"
     bordercolor="#666666"
     borderopacity="1"
     objecttolerance="10"
     gridtolerance="10"
     guidetolerance="10"
     inkscape:pageopacity="0"
     inkscape:pageshadow="2"
     inkscape:window-width="1920"
     inkscape:window-height="991"
     id="namedview177"
     showgrid="false"
     inkscape:zoom="0.76716779"
     inkscape:cx="295.17545"
     inkscape:cy="135.92598"
     inkscape:window-x="-9"
     inkscape:window-y="-9"
     inkscape:window-maximized="1"
     inkscape:current-layer="Layer_1"
     fit-margin-top="0"
     fit-margin-left="0"
     fit-margin-right="0"
     fit-margin-bottom="0" />
  <defs
     id="defs10">
    <style
       id="style2">.cls-1{fill:url(#linear-gradient);}.cls-2{fill:#022341;}.cls-3,.cls-4{fill:#fff;}.cls-5{fill:#31dd74;}.cls-6{fill:#3ee680;}.cls-7{fill:#080444;}.cls-8{fill:#39e180;}.cls-9{fill:#6cf1c7;}.cls-9,.cls-4{stroke:#022341;stroke-linecap:round;stroke-miterlimit:10;stroke-width:4.63px;}.cls-10{fill:url(#linear-gradient-2);}</style>
    <linearGradient
       id="linear-gradient"
       x1="404.14001"
       y1="898.65002"
       x2="905.32001"
       y2="898.65002"
       gradientUnits="userSpaceOnUse">
      <stop
         offset="0"
         stop-color="#18725f"
         id="stop4" />
      <stop
         offset="1"
         stop-color="#043b4d"
         id="stop6" />
    </linearGradient>
    <linearGradient
       id="linear-gradient-2"
       x1="223.14999"
       y1="1038.95"
       x2="836.19"
       y2="1038.95"
       xlink:href="#linear-gradient" />
  </defs>
  <path
     class="cls-6"
     d="m 200.14358,23.84398 c 0,0 -42.71586,-23.55670314 -88.85694,-23.55670314 L 46.472556,76.879708 c 0,0 14.65112,9.458038 27.910052,9.458038 23.269426,0 46.715642,-36.948224 46.715642,-36.948224 l 73.96274,62.515868 c 0,0 8.99398,-24.37434 8.99398,-47.776355 0,-24.70581 -3.93348,-40.262957 -3.93348,-40.262957 z"
     id="path16"
     inkscape:connector-curvature="0"
     style="fill:#3ee680;stroke-width:2.20982194" />
  <path
     class="cls-6"
     d="m 119.10941,106.15985 c -1.54687,-1.3259 -1.70156,-3.64621 -0.39777,-5.19308 1.3038,-1.546878 3.64621,-1.701566 5.19308,-0.39777 l 53.94176,46.40626 c 5.67924,-8.37522 10.65134,-17.61228 14.51853,-27.75536 L 121.91588,59.002248 c 0,0 -4.08817,5.303572 -13.17053,15.866522 -13.502022,15.711834 -35.357162,30.18617 -73.145118,3.447322 L 101.8728,0 C 43.931261,0 2.9390633,24.308042 2.9390633,24.308042 2.9390633,24.308042 0,35.843313 0,66.029482 0,167.65919 102.11588,208.65139 102.11588,208.65139 c 6.62947,-3.00536 14.49643,-7.04933 22.87166,-12.26451 L 77.122788,155.2179 c -1.546876,-1.3259 -1.723662,-3.64621 -0.397768,-5.19309 1.325893,-1.54687 3.646206,-1.70156 5.193081,-0.39776 l 49.500019,42.58327 c 6.62947,-4.46384 13.45782,-9.63483 20.10938,-15.53505 L 97.762525,130.4016 c -1.546875,-1.3259 -1.701563,-3.64621 -0.397768,-5.19309 1.325893,-1.54687 3.646213,-1.70156 5.193083,-0.39776 l 54.40582,46.80403 c 5.83393,-5.63505 11.44688,-11.84465 16.59576,-18.6951 l -54.45001,-46.84822 z"
     id="path18"
     inkscape:connector-curvature="0"
     style="fill:#3ee680;stroke-width:2.20982194" />
  <g
     aria-label="yAcademy"
     style="font-style:normal;font-variant:normal;font-weight:600;font-stretch:normal;font-size:100.90933228px;line-height:78.83544159px;font-family:Poppins;-inkscape-font-specification:'Poppins, Semi-Bold';font-variant-ligatures:normal;font-variant-caps:normal;font-variant-numeric:normal;font-feature-settings:normal;text-align:start;letter-spacing:0px;word-spacing:0px;writing-mode:lr-tb;text-anchor:start;fill:#080444;fill-opacity:1;stroke:none;stroke-width:3.15341783"
     id="text848">
    <path
       d="m 310.0777,82.115334 -34.6119,82.342016 h -15.03549 l 12.10912,-27.85098 -22.40187,-54.491036 h 15.84276 l 14.43004,39.051916 14.63185,-39.051916 z"
       style="font-style:normal;font-variant:normal;font-weight:600;font-stretch:normal;font-size:100.90933228px;font-family:Poppins;-inkscape-font-specification:'Poppins, Semi-Bold';font-variant-ligatures:normal;font-variant-caps:normal;font-variant-numeric:normal;font-feature-settings:normal;text-align:start;writing-mode:lr-tb;text-anchor:start;fill:#080444;fill-opacity:1;stroke-width:3.15341783"
       id="path833"
       inkscape:connector-curvature="0" />
    <path
       d="m 360.8824,124.59816 h -28.0528 l -4.64183,13.42094 H 313.3541 l 25.32824,-70.535619 h 16.44822 L 380.45881,138.0191 H 365.52422 Z M 357.04784,113.29632 346.856,83.830793 336.66416,113.29632 Z"
       style="font-style:normal;font-variant:normal;font-weight:600;font-stretch:normal;font-size:100.90933228px;font-family:Poppins;-inkscape-font-specification:'Poppins, Semi-Bold';font-variant-ligatures:normal;font-variant-caps:normal;font-variant-numeric:normal;font-feature-settings:normal;text-align:start;writing-mode:lr-tb;text-anchor:start;fill:#080444;fill-opacity:1;stroke-width:3.15341783"
       id="path835"
       inkscape:connector-curvature="0" />
    <path
       d="m 386.39196,110.06722 q 0,-8.6782 3.53183,-15.136401 3.53182,-6.559106 9.7882,-10.090933 6.25638,-3.632736 14.32913,-3.632736 10.39366,0 17.15458,5.247285 6.86184,5.146376 9.18275,14.530945 h -15.23731 q -1.21091,-3.632737 -4.13728,-5.650924 -2.82546,-2.119096 -7.06365,-2.119096 -6.05456,0 -9.58639,4.440011 -3.53183,4.339099 -3.53183,12.411849 0,7.97184 3.53183,12.41185 3.53183,4.3391 9.58639,4.3391 8.57729,0 11.20093,-7.66911 h 15.23731 q -2.32091,9.08184 -9.18275,14.43003 -6.86183,5.3482 -17.15458,5.3482 -8.07275,0 -14.32913,-3.53183 -6.25638,-3.63273 -9.7882,-10.09093 -3.53183,-6.55911 -3.53183,-15.23731 z"
       style="font-style:normal;font-variant:normal;font-weight:600;font-stretch:normal;font-size:100.90933228px;font-family:Poppins;-inkscape-font-specification:'Poppins, Semi-Bold';font-variant-ligatures:normal;font-variant-caps:normal;font-variant-numeric:normal;font-feature-settings:normal;text-align:start;writing-mode:lr-tb;text-anchor:start;fill:#080444;fill-opacity:1;stroke-width:3.15341783"
       id="path837"
       inkscape:connector-curvature="0" />
    <path
       d="m 447.09524,109.8654 q 0,-8.47638 3.33,-15.03549 3.43092,-6.559107 9.18275,-10.090933 5.85274,-3.531827 13.01731,-3.531827 6.25638,0 10.89821,2.522733 4.74273,2.522734 7.5682,6.357288 v -7.971837 h 14.22821 V 138.0191 h -14.22821 v -8.17365 q -2.72456,3.93546 -7.5682,6.5591 -4.74274,2.52274 -10.99912,2.52274 -7.06366,0 -12.9164,-3.63274 -5.75183,-3.63273 -9.18275,-10.19184 -3.33,-6.66002 -3.33,-15.23731 z m 43.99647,0.20182 q 0,-5.14638 -2.01819,-8.77911 -2.01819,-3.733648 -5.44911,-5.650926 -3.43091,-2.018186 -7.36638,-2.018186 -3.93546,0 -7.26547,1.917277 -3.33001,1.917277 -5.4491,5.650925 -2.01819,3.63273 -2.01819,8.6782 0,5.04547 2.01819,8.88002 2.11909,3.73365 5.4491,5.75183 3.43092,2.01819 7.26547,2.01819 3.93547,0 7.36638,-1.91728 3.43092,-2.01818 5.44911,-5.65092 2.01819,-3.73365 2.01819,-8.88002 z"
       style="font-style:normal;font-variant:normal;font-weight:600;font-stretch:normal;font-size:100.90933228px;font-family:Poppins;-inkscape-font-specification:'Poppins, Semi-Bold';font-variant-ligatures:normal;font-variant-caps:normal;font-variant-numeric:normal;font-feature-settings:normal;text-align:start;writing-mode:lr-tb;text-anchor:start;fill:#080444;fill-opacity:1;stroke-width:3.15341783"
       id="path839"
       inkscape:connector-curvature="0" />
    <path
       d="m 515.48496,109.8654 q 0,-8.47638 3.33001,-15.03549 3.43092,-6.559107 9.28366,-10.090933 5.85274,-3.531827 13.0173,-3.531827 5.44911,0 10.39366,2.421824 4.94456,2.320915 7.87093,6.256379 V 63.346198 h 14.32913 V 138.0191 h -14.32913 v -8.27456 q -2.62364,4.13728 -7.36638,6.66001 -4.74274,2.52274 -10.99912,2.52274 -7.06365,0 -12.91639,-3.63274 -5.85274,-3.63273 -9.28366,-10.19184 -3.33001,-6.66002 -3.33001,-15.23731 z m 43.99647,0.20182 q 0,-5.14638 -2.01819,-8.77911 -2.01818,-3.733648 -5.4491,-5.650926 -3.43092,-2.018186 -7.36638,-2.018186 -3.93547,0 -7.26547,1.917277 -3.33001,1.917277 -5.44911,5.650925 -2.01818,3.63273 -2.01818,8.6782 0,5.04547 2.01818,8.88002 2.1191,3.73365 5.44911,5.75183 3.43091,2.01819 7.26547,2.01819 3.93546,0 7.36638,-1.91728 3.43092,-2.01818 5.4491,-5.65092 2.01819,-3.73365 2.01819,-8.88002 z"
       style="font-style:normal;font-variant:normal;font-weight:600;font-stretch:normal;font-size:100.90933228px;font-family:Poppins;-inkscape-font-specification:'Poppins, Semi-Bold';font-variant-ligatures:normal;font-variant-caps:normal;font-variant-numeric:normal;font-feature-settings:normal;text-align:start;writing-mode:lr-tb;text-anchor:start;fill:#080444;fill-opacity:1;stroke-width:3.15341783"
       id="path841"
       inkscape:connector-curvature="0" />
    <path
       d="m 639.47571,108.85631 q 0,3.02728 -0.40363,5.4491 H 598.2038 q 0.50454,6.05456 4.23819,9.48548 3.73364,3.43092 9.18275,3.43092 7.87092,0 11.20093,-6.76093 h 15.23731 q -2.42182,8.07275 -9.28366,13.32003 -6.86183,5.14638 -16.85186,5.14638 -8.07274,0 -14.53094,-3.53183 -6.35729,-3.63273 -9.99002,-10.19184 -3.53183,-6.55911 -3.53183,-15.1364 0,-8.6782 3.53183,-15.23731 3.53182,-6.559107 9.88911,-10.090933 6.35729,-3.531827 14.63185,-3.531827 7.97184,0 14.22822,3.430917 6.35729,3.430918 9.78821,9.788205 3.53182,6.256378 3.53182,14.430038 z m -14.63185,-4.03638 q -0.10091,-5.4491 -3.93546,-8.678199 -3.83456,-3.330008 -9.38457,-3.330008 -5.24729,0 -8.88002,3.229099 -3.53183,3.128189 -4.33911,8.779108 z"
       style="font-style:normal;font-variant:normal;font-weight:600;font-stretch:normal;font-size:100.90933228px;font-family:Poppins;-inkscape-font-specification:'Poppins, Semi-Bold';font-variant-ligatures:normal;font-variant-caps:normal;font-variant-numeric:normal;font-feature-settings:normal;text-align:start;writing-mode:lr-tb;text-anchor:start;fill:#080444;fill-opacity:1;stroke-width:3.15341783"
       id="path843"
       inkscape:connector-curvature="0" />
    <path
       d="m 719.21303,81.308059 q 10.29275,0 16.54913,6.357288 6.35728,6.256379 6.35728,17.558223 v 32.79553 h -14.1273 v -30.87825 q 0,-6.55911 -3.33001,-9.990026 -3.33001,-3.531826 -9.08184,-3.531826 -5.75183,0 -9.18275,3.531826 -3.33001,3.430916 -3.33001,9.990026 v 30.87825 h -14.1273 v -30.87825 q 0,-6.55911 -3.33001,-9.990026 -3.33001,-3.531826 -9.08184,-3.531826 -5.85274,0 -9.28366,3.531826 -3.33001,3.430916 -3.33001,9.990026 v 30.87825 h -14.1273 V 82.115334 h 14.1273 v 6.760925 q 2.72455,-3.531826 6.96275,-5.550013 4.3391,-2.018187 9.48547,-2.018187 6.55911,0 11.70549,2.825462 5.14637,2.724552 7.97183,7.870927 2.72455,-4.843647 7.87093,-7.770018 5.24729,-2.926371 11.30185,-2.926371 z"
       style="font-style:normal;font-variant:normal;font-weight:600;font-stretch:normal;font-size:100.90933228px;font-family:Poppins;-inkscape-font-specification:'Poppins, Semi-Bold';font-variant-ligatures:normal;font-variant-caps:normal;font-variant-numeric:normal;font-feature-settings:normal;text-align:start;writing-mode:lr-tb;text-anchor:start;fill:#080444;fill-opacity:1;stroke-width:3.15341783"
       id="path845"
       inkscape:connector-curvature="0" />
    <path
       d="M 809.1059,82.115334 774.494,164.45735 h -15.03549 l 12.10912,-27.85098 -22.40187,-54.491036 h 15.84276 l 14.43004,39.051916 14.63185,-39.051916 z"
       style="font-style:normal;font-variant:normal;font-weight:600;font-stretch:normal;font-size:100.90933228px;font-family:Poppins;-inkscape-font-specification:'Poppins, Semi-Bold';font-variant-ligatures:normal;font-variant-caps:normal;font-variant-numeric:normal;font-feature-settings:normal;text-align:start;writing-mode:lr-tb;text-anchor:start;fill:#080444;fill-opacity:1;stroke-width:3.15341783"
       id="path847"
       inkscape:connector-curvature="0" />
  </g>
  <text
     xml:space="preserve"
     style="font-style:normal;font-variant:normal;font-weight:600;font-stretch:normal;font-size:100.90933228px;line-height:78.83544159px;font-family:Poppins;-inkscape-font-specification:'Poppins, Semi-Bold';font-variant-ligatures:normal;font-variant-caps:normal;font-variant-numeric:normal;font-feature-settings:normal;text-align:start;letter-spacing:0px;word-spacing:0px;writing-mode:lr-tb;text-anchor:start;fill:#080444;fill-opacity:1;stroke:none;stroke-width:3.15341783"
     x="-74.809166"
     y="468.91324"
     id="text831"><tspan
       sodipodi:role="line"
       id="tspan829"
       x="-74.809166"
       y="468.91324"
       style="font-style:normal;font-variant:normal;font-weight:600;font-stretch:normal;font-size:100.90933228px;font-family:Poppins;-inkscape-font-specification:'Poppins, Semi-Bold';font-variant-ligatures:normal;font-variant-caps:normal;font-variant-numeric:normal;font-feature-settings:normal;text-align:start;writing-mode:lr-tb;text-anchor:start;fill:#080444;fill-opacity:1;stroke-width:3.15341783">yAcademy</tspan></text>
</svg>
