<?xml version="1.0" encoding="UTF-8" standalone="no"?>
<!-- Created with Inkscape (http://www.inkscape.org/) -->

<svg
   xmlns:dc="http://purl.org/dc/elements/1.1/"
   xmlns:cc="http://creativecommons.org/ns#"
   xmlns:rdf="http://www.w3.org/1999/02/22-rdf-syntax-ns#"
   xmlns:svg="http://www.w3.org/2000/svg"
   xmlns="http://www.w3.org/2000/svg"
   xmlns:sodipodi="http://sodipodi.sourceforge.net/DTD/sodipodi-0.dtd"
   xmlns:inkscape="http://www.inkscape.org/namespaces/inkscape"
   width="112.01024mm"
   height="127mm"
   viewBox="0 0 112.01024 127"
   version="1.1"
   id="svg8"
   inkscape:version="0.92.4 (5da689c313, 2019-01-14)"
   sodipodi:docname="notes.svg">
  <defs
     id="defs2">
    <style
       id="style2">.cls-1{font-size:66px;}.cls-1,.cls-2{fill:#080444;font-family:Mont-Bold, Mont;}.cls-3{letter-spacing:-.09em;}.cls-4{letter-spacing:0em;}.cls-5{letter-spacing:-.04em;}.cls-6{fill:#fff;}.cls-7,.cls-8{fill:#31dd74;}.cls-9{fill:#d7cdee;}.cls-10{fill:#3ee680;}.cls-11{fill:#18725f;}.cls-12{fill:#39e180;}.cls-13{letter-spacing:-.02em;}.cls-14{letter-spacing:-.02em;}.cls-15{letter-spacing:-.01em;}.cls-16{fill:#6cf1c7;}.cls-16,.cls-8,.cls-17,.cls-18{stroke:#022341;stroke-width:4.63px;}.cls-16,.cls-8,.cls-17,.cls-18,.cls-19{stroke-linecap:round;stroke-miterlimit:10;}.cls-17{fill:#022341;}.cls-18,.cls-19{fill:none;}.cls-20{letter-spacing:-.01em;}.cls-21{letter-spacing:-.01em;}.cls-22{letter-spacing:-.01em;}.cls-2{font-size:46.77px;}.cls-23{letter-spacing:-.02em;}.cls-19{stroke:#31dd74;stroke-width:5px;}.cls-24{letter-spacing:-.02em;}.cls-25{letter-spacing:-.03em;}.cls-26{letter-spacing:-.01em;}.cls-27{letter-spacing:0em;}</style>
  </defs>
  <sodipodi:namedview
     id="base"
     pagecolor="#ffffff"
     bordercolor="#666666"
     borderopacity="1.0"
     inkscape:pageopacity="0.0"
     inkscape:pageshadow="2"
     inkscape:zoom="0.35"
     inkscape:cx="176.23944"
     inkscape:cy="549.57235"
     inkscape:document-units="mm"
     inkscape:current-layer="layer1"
     showgrid="false"
     fit-margin-top="0"
     fit-margin-left="0"
     fit-margin-right="0"
     fit-margin-bottom="0"
     inkscape:window-width="1920"
     inkscape:window-height="991"
     inkscape:window-x="-9"
     inkscape:window-y="-9"
     inkscape:window-maximized="1" />
  <metadata
     id="metadata5">
    <rdf:RDF>
      <cc:Work
         rdf:about="">
        <dc:format>image/svg+xml</dc:format>
        <dc:type
           rdf:resource="http://purl.org/dc/dcmitype/StillImage" />
        <dc:title></dc:title>
      </cc:Work>
    </rdf:RDF>
  </metadata>
  <g
     inkscape:label="Layer 1"
     inkscape:groupmode="layer"
     id="layer1"
     transform="translate(-52.983285,-75.883933)">
    <path
       style="fill:#18725f;fill-opacity:1;stroke-width:0.26458332"
       d="m 116.93115,202.47349 c -1.16096,-0.81317 -1.16681,-1.06632 -0.17414,-7.54088 0.82441,-5.37708 1.04121,-6.31747 1.74324,-7.5614 L 119.302,185.9506 H 92.012635 64.723275 l -0.64944,-0.64943 c -0.62559,-0.6256 -0.64943,-0.78098 -0.64943,-4.23334 v -3.5839 h -1.46723 c -1.20503,0 -1.5833,-0.11606 -2.11667,-0.64943 l -0.64943,-0.64943 v -6.87881 -6.87881 l -1.21166,-0.53598 c -1.89665,-0.83898 -3.1238,-1.96979 -4.09791,-3.77622 -0.82014,-1.52091 -0.89822,-1.86117 -0.89822,-3.91465 0,-2.05348 0.0781,-2.39374 0.89822,-3.91465 0.97411,-1.80643 2.20126,-2.93724 4.09791,-3.77622 1.20169,-0.53157 1.21166,-0.54665 1.21166,-1.83413 0,-1.28748 -0.01,-1.30256 -1.21166,-1.83413 -1.89665,-0.83898 -3.1238,-1.9698 -4.09791,-3.77622 -0.82014,-1.52091 -0.89822,-1.86117 -0.89822,-3.91465 0,-2.05388 0.078,-2.39358 0.89905,-3.9162 1.03194,-1.9137 1.95746,-2.78407 3.91968,-3.68611 l 1.38906,-0.63857 v -2.34947 -2.34947 l -1.21166,-0.53598 c -1.89665,-0.83898 -3.1238,-1.96979 -4.09791,-3.77622 -0.82014,-1.52091 -0.89822,-1.86117 -0.89822,-3.91465 0,-2.05348 0.0781,-2.39374 0.89822,-3.91465 0.97411,-1.80643 2.20126,-2.93724 4.09791,-3.77622 l 1.21166,-0.53597 v -2.35649 -2.35649 l -1.21166,-0.53597 c -1.89665,-0.838984 -3.1238,-1.969797 -4.09791,-3.77622 -0.82014,-1.520914 -0.89822,-1.861176 -0.89822,-3.914654 0,-2.053479 0.0781,-2.393741 0.89822,-3.914655 0.97411,-1.806424 2.20126,-2.937236 4.09791,-3.776216 l 1.21166,-0.535974 v -3.703812 c 0,-3.579665 0.0218,-3.725581 0.64943,-4.353244 l 0.64943,-0.649432 h 31.45784 31.457835 l 3.32153,3.175 3.32154,3.175 h 8.37176 8.37176 l 0.64943,0.649431 0.64943,0.649432 0.001,26.668794 0.001,26.6688 2.08969,-3.57188 c 3.45664,-5.90837 3.91316,-6.54544 5.25306,-7.33068 1.83163,-1.07341 4.09404,-1.16188 5.99004,-0.23426 2.7637,1.35216 4.14915,4.38291 3.33721,7.30036 -0.14175,0.50932 -3.95108,7.22497 -8.46519,14.92368 l -8.20746,13.99762 v 11.30692 c 0,10.73481 -0.0256,11.33851 -0.50534,11.93153 -0.50082,0.61903 -0.56411,0.62581 -7.06825,0.75692 l -6.56291,0.13229 -2.45675,4.19618 c -1.35121,2.3079 -2.45675,4.28227 -2.45675,4.38749 0,0.22299 -0.55958,0.67603 -6.16993,4.99513 -2.44635,1.88332 -4.42832,3.22224 -4.76978,3.22224 -0.32131,0 -0.8479,-0.1847 -1.1702,-0.41044 z"
       id="path916"
       inkscape:connector-curvature="0" />
    <path
       style="fill:#022341;fill-opacity:1;stroke-width:0.26458332"
       d="m 122.37551,194.72377 0.87507,-0.65704 -0.82542,-0.52262 c -0.9774,-0.61884 -1.20594,-0.44331 -1.39529,1.07165 -0.1533,1.22654 -0.14497,1.22721 1.34564,0.10801 z"
       id="path914"
       inkscape:connector-curvature="0" />
    <path
       style="fill:#31dd74;fill-opacity:1;stroke-width:0.26458332"
       d="m 140.17648,167.15549 c 7.5477,-12.87326 13.72233,-23.52499 13.72139,-23.67051 -0.001,-0.14552 -0.7674,-0.69914 -1.70324,-1.23026 -1.22312,-0.69416 -1.7681,-0.88013 -1.93828,-0.66146 -0.36673,0.47125 -27.56528,46.94436 -27.56528,47.09972 0,0.21793 3.28232,2.01932 3.5348,1.93996 0.12513,-0.0393 6.4029,-10.60418 13.95061,-23.47745 z"
       id="path912"
       inkscape:connector-curvature="0" />
    <path
       style="fill:#31dd74;fill-opacity:1;stroke-width:0.26458332"
       d="m 122.56846,180.4605 c 0.39678,-0.69123 0.95359,-1.64373 1.23734,-2.11667 l 0.51593,-0.8599 H 95.989735 67.657745 v 2.11667 2.11667 h 27.09465 27.094645 z"
       id="path910"
       inkscape:connector-curvature="0" />
    <path
       style="fill:#31dd74;fill-opacity:1;stroke-width:0.26458332"
       d="m 143.85773,175.63185 c 0,-3.34698 -0.0473,-6.08542 -0.10503,-6.08542 -0.13336,0 -7.03872,11.77458 -7.03872,12.00197 0,0.0929 1.60734,0.16887 3.57188,0.16887 h 3.57187 z"
       id="path908"
       inkscape:connector-curvature="0" />
    <path
       style="fill:#31dd74;fill-opacity:1;stroke-width:0.26458332"
       d="m 131.09298,165.89664 4.29808,-7.35396 V 126.7383 94.933932 h -6.7589 -6.7589 l -0.64943,-0.649431 -0.64943,-0.649432 v -6.758901 -6.758902 h -28.574995 -28.575 v 8.251584 8.251584 l 0.78764,-0.754601 c 0.4332,-0.41503 0.91807,-1.149819 1.07748,-1.632864 0.3457,-1.047459 1.39942,-1.94487 2.28363,-1.94487 0.87225,0 1.93729,1.122533 1.93408,2.038494 -0.004,1.101441 -1.12554,3.305325 -2.25934,4.43913 -0.54978,0.549778 -1.63497,1.290477 -2.41154,1.646007 l -1.41195,0.64641 v 8.36448 8.36448 l 0.78764,-0.7546 c 0.4332,-0.41503 0.91807,-1.14982 1.07748,-1.63286 0.3457,-1.04746 1.39942,-1.94487 2.28363,-1.94487 0.87225,0 1.93729,1.12253 1.93408,2.03849 -0.004,1.10144 -1.12554,3.30532 -2.25934,4.43913 -0.54978,0.54978 -1.63497,1.29048 -2.41154,1.64601 l -1.41195,0.64641 v 8.36448 8.36448 l 0.78764,-0.7546 c 0.4332,-0.41503 0.91807,-1.14982 1.07748,-1.63287 0.3457,-1.04746 1.39942,-1.94487 2.28363,-1.94487 0.87225,0 1.93729,1.12253 1.93408,2.0385 -0.004,1.10144 -1.12554,3.30532 -2.25934,4.43912 -0.54978,0.54979 -1.63497,1.29049 -2.41154,1.64602 l -1.41195,0.64641 v 7.30614 7.30615 l 0.78764,-0.7546 c 0.4332,-0.41503 0.91807,-1.14982 1.07748,-1.63287 0.3457,-1.04745 1.39942,-1.94487 2.28363,-1.94487 0.87225,0 1.93729,1.12254 1.93408,2.0385 -0.004,1.10144 -1.12554,3.30532 -2.25934,4.43913 -0.54978,0.54978 -1.63497,1.29048 -2.41154,1.64601 l -1.41195,0.6464 v 5.40457 5.40456 h 31.68525 31.685245 z"
       id="path906"
       inkscape:connector-curvature="0" />
    <path
       style="fill:#ffffff;stroke-width:0.26458332"
       d="m 76.773845,153.55117 c -0.40938,-0.40937 -0.64944,-0.95173 -0.64944,-1.46724 0,-0.5155 0.24006,-1.05786 0.64944,-1.46723 l 0.64943,-0.64943 h 9.28447 9.28446 l 0.64944,0.64943 c 0.40937,0.40937 0.64943,0.95173 0.64943,1.46723 0,0.51551 -0.24006,1.05787 -0.64943,1.46724 l -0.64944,0.64943 h -9.28446 -9.28447 z"
       id="path904"
       inkscape:connector-curvature="0" />
    <path
       style="fill:#ffffff;stroke-width:0.26458332"
       d="m 76.773845,140.85116 c -0.40938,-0.40937 -0.64944,-0.95172 -0.64944,-1.46723 0,-0.51551 0.24006,-1.05786 0.64944,-1.46723 l 0.64943,-0.64944 h 24.101125 24.10114 l 0.64942,0.64944 c 0.40938,0.40937 0.64944,0.95172 0.64944,1.46723 0,0.51551 -0.24006,1.05786 -0.64944,1.46723 l -0.64942,0.64944 H 101.5244 77.423275 Z"
       id="path902"
       inkscape:connector-curvature="0" />
    <path
       style="fill:#ffffff;stroke-width:0.26458332"
       d="m 76.773845,128.15116 c -0.40938,-0.40937 -0.64944,-0.95172 -0.64944,-1.46723 0,-0.51551 0.24006,-1.05786 0.64944,-1.46723 l 0.64943,-0.64944 h 24.101125 24.10114 l 0.64942,0.64944 c 0.40938,0.40937 0.64944,0.95172 0.64944,1.46723 0,0.51551 -0.24006,1.05786 -0.64944,1.46723 l -0.64942,0.64944 H 101.5244 77.423275 Z"
       id="path900"
       inkscape:connector-curvature="0" />
    <path
       style="fill:#ffffff;stroke-width:0.26458332"
       d="m 76.773845,115.45117 c -0.40938,-0.40938 -0.64944,-0.95173 -0.64944,-1.46724 0,-0.5155 0.24006,-1.05786 0.64944,-1.46723 l 0.64943,-0.64943 h 24.101125 24.10114 l 0.64942,0.64943 c 0.40938,0.40937 0.64944,0.95173 0.64944,1.46723 0,0.51551 -0.24006,1.05786 -0.64944,1.46724 l -0.64942,0.64943 H 101.5244 77.423275 Z"
       id="path898"
       inkscape:connector-curvature="0" />
    <path
       style="fill:#ffffff;stroke-width:0.26458332"
       d="m 76.773845,102.75117 c -0.40938,-0.40938 -0.64944,-0.95173 -0.64944,-1.46724 0,-0.5155 0.24006,-1.05786 0.64944,-1.467232 l 0.64943,-0.649433 h 24.101125 24.10114 l 0.64942,0.649433 c 0.40938,0.409372 0.64944,0.951732 0.64944,1.467232 0,0.51551 -0.24006,1.05786 -0.64944,1.46724 l -0.64942,0.64943 H 101.5244 77.423275 Z"
       id="path896"
       inkscape:connector-curvature="0" />
    <path
       style="fill:#022341;fill-opacity:1;stroke-width:0.26458332"
       d="m 59.183915,154.13446 -0.007,-3.77032 -0.90289,0.97085 c -1.53102,1.64627 -1.57248,3.97308 -0.10067,5.64939 0.44446,0.50621 0.85531,0.92039 0.913,0.92039 0.0577,0 0.10166,-1.69664 0.0977,-3.77031 z"
       id="path894"
       inkscape:connector-curvature="0" />
    <path
       style="fill:#31dd74;fill-opacity:1;stroke-width:0.26458332"
       d="m 141.97008,147.37118 1.88765,-3.25755 V 115.29045 86.467266 h -4.81274 -4.81275 l 2.69608,2.739768 2.69608,2.739769 v 29.592317 c 0,16.68147 0.0999,29.48265 0.22901,29.34096 0.12596,-0.13824 1.07846,-1.71725 2.11667,-3.5089 z"
       id="path892"
       inkscape:connector-curvature="0" />
    <path
       style="fill:#022341;fill-opacity:1;stroke-width:0.26458332"
       d="m 156.77736,138.80168 0.53617,-0.84683 -1.63467,-0.99591 c -0.89907,-0.54775 -1.75783,-1.00011 -1.90835,-1.00525 -0.36719,-0.0125 -1.33797,1.65658 -1.02824,1.76789 0.13397,0.0482 0.89843,0.49871 1.69879,1.00126 0.80037,0.50255 1.53282,0.91641 1.62767,0.9197 0.0948,0.003 0.41373,-0.3751 0.70863,-0.84086 z"
       id="path890"
       inkscape:connector-curvature="0" />
    <path
       style="fill:#022341;fill-opacity:1;stroke-width:0.26458332"
       d="m 59.183915,135.08445 -0.007,-3.77031 -0.90289,0.97085 c -1.53102,1.64626 -1.57248,3.97308 -0.10067,5.64939 0.44446,0.50621 0.85531,0.92038 0.913,0.92038 0.0577,0 0.10166,-1.69664 0.0977,-3.77031 z"
       id="path888"
       inkscape:connector-curvature="0" />
    <path
       style="fill:#022341;fill-opacity:1;stroke-width:0.26458332"
       d="m 160.19575,133.04562 c 0.76945,-1.34753 0.75336,-2.25894 -0.0541,-3.06642 -0.98343,-0.98343 -2.31603,-0.89412 -3.14036,0.21046 -1.37804,1.84655 -1.37723,1.85205 0.43276,2.92493 0.90048,0.53377 1.7563,0.97119 1.90182,0.97204 0.14553,8e-4 0.53248,-0.4676 0.8599,-1.04101 z"
       id="path886"
       inkscape:connector-curvature="0" />
    <path
       style="fill:#022341;fill-opacity:1;stroke-width:0.26458332"
       d="m 59.183915,113.91779 -0.007,-3.77032 -0.90289,0.97086 c -1.53102,1.64626 -1.57248,3.97307 -0.10067,5.64938 0.44446,0.50621 0.85531,0.92039 0.913,0.92039 0.0577,0 0.10166,-1.69664 0.0977,-3.77031 z"
       id="path884"
       inkscape:connector-curvature="0" />
    <path
       style="fill:#022341;fill-opacity:1;stroke-width:0.26458332"
       d="m 59.183915,92.75112 -0.007,-3.770313 -0.90289,0.970853 c -1.53102,1.646264 -1.57248,3.973078 -0.10067,5.649388 0.44446,0.506211 0.85531,0.920384 0.913,0.920384 0.0577,0 0.10166,-1.69664 0.0977,-3.770312 z"
       id="path882"
       inkscape:connector-curvature="0" />
    <path
       style="fill:#ffffff;stroke-width:0.26458332"
       d="m 132.21606,90.630909 c 0,-0.03833 -1.66687,-1.733376 -3.70416,-3.766768 l -3.70417,-3.697077 v 3.766767 3.766768 h 3.70417 c 2.03729,0 3.70416,-0.03136 3.70416,-0.06969 z"
       id="path826"
       inkscape:connector-curvature="0" />
  </g>
</svg>
