<?xml version="1.0" encoding="UTF-8" standalone="no"?>
<!-- Created with Inkscape (http://www.inkscape.org/) -->

<svg
   xmlns:dc="http://purl.org/dc/elements/1.1/"
   xmlns:cc="http://creativecommons.org/ns#"
   xmlns:rdf="http://www.w3.org/1999/02/22-rdf-syntax-ns#"
   xmlns:svg="http://www.w3.org/2000/svg"
   xmlns="http://www.w3.org/2000/svg"
   xmlns:sodipodi="http://sodipodi.sourceforge.net/DTD/sodipodi-0.dtd"
   xmlns:inkscape="http://www.inkscape.org/namespaces/inkscape"
   width="99.351036mm"
   height="135.40685mm"
   viewBox="0 0 99.351036 135.40685"
   version="1.1"
   id="svg8"
   inkscape:version="0.92.4 (5da689c313, 2019-01-14)"
   sodipodi:docname="report.svg">
  <defs
     id="defs2">
    <style
       id="style2">.cls-1{font-size:66px;}.cls-1,.cls-2{fill:#080444;font-family:Mont-Bold, Mont;}.cls-3{letter-spacing:-.09em;}.cls-4{letter-spacing:0em;}.cls-5{letter-spacing:-.04em;}.cls-6{fill:#fff;}.cls-7,.cls-8{fill:#31dd74;}.cls-9{fill:#d7cdee;}.cls-10{fill:#3ee680;}.cls-11{fill:#18725f;}.cls-12{fill:#39e180;}.cls-13{letter-spacing:-.02em;}.cls-14{letter-spacing:-.02em;}.cls-15{letter-spacing:-.01em;}.cls-16{fill:#6cf1c7;}.cls-16,.cls-8,.cls-17,.cls-18{stroke:#022341;stroke-width:4.63px;}.cls-16,.cls-8,.cls-17,.cls-18,.cls-19{stroke-linecap:round;stroke-miterlimit:10;}.cls-17{fill:#022341;}.cls-18,.cls-19{fill:none;}.cls-20{letter-spacing:-.01em;}.cls-21{letter-spacing:-.01em;}.cls-22{letter-spacing:-.01em;}.cls-2{font-size:46.77px;}.cls-23{letter-spacing:-.02em;}.cls-19{stroke:#31dd74;stroke-width:5px;}.cls-24{letter-spacing:-.02em;}.cls-25{letter-spacing:-.03em;}.cls-26{letter-spacing:-.01em;}.cls-27{letter-spacing:0em;}</style>
  </defs>
  <sodipodi:namedview
     id="base"
     pagecolor="#ffffff"
     bordercolor="#666666"
     borderopacity="1.0"
     inkscape:pageopacity="0.0"
     inkscape:pageshadow="2"
     inkscape:zoom="0.35"
     inkscape:cx="-317.08569"
     inkscape:cy="230.36015"
     inkscape:document-units="mm"
     inkscape:current-layer="layer1"
     showgrid="false"
     fit-margin-top="0"
     fit-margin-left="0"
     fit-margin-right="0"
     fit-margin-bottom="0"
     inkscape:window-width="1920"
     inkscape:window-height="991"
     inkscape:window-x="-9"
     inkscape:window-y="-9"
     inkscape:window-maximized="1" />
  <metadata
     id="metadata5">
    <rdf:RDF>
      <cc:Work
         rdf:about="">
        <dc:format>image/svg+xml</dc:format>
        <dc:type
           rdf:resource="http://purl.org/dc/dcmitype/StillImage" />
        <dc:title></dc:title>
      </cc:Work>
    </rdf:RDF>
  </metadata>
  <g
     inkscape:label="Layer 1"
     inkscape:groupmode="layer"
     id="layer1"
     transform="translate(-54.140884,-91.246247)">
    <path
       style="fill:#18725f;fill-opacity:1;stroke-width:0.99999994"
       d="M 247.88867,0 137.92188,0.27148438 27.957031,0.54296875 21.306641,3.8164062 C 13.069054,7.8721379 5.5594848,15.775489 2.3203125,23.796875 L 0,29.542969 v 226.500001 226.5 l 2.3046875,5.70117 c 4.1767483,10.33716 14.4981775,19.55605 25.1250005,22.43945 3.560768,0.96632 39.374641,1.19699 162.091792,1.04883 l 157.52149,-0.18945 6.65039,-3.27344 c 8.23786,-4.0557 15.74705,-11.9588 18.98633,-19.98047 L 375,482.54297 l 0.2793,-81.47461 c 0.11186,-32.73014 0.0789,-54.33915 -0.10742,-67.60547 L 375.5,333.13477 V 208.53906 c 0,-66.21044 -0.22553,-79.02006 -1.42969,-81.29492 -0.78614,-1.48516 -29.49765,-30.723371 -63.80469,-64.972656 z"
       transform="matrix(0.26458333,0,0,0.26458333,54.140884,91.246247)"
       id="path831" />
    <path
       style="fill:#31dd74;fill-opacity:1;stroke-width:0.99999994"
       d="m 237.5,15.042969 v 15 15 h -88.68359 c -87.856849,0 -88.725595,0.01956 -92.994144,2.085937 -2.36981,1.1472 -5.323113,3.509717 -6.564454,5.25 -2.173009,3.046451 -2.268199,4.07644 -2.554687,27.695313 -0.29407,24.245371 -0.27083,24.572111 2.023437,27.976561 1.276744,1.89457 3.839565,4.46814 5.695313,5.71875 l 3.373047,2.27344 h 78.353518 c 77.01878,0 78.3856,-0.034 80.35156,-2 2.57133,-2.57133 2.57133,-7.42868 0,-10 -1.96464,-1.966 -3.3325,-2 -77.42773,-2 -67.238102,0 -75.599213,-0.1715 -77.000004,-1.57227 C 60.761095,99.159509 60.5,95.943771 60.5,81.052734 60.5,71.236999 60.773576,62.494972 61.107422,61.625 61.654543,60.199287 70.377384,60.042969 149.54492,60.042969 H 237.375 l 0.3125,25.27539 0.3125,25.275391 3.25,6.59766 c 3.85327,7.82162 10.13279,13.96861 18.07422,17.6914 l 5.67578,2.66016 47.75,0.28711 47.75,0.28711 v 74.64843 120.64844 l 0.3125,0.33399 c -0.20828,13.38754 -0.3125,34.29927 -0.3125,63.86328 0,59.88574 -0.30423,80.72362 -1.22266,83.8164 -1.60724,5.41217 -8.9804,12.78534 -14.39257,14.39258 -5.97638,1.77479 -308.793127,1.77479 -314.769536,0 -5.412162,-1.60724 -12.785345,-8.98041 -14.392578,-14.39258 -1.780078,-5.99418 -1.780078,-444.77534 0,-450.769527 C 17.32332,25.268162 24.957946,17.563916 30.119141,16.130859 32.774777,15.393474 66.120754,15.052608 135.75,15.048828 Z"
       id="path854"
       transform="matrix(0.26458333,0,0,0.26458333,54.140884,91.246247)" />
    <path
       style="fill:#31dd74;fill-opacity:1;stroke-width:0.26458332"
       d="m 133.91173,110.96792 -12.83127,-12.833421 -0.0783,10.386031 c -0.0491,6.50398 0.0223,10.73215 0.19096,11.31206 0.37538,1.29087 1.65231,2.7465 2.99027,3.40878 1.09468,0.54185 1.46943,0.55956 11.84504,0.55976 l 10.7146,2.1e-4 z"
       id="path852"
       inkscape:connector-curvature="0" />
    <path
       style="fill:#ffffff;fill-opacity:1;stroke-width:0.26458332"
       d="m 68.363886,202.47674 c -0.472035,-0.23271 -1.097113,-0.8096 -1.389062,-1.28198 -0.501904,-0.8121 -0.530762,-1.31112 -0.529826,-9.16202 0.0014,-11.81111 -0.852691,-10.94898 10.846927,-10.94898 9.274069,0 9.227751,-0.008 10.330391,1.80031 0.482031,0.79056 0.515612,1.38531 0.516536,9.14867 0.0013,11.70393 0.824462,10.88191 -10.886914,10.87312 -6.816182,-0.005 -8.159519,-0.07 -8.888052,-0.42912 z"
       id="path842"
       inkscape:connector-curvature="0" />
    <path
       style="fill:#31dd74;fill-opacity:1;stroke-width:0.26458332"
       d="m 84.373921,191.99782 -0.07054,-6.94531 h -7.011458 -7.011458 l -0.07054,6.94531 -0.07054,6.94532 h 7.152536 7.152536 z"
       id="path840"
       inkscape:connector-curvature="0" />
    <path
       style="fill:#ffffff;fill-opacity:1;stroke-width:0.26458332"
       d="m 96.871091,197.09108 c -0.787839,-0.78784 -0.705559,-2.20409 0.167973,-2.89121 0.691608,-0.54402 0.859245,-0.54837 21.130986,-0.54837 20.27174,0 20.43938,0.004 21.13098,0.54837 0.87354,0.68712 0.95582,2.10337 0.16798,2.89121 -0.52018,0.52018 -0.88195,0.52917 -21.29896,0.52917 -20.417016,0 -20.778781,-0.009 -21.298959,-0.52917 z"
       id="path838"
       inkscape:connector-curvature="0" />
    <path
       style="fill:#ffffff;fill-opacity:1;stroke-width:0.26458332"
       d="m 96.871091,189.15358 c -0.787839,-0.78784 -0.705559,-2.20409 0.167973,-2.89121 0.691608,-0.54402 0.859245,-0.54837 21.130986,-0.54837 20.27174,0 20.43938,0.004 21.13098,0.54837 0.87354,0.68712 0.95582,2.10337 0.16798,2.89121 -0.52018,0.52018 -0.88195,0.52917 -21.29896,0.52917 -20.417016,0 -20.778781,-0.009 -21.298959,-0.52917 z"
       id="path836"
       inkscape:connector-curvature="0" />
    <path
       style="fill:#ffffff;fill-opacity:1;stroke-width:0.26458332"
       d="m 68.363886,172.57882 c -0.472035,-0.2327 -1.097113,-0.80959 -1.389062,-1.28197 -0.501904,-0.8121 -0.530762,-1.31113 -0.529826,-9.16202 0.0014,-11.81112 -0.852691,-10.94899 10.846927,-10.94899 9.274069,0 9.227751,-0.008 10.330391,1.80031 0.482031,0.79056 0.515612,1.38531 0.516536,9.14868 0.0013,11.70393 0.824462,10.8819 -10.886914,10.87312 -6.816182,-0.005 -8.159519,-0.07 -8.888052,-0.42913 z"
       id="path834"
       inkscape:connector-curvature="0" />
    <path
       style="fill:#31dd74;fill-opacity:1;stroke-width:0.26458332"
       d="m 84.373921,162.09991 -0.07054,-6.94532 h -7.011458 -7.011458 l -0.07054,6.94532 -0.07054,6.94531 h 7.152536 7.152536 z"
       id="path832"
       inkscape:connector-curvature="0" />
    <path
       style="fill:#ffffff;fill-opacity:1;stroke-width:0.26458332"
       d="m 96.871091,167.19317 c -0.787839,-0.78784 -0.705559,-2.2041 0.167973,-2.89122 0.691608,-0.54402 0.859245,-0.54837 21.130986,-0.54837 20.27174,0 20.43938,0.004 21.13098,0.54837 0.87354,0.68712 0.95582,2.10338 0.16798,2.89122 -0.52018,0.52018 -0.88195,0.52916 -21.29896,0.52916 -20.417016,0 -20.778781,-0.009 -21.298959,-0.52916 z"
       id="path830"
       inkscape:connector-curvature="0" />
    <path
       style="fill:#ffffff;fill-opacity:1;stroke-width:0.26458332"
       d="m 96.871091,159.25566 c -0.787839,-0.78784 -0.705559,-2.20409 0.167973,-2.89121 0.691608,-0.54402 0.859245,-0.54837 21.130986,-0.54837 20.27174,0 20.43938,0.004 21.13098,0.54837 0.87354,0.68712 0.95582,2.10337 0.16798,2.89121 -0.52018,0.52018 -0.88195,0.52917 -21.29896,0.52917 -20.417016,0 -20.778781,-0.009 -21.298959,-0.52917 z"
       id="path826"
       inkscape:connector-curvature="0" />
  </g>
</svg>
