<?xml version="1.0" encoding="UTF-8" standalone="no"?>
<!-- Created with Inkscape (http://www.inkscape.org/) -->

<svg
   xmlns:dc="http://purl.org/dc/elements/1.1/"
   xmlns:cc="http://creativecommons.org/ns#"
   xmlns:rdf="http://www.w3.org/1999/02/22-rdf-syntax-ns#"
   xmlns:svg="http://www.w3.org/2000/svg"
   xmlns="http://www.w3.org/2000/svg"
   xmlns:xlink="http://www.w3.org/1999/xlink"
   xmlns:sodipodi="http://sodipodi.sourceforge.net/DTD/sodipodi-0.dtd"
   xmlns:inkscape="http://www.inkscape.org/namespaces/inkscape"
   width="129.05453mm"
   height="131.01466mm"
   viewBox="0 0 129.05453 131.01466"
   version="1.1"
   id="svg8"
   inkscape:version="0.92.4 (5da689c313, 2019-01-14)"
   sodipodi:docname="rust-window.svg">
  <defs
     id="defs2">
    <linearGradient
       inkscape:collect="always"
       id="linearGradient892">
      <stop
         style="stop-color:#ffffff;stop-opacity:1;"
         offset="0"
         id="stop888" />
      <stop
         style="stop-color:#ffffff;stop-opacity:0;"
         offset="1"
         id="stop890" />
    </linearGradient>
    <style
       id="style2">.cls-1{font-size:66px;}.cls-1,.cls-2{fill:#080444;font-family:Mont-Bold, Mont;}.cls-3{letter-spacing:-.09em;}.cls-4{letter-spacing:0em;}.cls-5{letter-spacing:-.04em;}.cls-6{fill:#fff;}.cls-7,.cls-8{fill:#31dd74;}.cls-9{fill:#d7cdee;}.cls-10{fill:#3ee680;}.cls-11{fill:#18725f;}.cls-12{fill:#39e180;}.cls-13{letter-spacing:-.02em;}.cls-14{letter-spacing:-.02em;}.cls-15{letter-spacing:-.01em;}.cls-16{fill:#6cf1c7;}.cls-16,.cls-8,.cls-17,.cls-18{stroke:#022341;stroke-width:4.63px;}.cls-16,.cls-8,.cls-17,.cls-18,.cls-19{stroke-linecap:round;stroke-miterlimit:10;}.cls-17{fill:#022341;}.cls-18,.cls-19{fill:none;}.cls-20{letter-spacing:-.01em;}.cls-21{letter-spacing:-.01em;}.cls-22{letter-spacing:-.01em;}.cls-2{font-size:46.77px;}.cls-23{letter-spacing:-.02em;}.cls-19{stroke:#31dd74;stroke-width:5px;}.cls-24{letter-spacing:-.02em;}.cls-25{letter-spacing:-.03em;}.cls-26{letter-spacing:-.01em;}.cls-27{letter-spacing:0em;}</style>
    <linearGradient
       id="linearGradient1002"
       inkscape:collect="always">
      <stop
         id="stop998"
         offset="0"
         style="stop-color:#2adb83;stop-opacity:1" />
      <stop
         id="stop1000"
         offset="1"
         style="stop-color:#b3edac;stop-opacity:1" />
    </linearGradient>
    <style
       id="style2-1">.cls-1{letter-spacing:-.02em;}.cls-2{font-size:66px;}.cls-2,.cls-3{fill:#080444;font-family:Mont-Bold, Mont;}.cls-4{letter-spacing:-.02em;}.cls-5{letter-spacing:-.01em;}.cls-6{letter-spacing:0em;}.cls-7{letter-spacing:-.05em;}.cls-8{letter-spacing:-.04em;}.cls-9{letter-spacing:-.02em;}.cls-10,.cls-11{fill:#043b4d;}.cls-10,.cls-12{stroke-width:2.72px;}.cls-10,.cls-12,.cls-13,.cls-14{stroke:#080444;stroke-linecap:round;stroke-miterlimit:10;}.cls-15{letter-spacing:-.03em;}.cls-16{letter-spacing:-.02em;}.cls-17{fill:#fff;}.cls-18{fill:#3ee680;}.cls-19,.cls-12,.cls-14{fill:#18725f;}.cls-20{fill:#6cf1c7;}.cls-21{fill:#39e180;}.cls-22{letter-spacing:-.02em;}.cls-23{letter-spacing:-.01em;}.cls-24{letter-spacing:-.03em;}.cls-25{letter-spacing:-.02em;}.cls-26{letter-spacing:-.02em;}.cls-27{letter-spacing:-.01em;}.cls-28{letter-spacing:0em;}.cls-29{letter-spacing:-.02em;}.cls-30{letter-spacing:-.01em;}.cls-31{letter-spacing:-.02em;}.cls-32{letter-spacing:-.02em;}.cls-33{letter-spacing:-.02em;}.cls-13{fill:none;stroke-width:2.38px;}.cls-34{letter-spacing:-.01em;}.cls-35{letter-spacing:-.01em;}.cls-36{letter-spacing:-.01em;}.cls-3{font-size:46.77px;}.cls-14{stroke-width:3.05px;}.cls-37{letter-spacing:-.02em;}.cls-38{letter-spacing:-.02em;}.cls-39{letter-spacing:-.02em;}.cls-40{letter-spacing:-.02em;}.cls-41{letter-spacing:-.02em;}.cls-42{letter-spacing:-.02em;}.cls-43{letter-spacing:-.02em;}.cls-44{letter-spacing:-.02em;}.cls-45{letter-spacing:-.02em;}.cls-46{letter-spacing:0em;}.cls-47{letter-spacing:-.02em;}.cls-48{letter-spacing:-.02em;}.cls-49{letter-spacing:-.03em;}.cls-50{letter-spacing:-.03em;}.cls-51{letter-spacing:-.01em;}.cls-52{letter-spacing:0em;}</style>
    <style
       id="style1006">.cls-1{letter-spacing:-.02em;}.cls-2{letter-spacing:-.02em;}.cls-3,.cls-4,.cls-5,.cls-6{fill:none;}.cls-7{letter-spacing:-.02em;}.cls-8{letter-spacing:-.02em;}.cls-9{letter-spacing:-.02em;}.cls-10{letter-spacing:0em;}.cls-11{fill:url(#linear-gradient);}.cls-12{letter-spacing:-.04em;}.cls-13{letter-spacing:-.02em;}.cls-14{letter-spacing:-.02em;}.cls-15{clip-path:url(#clippath);}.cls-16{letter-spacing:-.02em;}.cls-17{letter-spacing:-.02em;}.cls-18{letter-spacing:-.02em;}.cls-19{letter-spacing:-.02em;}.cls-20{fill:#022341;}.cls-21{fill:#fff;}.cls-22{fill:#31dd74;}.cls-23{fill:#3ee680;}.cls-24,.cls-25,.cls-26{fill:#080444;}.cls-27{fill:#18725f;}.cls-28{fill:#6cf1c7;}.cls-29{fill:#56db9b;}.cls-30{letter-spacing:-.02em;}.cls-31{letter-spacing:-.02em;}.cls-4{stroke-width:2.2px;}.cls-4,.cls-5,.cls-6{stroke-linecap:round;stroke-miterlimit:10;}.cls-4,.cls-6{stroke:#043b4d;}.cls-32{letter-spacing:-.01em;}.cls-33{letter-spacing:.01em;}.cls-25{font-size:76px;}.cls-25,.cls-26{font-family:Mont-Bold, Mont;}.cls-5{stroke:#022341;stroke-width:4.63px;}.cls-34{letter-spacing:-.05em;}.cls-35{clip-path:url(#clippath-1);}.cls-36{clip-path:url(#clippath-3);}.cls-37{clip-path:url(#clippath-2);}.cls-38{fill:#6f6fd2;mix-blend-mode:multiply;opacity:.42;}.cls-39{letter-spacing:-.04em;}.cls-6{stroke-width:2.83px;}.cls-40{letter-spacing:-.01em;}.cls-41{letter-spacing:-.04em;}.cls-42{letter-spacing:-.01em;}.cls-43{letter-spacing:-.01em;}.cls-44{letter-spacing:-.02em;}.cls-45{letter-spacing:-.01em;}.cls-46{letter-spacing:-.03em;}.cls-47{fill:url(#linear-gradient-2);}.cls-48{letter-spacing:0em;}.cls-49{letter-spacing:-.09em;}.cls-50{letter-spacing:-.01em;}.cls-51{letter-spacing:-.02em;}.cls-26{font-size:46.77px;}.cls-52{letter-spacing:.01em;}.cls-53{letter-spacing:-.02em;}.cls-54{isolation:isolate;}.cls-55{letter-spacing:-.02em;}.cls-56{letter-spacing:-.02em;}.cls-57{letter-spacing:-.03em;}.cls-58{letter-spacing:0em;}.cls-59{letter-spacing:0em;}</style>
    <linearGradient
       id="linear-gradient"
       x1="97.800003"
       y1="893.01001"
       x2="355.26999"
       y2="893.01001"
       gradientUnits="userSpaceOnUse">
      <stop
         offset="0"
         stop-color="#18725f"
         id="stop1008" />
      <stop
         offset="1"
         stop-color="#043b4d"
         id="stop1010" />
    </linearGradient>
    <clipPath
       id="clippath">
      <polygon
         style="fill:none"
         class="cls-3"
         points="173.32,996.4 355.27,928.61 310.68,783.22 106.42,781.44 "
         id="polygon1013" />
    </clipPath>
    <clipPath
       id="clippath-1">
      <rect
         style="fill:none"
         class="cls-3"
         x="101.42"
         y="776.44"
         width="258.85001"
         height="224.96001"
         id="rect1016" />
    </clipPath>
    <linearGradient
       id="linear-gradient-2"
       x1="184.91"
       y1="987.47998"
       x2="555.14001"
       y2="987.47998"
       xlink:href="#linear-gradient" />
    <clipPath
       id="clippath-2">
      <polygon
         style="fill:none"
         class="cls-3"
         points="1039.06,1074.64 869.17,1011.34 910.81,875.6 1101.52,873.93 "
         id="polygon1020" />
    </clipPath>
    <clipPath
       id="clippath-3">
      <rect
         style="fill:none"
         class="cls-3"
         x="864.16998"
         y="868.92999"
         width="242.35001"
         height="210.7"
         id="rect1023" />
    </clipPath>
    <linearGradient
       inkscape:collect="always"
       xlink:href="#linearGradient1002"
       id="linearGradient1065"
       x1="-416.90771"
       y1="249.13458"
       x2="-416.90771"
       y2="28.724682"
       gradientUnits="userSpaceOnUse"
       gradientTransform="matrix(0.7188119,0,0,0.58797124,18.957813,29.253771)" />
    <style
       id="style2-5">.cls-1{fill:url(#linear-gradient);}.cls-2{fill:#022341;}.cls-3,.cls-4{fill:#fff;}.cls-5{fill:#31dd74;}.cls-6{fill:#3ee680;}.cls-7{fill:#080444;}.cls-8{fill:#39e180;}.cls-9{fill:#6cf1c7;}.cls-9,.cls-4{stroke:#022341;stroke-linecap:round;stroke-miterlimit:10;stroke-width:4.63px;}.cls-10{fill:url(#linear-gradient-2);}</style>
    <linearGradient
       gradientUnits="userSpaceOnUse"
       y2="898.65002"
       x2="905.32001"
       y1="898.65002"
       x1="404.14001"
       id="linear-gradient-4">
      <stop
         id="stop4"
         stop-color="#18725f"
         offset="0" />
      <stop
         id="stop6"
         stop-color="#043b4d"
         offset="1" />
    </linearGradient>
    <linearGradient
       xlink:href="#linear-gradient-4"
       y2="1038.95"
       x2="836.19"
       y1="1038.95"
       x1="223.14999"
       id="linear-gradient-2-2" />
    <style
       id="style2-6">.cls-1{fill:url(#linear-gradient);}.cls-2{fill:#022341;}.cls-3,.cls-4{fill:#fff;}.cls-5{fill:#31dd74;}.cls-6{fill:#3ee680;}.cls-7{fill:#080444;}.cls-8{fill:#39e180;}.cls-9{fill:#6cf1c7;}.cls-9,.cls-4{stroke:#022341;stroke-linecap:round;stroke-miterlimit:10;stroke-width:4.63px;}.cls-10{fill:url(#linear-gradient-2);}</style>
    <linearGradient
       inkscape:collect="always"
       xlink:href="#linearGradient892"
       id="linearGradient894"
       x1="-321.14352"
       y1="202.54259"
       x2="-321.14352"
       y2="110.90894"
       gradientUnits="userSpaceOnUse"
       gradientTransform="matrix(0.83001578,0,0,0.69005628,65.319577,26.850572)" />
    <linearGradient
       inkscape:collect="always"
       xlink:href="#linearGradient892"
       id="linearGradient898"
       gradientUnits="userSpaceOnUse"
       gradientTransform="matrix(0.83921905,0,0,0.5127681,174.13919,-262.6949)"
       x1="-321.14352"
       y1="202.54259"
       x2="-322.17206"
       y2="29.087635" />
  </defs>
  <sodipodi:namedview
     id="base"
     pagecolor="#ffffff"
     bordercolor="#666666"
     borderopacity="1.0"
     inkscape:pageopacity="0.0"
     inkscape:pageshadow="2"
     inkscape:zoom="0.7"
     inkscape:cx="137.02819"
     inkscape:cy="361.1968"
     inkscape:document-units="mm"
     inkscape:current-layer="layer1"
     showgrid="false"
     inkscape:window-width="1920"
     inkscape:window-height="991"
     inkscape:window-x="-9"
     inkscape:window-y="-9"
     inkscape:window-maximized="1"
     fit-margin-top="0"
     fit-margin-left="0"
     fit-margin-right="0"
     fit-margin-bottom="0" />
  <metadata
     id="metadata5">
    <rdf:RDF>
      <cc:Work
         rdf:about="">
        <dc:format>image/svg+xml</dc:format>
        <dc:type
           rdf:resource="http://purl.org/dc/dcmitype/StillImage" />
        <dc:title></dc:title>
      </cc:Work>
    </rdf:RDF>
  </metadata>
  <g
     inkscape:label="Layer 1"
     inkscape:groupmode="layer"
     id="layer1"
     transform="translate(280.72043,-45.252228)">
    <rect
       style="opacity:1;vector-effect:none;fill:url(#linearGradient1065);fill-opacity:1;stroke:none;stroke-width:0.75680763;stroke-linecap:round;stroke-linejoin:round;stroke-miterlimit:4;stroke-dasharray:none;stroke-dashoffset:0;stroke-opacity:1;paint-order:markers stroke fill"
       id="rect826"
       width="129.05453"
       height="129.59468"
       x="-280.72043"
       y="46.143059"
       ry="1.9218286" />
    <circle
       style="opacity:1;vector-effect:none;fill:#31dd74;fill-opacity:1;stroke:none;stroke-width:0.52916664;stroke-linecap:round;stroke-linejoin:round;stroke-miterlimit:4;stroke-dasharray:none;stroke-dashoffset:0;stroke-opacity:1;paint-order:markers stroke fill"
       id="path828"
       cx="-267.45648"
       cy="51.425159"
       r="2.0045214" />
    <circle
       r="2.0045214"
       cy="51.425159"
       cx="-274.47235"
       id="circle830"
       style="opacity:1;vector-effect:none;fill:#31dd74;fill-opacity:1;stroke:none;stroke-width:0.52916664;stroke-linecap:round;stroke-linejoin:round;stroke-miterlimit:4;stroke-dasharray:none;stroke-dashoffset:0;stroke-opacity:1;paint-order:markers stroke fill" />
    <circle
       style="opacity:1;vector-effect:none;fill:#31dd74;fill-opacity:1;stroke:none;stroke-width:0.52916664;stroke-linecap:round;stroke-linejoin:round;stroke-miterlimit:4;stroke-dasharray:none;stroke-dashoffset:0;stroke-opacity:1;paint-order:markers stroke fill"
       id="circle832"
       cx="-260.44064"
       cy="51.425159"
       r="2.0045214" />
    <rect
       ry="1.7604057"
       y="55.478317"
       x="-270.12439"
       height="118.70943"
       width="116.89874"
       id="rect857"
       style="opacity:0.4;vector-effect:none;fill:#ffffff;fill-opacity:1;stroke:none;stroke-width:0.31556934;stroke-linecap:round;stroke-linejoin:round;stroke-miterlimit:4;stroke-dasharray:none;stroke-dashoffset:0;stroke-opacity:1;paint-order:markers stroke fill" />
    <path
       style="letter-spacing:-0.04em;fill:#022341;fill-opacity:1;stroke-width:0.05486999"
       inkscape:connector-curvature="0"
       id="path70"
       d="m -275.68907,63.650663 c 0.0521,0 0.0949,0.01648 0.12842,0.04997 0.0335,0.03349 0.0499,0.07627 0.0499,0.128391 v 1.069416 c 0,0.05213 -0.0164,0.09493 -0.0499,0.128398 -0.0335,0.03349 -0.0763,0.04989 -0.12842,0.04989 -0.0521,0 -0.0949,-0.01648 -0.12836,-0.04989 -0.0335,-0.03349 -0.05,-0.07627 -0.05,-0.128398 v -1.069416 c 0,-0.05213 0.0164,-0.09493 0.05,-0.128391 0.0334,-0.03349 0.0763,-0.04997 0.12836,-0.04997 z m 0,3.564357 c 0.0521,0 0.0949,0.01648 0.12842,0.04997 0.0335,0.03349 0.0499,0.07627 0.0499,0.128398 v 1.069416 c 0,0.05213 -0.0164,0.09493 -0.0499,0.128391 -0.0335,0.03349 -0.0763,0.04997 -0.12842,0.04997 -0.0521,0 -0.0949,-0.01648 -0.12836,-0.04997 -0.0335,-0.03349 -0.05,-0.07627 -0.05,-0.128391 v -1.069416 c 0,-0.05213 0.0164,-0.09493 0.05,-0.128398 0.0334,-0.03349 0.0763,-0.04997 0.12836,-0.04997 z m 2.49495,-1.069417 c 0,0.05213 -0.0164,0.09493 -0.0499,0.128398 -0.0335,0.03349 -0.0763,0.0499 -0.12841,0.0499 h -1.06941 c -0.0521,0 -0.0949,-0.01648 -0.12839,-0.0499 -0.0335,-0.03349 -0.05,-0.07627 -0.05,-0.128398 0,-0.05213 0.0165,-0.09493 0.05,-0.12839 0.0334,-0.03349 0.0763,-0.04997 0.12839,-0.04997 h 1.06941 c 0.0521,0 0.0949,0.01648 0.12841,0.04997 0.0335,0.03349 0.0499,0.07627 0.0499,0.12839 z m -3.56432,0 c 0,0.05213 -0.0166,0.09493 -0.05,0.128398 -0.0334,0.03349 -0.0763,0.0499 -0.12838,0.0499 h -1.06941 c -0.0521,0 -0.0949,-0.01648 -0.12841,-0.0499 -0.0335,-0.03349 -0.0499,-0.07627 -0.0499,-0.128398 0,-0.05213 0.0164,-0.09493 0.0499,-0.12839 0.0335,-0.03349 0.0763,-0.04997 0.12841,-0.04997 h 1.06941 c 0.0521,0 0.0949,0.01648 0.12838,0.04997 0.0335,0.03349 0.05,0.07627 0.05,0.12839 z m -0.69632,-1.765162 c 0.0373,-0.03349 0.0801,-0.04997 0.12839,-0.04997 0.0483,0 0.0889,0.01648 0.12236,0.04997 l 0.7572,0.7572 c 0.0335,0.03729 0.0499,0.07902 0.0499,0.125109 0,0.04609 -0.0176,0.08724 -0.0527,0.122357 -0.0351,0.03513 -0.0763,0.05325 -0.12236,0.05265 -0.0466,0 -0.0883,-0.017 -0.12509,-0.04989 l -0.75722,-0.757208 c -0.0335,-0.03349 -0.0499,-0.07406 -0.0499,-0.122357 0,-0.04833 0.0164,-0.09109 0.0499,-0.128397 v 0 z m 2.52292,2.522922 c 0.0373,-0.03729 0.079,-0.05601 0.1251,-0.05601 0.0461,0 0.0883,0.01865 0.12509,0.05601 l 0.75722,0.757201 c 0.0335,0.03349 0.0499,0.07406 0.0499,0.122364 0,0.04825 -0.0176,0.08998 -0.0526,0.125101 -0.0351,0.03513 -0.0768,0.05265 -0.12509,0.05265 -0.0483,0 -0.0889,-0.01648 -0.12236,-0.04989 l -0.7572,-0.757208 c -0.0373,-0.03729 -0.0559,-0.07901 -0.0559,-0.125102 0,-0.04609 0.0187,-0.08834 0.0559,-0.125101 z m 1.00795,-2.522922 c 0.0335,0.03729 0.05,0.08011 0.05,0.12839 0,0.04833 -0.0166,0.08889 -0.05,0.122364 l -0.75719,0.757201 c -0.0374,0.03349 -0.079,0.04989 -0.12511,0.04989 -0.0461,0 -0.0872,-0.01753 -0.12238,-0.05265 -0.0357,-0.03513 -0.0532,-0.07627 -0.0527,-0.122364 0,-0.04661 0.017,-0.08834 0.05,-0.125101 l 0.75718,-0.757208 c 0.0335,-0.03349 0.0741,-0.04989 0.12238,-0.04989 0.0483,0 0.0911,0.01648 0.1284,0.04989 v 0 z m -2.52292,2.522922 c 0.0373,0.03729 0.0559,0.07901 0.0559,0.125102 0,0.04609 -0.0187,0.08834 -0.0559,0.125101 l -0.7572,0.757208 c -0.0335,0.03349 -0.0741,0.04989 -0.12236,0.04989 -0.0483,0 -0.09,-0.0176 -0.12509,-0.05265 -0.0351,-0.03513 -0.0527,-0.07682 -0.0527,-0.125101 0,-0.04833 0.0164,-0.08889 0.0499,-0.122364 l 0.75722,-0.757201 c 0.0373,-0.03729 0.079,-0.05601 0.12509,-0.05601 0.0461,0 0.0883,0.01865 0.1251,0.05601 z"
       class="cls-12" />
    <rect
       style="opacity:0.5;vector-effect:none;fill:#ffffff;fill-opacity:1;stroke:none;stroke-width:0.52916664;stroke-linecap:round;stroke-linejoin:round;stroke-miterlimit:4;stroke-dasharray:none;stroke-dashoffset:0;stroke-opacity:1;paint-order:markers stroke fill"
       id="rect851"
       width="42.144348"
       height="11.811756"
       x="-264.14618"
       y="60.240036"
       ry="2.0890672" />
    <text
       id="text855"
       y="78.151894"
       x="-264.38309"
       style="font-style:normal;font-variant:normal;font-weight:500;font-stretch:normal;font-size:3.15865755px;line-height:2.46770144px;font-family:Poppins;-inkscape-font-specification:'Poppins, Medium';font-variant-ligatures:normal;font-variant-caps:normal;font-variant-numeric:normal;font-feature-settings:normal;text-align:start;letter-spacing:0px;word-spacing:0px;writing-mode:lr-tb;text-anchor:start;fill:#18725f;fill-opacity:1;stroke:none;stroke-width:0.09870805"
       xml:space="preserve"><tspan
         style="font-style:normal;font-variant:normal;font-weight:500;font-stretch:normal;font-size:3.15865755px;font-family:Poppins;-inkscape-font-specification:'Poppins, Medium';font-variant-ligatures:normal;font-variant-caps:normal;font-variant-numeric:normal;font-feature-settings:normal;text-align:start;writing-mode:lr-tb;text-anchor:start;fill:#18725f;fill-opacity:1;stroke-width:0.09870805"
         y="78.151894"
         x="-264.38309"
         id="tspan853"
         sodipodi:role="line">use halo2_proofs::plonk::ConstraintSystem</tspan></text>
    <text
       xml:space="preserve"
       style="font-style:normal;font-variant:normal;font-weight:500;font-stretch:normal;font-size:4.18464422px;line-height:3.26925349px;font-family:Poppins;-inkscape-font-specification:'Poppins, Medium';font-variant-ligatures:normal;font-variant-caps:normal;font-variant-numeric:normal;font-feature-settings:normal;text-align:start;letter-spacing:0px;word-spacing:0px;writing-mode:lr-tb;text-anchor:start;fill:#18725f;fill-opacity:1;stroke:none;stroke-width:0.13077013"
       x="-253.00401"
       y="67.48922"
       id="text849"><tspan
         sodipodi:role="line"
         id="tspan847"
         x="-253.00401"
         y="67.48922"
         style="font-style:normal;font-variant:normal;font-weight:500;font-stretch:normal;font-size:4.18464422px;font-family:Poppins;-inkscape-font-specification:'Poppins, Medium';font-variant-ligatures:normal;font-variant-caps:normal;font-variant-numeric:normal;font-feature-settings:normal;text-align:start;writing-mode:lr-tb;text-anchor:start;fill:#18725f;fill-opacity:1;stroke-width:0.13077013">circuit.rs</tspan></text>
    <rect
       style="opacity:1;vector-effect:none;fill:url(#linearGradient894);fill-opacity:1;stroke:none;stroke-width:0.75680745;stroke-linecap:round;stroke-linejoin:round;stroke-miterlimit:4;stroke-dasharray:none;stroke-dashoffset:0;stroke-opacity:1;paint-order:markers stroke fill"
       id="rect826-1"
       width="129.05453"
       height="129.59467"
       x="-280.72043"
       y="46.672226"
       ry="1.9218284" />
    <rect
       ry="1.4280752"
       y="-247.96529"
       x="-175.73773"
       height="96.299393"
       width="130.4855"
       id="rect896"
       style="opacity:1;vector-effect:none;fill:url(#linearGradient898);fill-opacity:1;stroke:none;stroke-width:0.65599138;stroke-linecap:round;stroke-linejoin:round;stroke-miterlimit:4;stroke-dasharray:none;stroke-dashoffset:0;stroke-opacity:1;paint-order:markers stroke fill"
       transform="rotate(-90)" />
    <path
       style="fill:#18725f;fill-opacity:1;stroke-width:0.00766159"
       d="m -258.52809,69.13417 c -0.02,-0.01054 -0.044,-0.04288 -0.10409,-0.140024 l -0.0781,-0.126316 -0.0338,-0.0059 -0.0338,-0.0059 -0.10962,0.114743 c -0.11981,0.1254 -0.13753,0.136169 -0.18429,0.111987 -0.0293,-0.01513 -0.0334,-0.0232 -0.0926,-0.181479 l -0.0476,-0.1273 -0.029,-0.0087 c -0.0159,-0.0047 -0.0329,-0.0087 -0.0376,-0.0087 -0.005,0 -0.0526,0.03167 -0.10638,0.07039 -0.14516,0.104539 -0.1473,0.105828 -0.17618,0.105828 -0.0197,0 -0.0328,-0.0064 -0.0512,-0.0249 -0.0236,-0.02391 -0.0257,-0.03081 -0.0493,-0.173959 -0.0136,-0.08199 -0.0254,-0.149651 -0.0263,-0.150375 -8e-4,-7.09e-4 -0.0154,-0.0082 -0.0323,-0.0166 l -0.0307,-0.01528 -0.13274,0.06031 c -0.16433,0.07467 -0.19855,0.07771 -0.22827,0.02024 -0.011,-0.02126 -0.0119,-0.04324 -0.006,-0.175111 l 0.006,-0.15081 -0.0263,-0.02004 c -0.0145,-0.01101 -0.0312,-0.02 -0.0371,-0.01995 -0.006,4.6e-5 -0.0689,0.01383 -0.13982,0.03065 -0.071,0.01681 -0.13751,0.03056 -0.14787,0.03056 -0.0451,0 -0.0794,-0.03635 -0.0794,-0.08404 0,-0.01212 0.0138,-0.07945 0.0307,-0.149635 0.0168,-0.07018 0.0307,-0.132244 0.0307,-0.137914 0,-0.0057 -0.01,-0.02142 -0.0208,-0.03498 l -0.0208,-0.02467 -0.15126,0.0054 c -0.17176,0.006 -0.19019,0.002 -0.21019,-0.04583 -0.0143,-0.03432 -0.0115,-0.04384 0.0556,-0.189711 0.031,-0.06729 0.0563,-0.126869 0.0563,-0.132406 0,-0.02116 -0.0268,-0.06485 -0.0417,-0.06823 -0.009,-0.002 -0.0726,-0.01231 -0.14213,-0.02303 -0.15354,-0.02366 -0.14804,-0.02206 -0.17205,-0.05058 -0.037,-0.04399 -0.0301,-0.06436 0.0688,-0.201957 0.0484,-0.06738 0.088,-0.125591 0.088,-0.129358 0,-0.02073 -0.0192,-0.06597 -0.0298,-0.07018 -0.006,-0.0026 -0.067,-0.02541 -0.13401,-0.05048 -0.14703,-0.05508 -0.14722,-0.05518 -0.1617,-0.08319 -0.0273,-0.0529 -0.0138,-0.07546 0.11757,-0.195524 l 0.10057,-0.09194 -0.002,-0.03817 -0.002,-0.03817 -0.12642,-0.07816 c -0.0747,-0.04616 -0.13207,-0.087 -0.14022,-0.09974 -0.0163,-0.0255 -0.0132,-0.0744 0.006,-0.0935 0.006,-0.0067 0.0682,-0.0471 0.13657,-0.08956 l 0.12425,-0.07721 0.002,-0.03772 0.002,-0.03773 -0.10451,-0.09576 c -0.12916,-0.118345 -0.14158,-0.139181 -0.11438,-0.19178 0.0139,-0.02684 0.0279,-0.03448 0.13778,-0.07478 0.18235,-0.06692 0.16912,-0.06006 0.17886,-0.09261 0.005,-0.01624 0.009,-0.03271 0.009,-0.03663 0,-0.0039 -0.0396,-0.06204 -0.0881,-0.129178 -0.0762,-0.105559 -0.0881,-0.126068 -0.0881,-0.151735 0,-0.02332 0.006,-0.03495 0.0249,-0.05432 0.0239,-0.02366 0.0308,-0.02562 0.17396,-0.04933 0.082,-0.01358 0.14965,-0.02542 0.15035,-0.02631 6.7e-4,-8.82e-4 0.009,-0.01514 0.0166,-0.03166 l 0.0152,-0.03004 -0.0589,-0.127212 c -0.0699,-0.150905 -0.0729,-0.160608 -0.0584,-0.195203 0.02,-0.04786 0.0384,-0.05187 0.2102,-0.04583 l 0.15125,0.0054 0.0208,-0.02467 c 0.0115,-0.01358 0.0208,-0.02926 0.0208,-0.03486 0,-0.0056 -0.0137,-0.06826 -0.0305,-0.139235 -0.0168,-0.07098 -0.0306,-0.141118 -0.0305,-0.155866 1.4e-4,-0.04171 0.0361,-0.07661 0.079,-0.07661 0.0103,0 0.077,0.01376 0.14798,0.03056 0.071,0.01681 0.13482,0.0306 0.14187,0.03064 0.006,4.6e-5 0.0237,-0.0091 0.0371,-0.02037 l 0.0243,-0.02046 -0.006,-0.15052 c -0.005,-0.131331 -0.004,-0.1536 0.006,-0.174685 0.0298,-0.05769 0.0673,-0.05436 0.23069,0.02057 l 0.13026,0.05971 0.0323,-0.01552 c 0.0227,-0.0109 0.0333,-0.02138 0.036,-0.03521 0.002,-0.01083 0.0131,-0.07789 0.0246,-0.149041 0.0233,-0.144875 0.0346,-0.168481 0.0843,-0.177817 0.0358,-0.0067 0.0451,-0.0017 0.17499,0.09238 0.0613,0.0444 0.11524,0.08071 0.12001,0.08071 0.005,0 0.0217,-0.0039 0.0378,-0.0087 l 0.029,-0.0087 0.0511,-0.136171 c 0.0281,-0.0749 0.0561,-0.143281 0.0621,-0.151972 0.006,-0.0087 0.0249,-0.01955 0.042,-0.02413 0.0455,-0.01224 0.0672,0.0029 0.17975,0.124885 0.0964,0.10452 0.0975,0.105458 0.12498,0.10092 0.0152,-0.0026 0.0314,-0.0057 0.0359,-0.0071 0.005,-0.0014 0.0434,-0.05934 0.0863,-0.128839 0.084,-0.136004 0.1066,-0.157632 0.15374,-0.147278 0.033,0.0072 0.0471,0.02433 0.12778,0.155014 0.0411,0.06653 0.075,0.121327 0.0754,0.121787 3.2e-4,4.73e-4 0.0166,0.003 0.0362,0.0055 l 0.0355,0.0047 0.10099,-0.110279 c 0.10352,-0.113032 0.1271,-0.130073 0.16857,-0.12178 0.0383,0.0076 0.0577,0.0393 0.10956,0.178949 0.0479,0.128817 0.0508,0.134437 0.0756,0.143223 0.0142,0.0051 0.031,0.0093 0.0372,0.0096 0.006,2.24e-4 0.0667,-0.0392 0.13407,-0.08761 0.13933,-0.100023 0.15923,-0.106546 0.20375,-0.06677 0.0232,0.02067 0.0248,0.02644 0.0491,0.173329 0.0158,0.09531 0.029,0.154554 0.0355,0.158943 0.0482,0.03241 0.041,0.03368 0.18561,-0.03206 0.15563,-0.07069 0.18029,-0.07498 0.21603,-0.03754 l 0.0224,0.02357 -0.003,0.157244 -0.003,0.157244 0.0212,0.02223 c 0.0117,0.01222 0.0274,0.02223 0.035,0.02223 0.008,0 0.0725,-0.01379 0.14429,-0.03064 0.0718,-0.01685 0.14119,-0.03064 0.15416,-0.03064 0.0316,0 0.0758,0.04314 0.0756,0.07393 -3e-5,0.01201 -0.015,0.08465 -0.0333,0.161425 l -0.0331,0.139589 0.0232,0.02814 0.0232,0.02814 0.15482,-0.0054 0.15482,-0.0054 0.0277,0.02424 c 0.0426,0.0374 0.039,0.06156 -0.033,0.218019 l -0.0599,0.130243 0.0156,0.03206 c 0.018,0.03696 0.006,0.03313 0.18157,0.06054 0.12876,0.02015 0.13507,0.02197 0.15898,0.04579 0.0182,0.01816 0.0249,0.0317 0.0249,0.05048 -2e-5,0.03046 -0.006,0.04094 -0.10225,0.174097 -0.0406,0.05635 -0.0739,0.106345 -0.0739,0.111093 2e-5,0.0047 0.004,0.02113 0.008,0.03641 0.008,0.02761 0.009,0.02804 0.13595,0.07574 0.16327,0.06107 0.16922,0.06424 0.18322,0.09775 0.0212,0.05058 0.009,0.07085 -0.11559,0.184509 -0.10984,0.100646 -0.11068,0.101653 -0.10675,0.12982 0.002,0.01561 0.005,0.03226 0.006,0.03698 8e-4,0.0047 0.0546,0.04061 0.11826,0.07973 0.15171,0.09328 0.1597,0.101587 0.15433,0.160672 -0.003,0.02917 -0.0231,0.04636 -0.145,0.121764 -0.0617,0.03821 -0.11627,0.07212 -0.12113,0.07538 -0.005,0.0032 -0.0111,0.02153 -0.014,0.04063 l -0.005,0.03474 0.10596,0.09864 c 0.0583,0.05425 0.11076,0.105387 0.1166,0.113624 0.006,0.0082 0.0106,0.02871 0.0106,0.04548 0,0.04815 -0.0249,0.06538 -0.17448,0.121077 -0.0716,0.02667 -0.13359,0.0514 -0.13767,0.05499 -0.004,0.0036 -0.0115,0.02024 -0.0163,0.03701 l -0.009,0.0305 0.0876,0.121952 c 0.0566,0.07865 0.0891,0.131017 0.0915,0.147487 0.005,0.03053 -0.0184,0.07223 -0.0455,0.08251 -0.01,0.0037 -0.0762,0.01594 -0.14748,0.02713 -0.0713,0.01119 -0.13571,0.02209 -0.14316,0.02422 -0.008,0.0021 -0.0205,0.01746 -0.0289,0.03404 l -0.0154,0.03016 0.0614,0.135952 c 0.0361,0.07988 0.0614,0.146161 0.0614,0.160703 0,0.01656 -0.008,0.03304 -0.0225,0.04977 l -0.0224,0.02502 -0.16337,-0.0018 -0.16337,-0.0018 -0.0205,0.0252 -0.0205,0.0252 0.0347,0.147461 c 0.0217,0.09188 0.0328,0.154909 0.0297,0.167223 -0.008,0.02988 -0.0451,0.06381 -0.0705,0.06354 -0.012,-1.23e-4 -0.0854,-0.01532 -0.16318,-0.03376 l -0.14151,-0.03353 -0.025,0.02035 -0.0252,0.02035 0.002,0.163399 0.002,0.163397 -0.025,0.02239 c -0.0392,0.03517 -0.0621,0.03101 -0.21395,-0.03893 l -0.13312,-0.06132 -0.0298,0.01522 c -0.0163,0.0084 -0.0315,0.02131 -0.0336,0.02876 -0.002,0.0075 -0.013,0.07042 -0.024,0.139951 -0.0111,0.06952 -0.0239,0.136015 -0.0284,0.147746 -0.0115,0.02967 -0.0419,0.05145 -0.0718,0.05145 -0.0265,0 -0.05,-0.0143 -0.19842,-0.121235 -0.042,-0.03024 -0.0816,-0.05479 -0.0881,-0.05455 -0.006,2.39e-4 -0.0233,0.0046 -0.0375,0.0096 -0.0248,0.0088 -0.0277,0.01442 -0.0756,0.143223 -0.0274,0.07374 -0.0554,0.140586 -0.0623,0.148543 -0.006,0.008 -0.0239,0.01933 -0.038,0.02527 -0.0446,0.01885 -0.0652,0.0054 -0.17735,-0.116219 l -0.10205,-0.110621 -0.0353,0.0046 c -0.0193,0.0026 -0.0356,0.005 -0.0361,0.0055 -3.3e-4,4.72e-4 -0.034,0.0544 -0.0744,0.119882 -0.0404,0.06548 -0.0815,0.12662 -0.0914,0.135876 -0.0253,0.02385 -0.0579,0.02809 -0.0891,0.01162 z m 0.26347,-0.792122 c 0.11369,-0.0107 0.29185,-0.04687 0.39667,-0.0805 0.071,-0.02283 0.23248,-0.08393 0.24177,-0.09156 8e-4,-0.0011 0.009,-0.03154 0.0168,-0.06756 l 0.0143,-0.06548 -0.0225,-0.04436 c -0.0773,-0.152273 -0.054,-0.324114 0.0605,-0.448123 l 0.041,-0.04443 h -0.10303 c -0.0997,0 -0.10457,-7.77e-4 -0.15006,-0.0235 -0.0984,-0.04918 -0.20354,-0.19772 -0.23819,-0.336595 -0.008,-0.0316 -0.0306,-0.136692 -0.0504,-0.23353 -0.039,-0.190645 -0.0528,-0.23556 -0.0891,-0.290228 -0.0465,-0.07013 -0.13283,-0.126025 -0.22045,-0.142641 -0.0233,-0.0044 -0.16238,-0.0078 -0.31984,-0.0078 h -0.2786 v 0.19537 0.195371 h 0.26351 c 0.2332,0 0.26403,0.0014 0.26815,0.01211 0.006,0.01583 0.006,0.60351 0,0.619336 -0.004,0.01095 -0.0883,0.01211 -0.87342,0.01211 -0.47783,0 -0.86875,0.0026 -0.86873,0.0057 7e-5,0.0078 0.12208,0.152741 0.1555,0.184681 l 0.0269,0.02571 0.1845,-0.03911 c 0.10148,-0.02151 0.19328,-0.0391 0.204,-0.0391 0.0471,0 0.11537,0.04715 0.13424,0.09268 0.005,0.01195 0.0285,0.113633 0.0526,0.225968 l 0.0436,0.204246 0.0484,0.02198 c 0.0774,0.03509 0.24002,0.08946 0.32874,0.109839 0.26209,0.06021 0.46952,0.07418 0.73297,0.04938 z m -1.43933,-0.154412 c 0.0409,-0.01789 0.0647,-0.03842 0.0854,-0.07384 0.0168,-0.02872 0.0208,-0.04471 0.0208,-0.08571 0,-0.06834 -0.0282,-0.115727 -0.0872,-0.146546 -0.0738,-0.03852 -0.15278,-0.02442 -0.20827,0.03712 -0.0966,0.107167 -0.0182,0.277788 0.12793,0.278412 0.0216,9.3e-5 0.0492,-0.0042 0.0613,-0.0094 z m 2.86661,-0.638863 c 0.0177,-0.02166 0.0323,-0.04148 0.0323,-0.04405 0,-0.0026 -0.0503,-0.0046 -0.11186,-0.0046 h -0.11186 l 0.0394,0.04313 c 0.0217,0.02372 0.0467,0.05584 0.0557,0.07139 l 0.0163,0.02826 0.0239,-0.02733 c 0.0131,-0.01503 0.0384,-0.04505 0.0562,-0.0667 z m 0.0573,-0.736829 c 0.0573,-0.02824 0.0837,-0.05565 0.11191,-0.116374 0.0173,-0.0374 0.0199,-0.05419 0.0226,-0.149402 0.002,-0.059 0.006,-0.113295 0.0101,-0.12067 0.006,-0.01185 0.0203,-0.01341 0.12091,-0.01341 0.0967,0 0.11454,-0.0018 0.11849,-0.01211 0.006,-0.01603 0.006,-0.222797 -2.5e-4,-0.296436 l -0.005,-0.05804 -0.18854,-0.08244 c -0.10371,-0.04535 -0.20112,-0.09024 -0.21646,-0.09976 -0.0505,-0.03134 -0.0812,-0.09463 -0.0724,-0.149376 0.003,-0.01652 0.0516,-0.135257 0.10867,-0.263863 l 0.10384,-0.233828 -0.0209,-0.03607 c -0.27802,-0.478595 -0.79101,-0.848522 -1.35155,-0.974637 l -0.0652,-0.01465 -0.0575,0.05557 c -0.19511,0.188679 -0.25203,0.240533 -0.27698,0.252336 -0.0374,0.01766 -0.0993,0.01705 -0.13514,-0.0014 -0.0156,-0.008 -0.0577,-0.04509 -0.0933,-0.08237 -0.0356,-0.03727 -0.099,-0.103045 -0.14079,-0.146166 l -0.0759,-0.0784 -0.0929,0.02232 c -0.37629,0.09044 -0.69721,0.267422 -0.97284,0.536524 l -0.10613,0.103619 1.16343,0.0038 1.16343,0.0038 0.0741,0.02047 c 0.13682,0.03781 0.27524,0.108467 0.37263,0.190222 0.12985,0.109017 0.22072,0.288305 0.22898,0.451762 0.003,0.06305 8.1e-4,0.08228 -0.0162,0.140357 -0.0354,0.120166 -0.0823,0.206762 -0.16436,0.303757 -0.0403,0.04767 -0.13858,0.127952 -0.19977,0.163201 l -0.0417,0.02402 0.0219,0.01583 c 0.13331,0.09644 0.22825,0.222418 0.27867,0.36979 0.009,0.02612 0.0229,0.08432 0.031,0.12933 0.0132,0.07383 0.0172,0.08441 0.041,0.108146 0.0148,0.0149 0.0476,0.03442 0.0754,0.04501 0.0419,0.01594 0.0601,0.01837 0.12255,0.01652 0.0649,-0.0019 0.0793,-0.0051 0.12403,-0.02709 z m -3.12797,-0.648855 V 65.4927 h -0.14883 -0.14884 l 0.0431,0.09769 c 0.0513,0.116471 0.0552,0.154679 0.0218,0.211824 -0.0255,0.04356 -0.0421,0.05309 -0.25599,0.146752 -0.1129,0.04944 -0.17393,0.08026 -0.17995,0.09085 -0.015,0.02639 -0.0116,0.377673 0.005,0.494862 0.0136,0.09732 0.0432,0.239474 0.0579,0.277737 l 0.008,0.02107 h 0.299 0.29899 z m 1.72209,-0.275876 c 0.12209,-0.02879 0.18564,-0.08949 0.18564,-0.177323 0,-0.0722 -0.047,-0.132401 -0.13385,-0.171536 -0.08,-0.03606 -0.10429,-0.03799 -0.47945,-0.03799 h -0.35206 v 0.199201 0.1992 l 0.36584,-1.13e-4 c 0.29571,-9.1e-5 0.37505,-0.0023 0.41388,-0.01144 z m 1.69988,-0.164725 c 0.0249,-0.01559 0.041,-0.0487 0.041,-0.0845 0,-0.10839 -0.13501,-0.14429 -0.19189,-0.05103 -0.0346,0.05694 -8e-4,0.136752 0.0633,0.150382 0.0285,0.0061 0.0637,1.17e-4 0.0876,-0.01486 z m -1.92747,-1.499696 c 0.0596,-0.03016 0.0877,-0.07749 0.0877,-0.147486 0,-0.06999 -0.0281,-0.117326 -0.0877,-0.147486 -0.11721,-0.05943 -0.24934,0.01904 -0.24837,0.147486 8e-4,0.129662 0.13111,0.206934 0.24837,0.147486 z"
       id="path867"
       inkscape:connector-curvature="0" />
  </g>
</svg>
