<?xml version="1.0" encoding="UTF-8" standalone="no"?>
<svg
   xmlns:dc="http://purl.org/dc/elements/1.1/"
   xmlns:cc="http://creativecommons.org/ns#"
   xmlns:rdf="http://www.w3.org/1999/02/22-rdf-syntax-ns#"
   xmlns:svg="http://www.w3.org/2000/svg"
   xmlns="http://www.w3.org/2000/svg"
   xmlns:sodipodi="http://sodipodi.sourceforge.net/DTD/sodipodi-0.dtd"
   xmlns:inkscape="http://www.inkscape.org/namespaces/inkscape"
   id="Layer_1"
   viewBox="0 0 1070.5348 775.79022"
   version="1.1"
   sodipodi:docname="track record.svg"
   inkscape:version="0.92.4 (5da689c313, 2019-01-14)"
   width="1070.5348"
   height="775.79022">
  <metadata
     id="metadata97">
    <rdf:RDF>
      <cc:Work
         rdf:about="">
        <dc:format>image/svg+xml</dc:format>
        <dc:type
           rdf:resource="http://purl.org/dc/dcmitype/StillImage" />
        <dc:title></dc:title>
      </cc:Work>
    </rdf:RDF>
  </metadata>
  <sodipodi:namedview
     pagecolor="#ffffff"
     bordercolor="#666666"
     borderopacity="1"
     objecttolerance="10"
     gridtolerance="10"
     guidetolerance="10"
     inkscape:pageopacity="0"
     inkscape:pageshadow="2"
     inkscape:window-width="1920"
     inkscape:window-height="991"
     id="namedview95"
     showgrid="false"
     inkscape:zoom="0.38358391"
     inkscape:cx="198.34981"
     inkscape:cy="400.21934"
     inkscape:window-x="-9"
     inkscape:window-y="-9"
     inkscape:window-maximized="1"
     inkscape:current-layer="Layer_1"
     fit-margin-top="0"
     fit-margin-left="0"
     fit-margin-right="0"
     fit-margin-bottom="0" />
  <defs
     id="defs4">
    <style
       id="style2">.cls-1{font-size:66px;}.cls-1,.cls-2{fill:#080444;font-family:Mont-Bold, Mont;}.cls-3{letter-spacing:-.09em;}.cls-4{letter-spacing:0em;}.cls-5{letter-spacing:-.04em;}.cls-6{fill:#fff;}.cls-7,.cls-8{fill:#31dd74;}.cls-9{fill:#d7cdee;}.cls-10{fill:#3ee680;}.cls-11{fill:#18725f;}.cls-12{fill:#39e180;}.cls-13{letter-spacing:-.02em;}.cls-14{letter-spacing:-.02em;}.cls-15{letter-spacing:-.01em;}.cls-16{fill:#6cf1c7;}.cls-16,.cls-8,.cls-17,.cls-18{stroke:#022341;stroke-width:4.63px;}.cls-16,.cls-8,.cls-17,.cls-18,.cls-19{stroke-linecap:round;stroke-miterlimit:10;}.cls-17{fill:#022341;}.cls-18,.cls-19{fill:none;}.cls-20{letter-spacing:-.01em;}.cls-21{letter-spacing:-.01em;}.cls-22{letter-spacing:-.01em;}.cls-2{font-size:46.77px;}.cls-23{letter-spacing:-.02em;}.cls-19{stroke:#31dd74;stroke-width:5px;}.cls-24{letter-spacing:-.02em;}.cls-25{letter-spacing:-.03em;}.cls-26{letter-spacing:-.01em;}.cls-27{letter-spacing:0em;}</style>
  </defs>
  <g
     id="g1003"
     transform="translate(-54.972684,-332.49921)">
    <line
       style="fill:none;stroke:#31dd74;stroke-width:5px;stroke-linecap:round;stroke-miterlimit:10"
       id="line8"
       y2="1054.1083"
       x2="119.90974"
       y1="1054.1083"
       x1="1077.1097"
       class="cls-19" />
    <line
       id="line10"
       y2="949.40002"
       x2="125.44"
       y1="949.40002"
       x1="1082.64"
       class="cls-19"
       style="fill:none;stroke:#31dd74;stroke-width:5px;stroke-linecap:round;stroke-miterlimit:10" />
    <line
       id="line12"
       y2="845.15002"
       x2="125.44"
       y1="845.15002"
       x1="1082.64"
       class="cls-19"
       style="fill:none;stroke:#31dd74;stroke-width:5px;stroke-linecap:round;stroke-miterlimit:10" />
    <line
       style="fill:none;stroke:#31dd74;stroke-width:5px;stroke-linecap:round;stroke-miterlimit:10"
       id="line14"
       y2="740.90997"
       x2="125.44"
       y1="740.90997"
       x1="1082.64"
       class="cls-19" />
    <line
       style="fill:none;stroke:#31dd74;stroke-width:4.43002224px;stroke-linecap:round;stroke-miterlimit:10"
       id="line16"
       y2="1106.0428"
       x2="167.14917"
       y1="354.63721"
       x1="167.14917"
       class="cls-19" />
    <path
       id="path68"
       d="m 1124.06,910.94 c 1.93,0 1.93,-3 0,-3 -1.93,0 -1.93,3 0,3 z"
       class="cls-9"
       inkscape:connector-curvature="0"
       style="fill:#d7cdee" />
    <path
       style="fill:#39e180"
       inkscape:connector-curvature="0"
       id="path70"
       d="m 927.74867,332.49921 c 0.95,0 1.73,0.3 2.34,0.91 0.61,0.61 0.91,1.39 0.91,2.34 v 19.49 c 0,0.95 -0.3,1.73 -0.91,2.34 -0.61,0.61 -1.39,0.91 -2.34,0.91 -0.95,0 -1.73,-0.3 -2.34,-0.91 -0.61,-0.61 -0.91,-1.39 -0.91,-2.34 v -19.49 c 0,-0.95 0.3,-1.73 0.91,-2.34 0.61,-0.61 1.39,-0.91 2.34,-0.91 z m 0,64.96 c 0.95,0 1.73,0.3 2.34,0.91 0.61,0.61 0.91,1.39 0.91,2.34 v 19.49 c 0,0.95 -0.3,1.73 -0.91,2.34 -0.61,0.61 -1.39,0.91 -2.34,0.91 -0.95,0 -1.73,-0.3 -2.34,-0.91 -0.61,-0.61 -0.91,-1.39 -0.91,-2.34 v -19.49 c 0,-0.95 0.3,-1.73 0.91,-2.34 0.61,-0.61 1.39,-0.91 2.34,-0.91 z m 45.47,-19.49 c 0,0.95 -0.3,1.73 -0.91,2.34 -0.61,0.61 -1.39,0.91 -2.34,0.91 h -19.49 c -0.95,0 -1.73,-0.3 -2.34,-0.91 -0.61,-0.61 -0.91,-1.39 -0.91,-2.34 0,-0.95 0.3,-1.73 0.91,-2.34 0.61,-0.61 1.39,-0.91 2.34,-0.91 h 19.49 c 0.95,0 1.73,0.3 2.34,0.91 0.61,0.61 0.91,1.39 0.91,2.34 z m -64.96,0 c 0,0.95 -0.3,1.73 -0.91,2.34 -0.61,0.61 -1.39,0.91 -2.34,0.91 h -19.49 c -0.95,0 -1.73,-0.3 -2.34,-0.91 -0.61,-0.61 -0.91,-1.39 -0.91,-2.34 0,-0.95 0.3,-1.73 0.91,-2.34 0.61,-0.61 1.39,-0.91 2.34,-0.91 h 19.49 c 0.95,0 1.73,0.3 2.34,0.91 0.61,0.61 0.91,1.39 0.91,2.34 z m -12.69,-32.17 c 0.68,-0.61 1.46,-0.91 2.34,-0.91 0.88,0 1.62,0.3 2.23,0.91 l 13.8,13.8 c 0.61,0.68 0.91,1.44 0.91,2.28 0,0.84 -0.32,1.59 -0.96,2.23 -0.64,0.64 -1.39,0.97 -2.23,0.96 -0.85,0 -1.61,-0.31 -2.28,-0.91 l -13.8,-13.8 c -0.61,-0.61 -0.91,-1.35 -0.91,-2.23 0,-0.88 0.3,-1.66 0.91,-2.34 v 0 z m 45.98,45.98 c 0.68,-0.68 1.44,-1.02 2.28,-1.02 0.84,0 1.61,0.34 2.28,1.02 l 13.8,13.8 c 0.61,0.61 0.91,1.35 0.91,2.23 0,0.88 -0.32,1.64 -0.96,2.28 -0.64,0.64 -1.4,0.96 -2.28,0.96 -0.88,0 -1.62,-0.3 -2.23,-0.91 l -13.8,-13.8 c -0.68,-0.68 -1.02,-1.44 -1.02,-2.28 0,-0.84 0.34,-1.61 1.02,-2.28 z m 18.37,-45.98 c 0.61,0.68 0.91,1.46 0.91,2.34 0,0.88 -0.3,1.62 -0.91,2.23 l -13.8,13.8 c -0.68,0.61 -1.44,0.91 -2.28,0.91 -0.84,0 -1.59,-0.32 -2.23,-0.96 -0.65,-0.64 -0.97,-1.39 -0.96,-2.23 0,-0.85 0.31,-1.61 0.91,-2.28 l 13.8,-13.8 c 0.61,-0.61 1.35,-0.91 2.23,-0.91 0.88,0 1.66,0.3 2.34,0.91 v 0 z m -45.98,45.98 c 0.68,0.68 1.02,1.44 1.02,2.28 0,0.84 -0.34,1.61 -1.02,2.28 l -13.8,13.8 c -0.61,0.61 -1.35,0.91 -2.23,0.91 -0.88,0 -1.64,-0.32 -2.28,-0.96 -0.64,-0.64 -0.96,-1.4 -0.96,-2.28 0,-0.88 0.3,-1.62 0.91,-2.23 l 13.8,-13.8 c 0.68,-0.68 1.44,-1.02 2.28,-1.02 0.84,0 1.61,0.34 2.28,1.02 z"
       class="cls-12" />
    <rect
       style="fill:#022341;stroke:#022341;stroke-width:4.06312943px;stroke-linecap:round;stroke-miterlimit:10"
       id="rect72"
       transform="rotate(90)"
       height="86.349998"
       width="387.29419"
       y="-795.32001"
       x="662.36584"
       class="cls-17" />
    <rect
       style="fill:#31dd74;stroke-width:0.83711332"
       id="rect74"
       transform="rotate(90)"
       height="86.349998"
       width="271.96445"
       y="-435.23999"
       x="781.46552"
       class="cls-7" />
    <rect
       style="fill:#18725f;stroke-width:0.80328852"
       id="rect76"
       transform="rotate(90)"
       height="86.349998"
       width="194.49156"
       y="-255.20001"
       x="857.75842"
       class="cls-11" />
    <g
       transform="matrix(1.0102488,0,0,0.64761467,-5.8634005,371.51482)"
       id="g92">
      <rect
         style="fill:#6cf1c7;stroke:#022341;stroke-width:4.63000011px;stroke-linecap:round;stroke-miterlimit:10"
         id="rect86"
         transform="rotate(-90,572.1,824.11)"
         height="86.349998"
         width="457.84"
         y="780.94"
         x="343.17999"
         class="cls-16" />
      <line
         style="fill:none;stroke:#022341;stroke-width:4.63000011px;stroke-linecap:round;stroke-miterlimit:10"
         id="line88"
         y2="710.62"
         x2="583.60999"
         y1="733.08002"
         x1="612.65002"
         class="cls-18" />
      <line
         style="fill:none;stroke:#022341;stroke-width:4.63000011px;stroke-linecap:round;stroke-miterlimit:10"
         id="line90"
         y2="662.09003"
         x2="560.37"
         y1="703.42999"
         x1="613.82001"
         class="cls-18" />
    </g>
    <line
       style="fill:none;stroke:#31dd74;stroke-width:5px;stroke-linecap:round;stroke-miterlimit:10"
       class="cls-19"
       x1="1082.64"
       y1="642.19812"
       x2="125.44002"
       y2="642.19812"
       id="line904" />
    <line
       id="line906"
       y2="444.77441"
       x2="125.44002"
       y1="444.77441"
       x1="1082.64"
       class="cls-19"
       style="fill:none;stroke:#31dd74;stroke-width:5px;stroke-linecap:round;stroke-miterlimit:10" />
    <line
       style="fill:none;stroke:#31dd74;stroke-width:5px;stroke-linecap:round;stroke-miterlimit:10"
       class="cls-19"
       x1="1082.64"
       y1="543.48627"
       x2="125.44002"
       y2="543.48627"
       id="line908" />
    <text
       id="text912"
       y="1095.8982"
       x="207.01701"
       style="font-style:normal;font-variant:normal;font-weight:600;font-stretch:normal;font-size:32px;line-height:25px;font-family:Poppins;-inkscape-font-specification:'Poppins, Semi-Bold';font-variant-ligatures:normal;font-variant-caps:normal;font-variant-numeric:normal;font-feature-settings:normal;text-align:start;letter-spacing:0px;word-spacing:0px;writing-mode:lr-tb;text-anchor:start;fill:#cccccc;fill-opacity:1;stroke:none"
       xml:space="preserve"><tspan
         y="1095.8982"
         x="207.01701"
         id="tspan910"
         sodipodi:role="line">1</tspan></text>
    <text
       id="text916"
       y="1096.3142"
       x="378.95053"
       style="font-style:normal;font-variant:normal;font-weight:600;font-stretch:normal;font-size:32px;line-height:25px;font-family:Poppins;-inkscape-font-specification:'Poppins, Semi-Bold';font-variant-ligatures:normal;font-variant-caps:normal;font-variant-numeric:normal;font-feature-settings:normal;text-align:start;letter-spacing:0px;word-spacing:0px;writing-mode:lr-tb;text-anchor:start;fill:#cccccc;fill-opacity:1;stroke:none"
       xml:space="preserve"><tspan
         y="1096.3142"
         x="378.95053"
         id="tspan914"
         sodipodi:role="line">2</tspan></text>
    <text
       id="text920"
       y="1096.0902"
       x="559.23602"
       style="font-style:normal;font-variant:normal;font-weight:600;font-stretch:normal;font-size:32px;line-height:25px;font-family:Poppins;-inkscape-font-specification:'Poppins, Semi-Bold';font-variant-ligatures:normal;font-variant-caps:normal;font-variant-numeric:normal;font-feature-settings:normal;text-align:start;letter-spacing:0px;word-spacing:0px;writing-mode:lr-tb;text-anchor:start;fill:#cccccc;fill-opacity:1;stroke:none"
       xml:space="preserve"><tspan
         y="1096.0902"
         x="559.23602"
         id="tspan918"
         sodipodi:role="line">3</tspan></text>
    <text
       id="text924"
       y="1095.7542"
       x="739.52148"
       style="font-style:normal;font-variant:normal;font-weight:600;font-stretch:normal;font-size:32px;line-height:25px;font-family:Poppins;-inkscape-font-specification:'Poppins, Semi-Bold';font-variant-ligatures:normal;font-variant-caps:normal;font-variant-numeric:normal;font-feature-settings:normal;text-align:start;letter-spacing:0px;word-spacing:0px;writing-mode:lr-tb;text-anchor:start;fill:#cccccc;fill-opacity:1;stroke:none"
       xml:space="preserve"><tspan
         y="1095.7542"
         x="739.52148"
         id="tspan922"
         sodipodi:role="line">4</tspan></text>
    <text
       id="text928"
       y="1095.9302"
       x="921.47101"
       style="font-style:normal;font-variant:normal;font-weight:600;font-stretch:normal;font-size:32px;line-height:25px;font-family:Poppins;-inkscape-font-specification:'Poppins, Semi-Bold';font-variant-ligatures:normal;font-variant-caps:normal;font-variant-numeric:normal;font-feature-settings:normal;text-align:start;letter-spacing:0px;word-spacing:0px;writing-mode:lr-tb;text-anchor:start;fill:#cccccc;fill-opacity:1;stroke:none"
       xml:space="preserve"><tspan
         y="1095.9302"
         x="921.47101"
         id="tspan926"
         sodipodi:role="line">5</tspan></text>
    <text
       xml:space="preserve"
       style="font-style:normal;font-variant:normal;font-weight:600;font-stretch:normal;font-size:32px;line-height:25px;font-family:Poppins;-inkscape-font-specification:'Poppins, Semi-Bold';font-variant-ligatures:normal;font-variant-caps:normal;font-variant-numeric:normal;font-feature-settings:normal;text-align:start;letter-spacing:0px;word-spacing:0px;writing-mode:lr-tb;text-anchor:start;fill:#cccccc;fill-opacity:1;stroke:none"
       x="62.630436"
       y="964.59717"
       id="text932"><tspan
         sodipodi:role="line"
         id="tspan930"
         x="62.630436"
         y="964.59717">5</tspan></text>
    <text
       id="text936"
       y="863.14294"
       x="57.489185"
       style="font-style:normal;font-variant:normal;font-weight:600;font-stretch:normal;font-size:32px;line-height:25px;font-family:Poppins;-inkscape-font-specification:'Poppins, Semi-Bold';font-variant-ligatures:normal;font-variant-caps:normal;font-variant-numeric:normal;font-feature-settings:normal;text-align:start;letter-spacing:0px;word-spacing:0px;writing-mode:lr-tb;text-anchor:start;fill:#cccccc;fill-opacity:1;stroke:none"
       xml:space="preserve"><tspan
         y="863.14294"
         x="57.489185"
         id="tspan934"
         sodipodi:role="line">10</tspan></text>
    <text
       xml:space="preserve"
       style="font-style:normal;font-variant:normal;font-weight:600;font-stretch:normal;font-size:32px;line-height:25px;font-family:Poppins;-inkscape-font-specification:'Poppins, Semi-Bold';font-variant-ligatures:normal;font-variant-caps:normal;font-variant-numeric:normal;font-feature-settings:normal;text-align:start;letter-spacing:0px;word-spacing:0px;writing-mode:lr-tb;text-anchor:start;fill:#cccccc;fill-opacity:1;stroke:none"
       x="57.537186"
       y="761.30469"
       id="text940"><tspan
         sodipodi:role="line"
         id="tspan938"
         x="57.537186"
         y="761.30469">15</tspan></text>
    <text
       id="text944"
       y="659.91443"
       x="53.954933"
       style="font-style:normal;font-variant:normal;font-weight:600;font-stretch:normal;font-size:32px;line-height:25px;font-family:Poppins;-inkscape-font-specification:'Poppins, Semi-Bold';font-variant-ligatures:normal;font-variant-caps:normal;font-variant-numeric:normal;font-feature-settings:normal;text-align:start;letter-spacing:0px;word-spacing:0px;writing-mode:lr-tb;text-anchor:start;fill:#cccccc;fill-opacity:1;stroke:none"
       xml:space="preserve"><tspan
         y="659.91443"
         x="53.954933"
         id="tspan942"
         sodipodi:role="line">20</tspan></text>
    <text
       xml:space="preserve"
       style="font-style:normal;font-variant:normal;font-weight:600;font-stretch:normal;font-size:32px;line-height:25px;font-family:Poppins;-inkscape-font-specification:'Poppins, Semi-Bold';font-variant-ligatures:normal;font-variant-caps:normal;font-variant-numeric:normal;font-feature-settings:normal;text-align:start;letter-spacing:0px;word-spacing:0px;writing-mode:lr-tb;text-anchor:start;fill:#cccccc;fill-opacity:1;stroke:none"
       x="54.002934"
       y="558.01215"
       id="text948"><tspan
         sodipodi:role="line"
         id="tspan946"
         x="54.002934"
         y="558.01215">25</tspan></text>
    <text
       id="text952"
       y="1066.4354"
       x="62.998436"
       style="font-style:normal;font-variant:normal;font-weight:600;font-stretch:normal;font-size:32px;line-height:25px;font-family:Poppins;-inkscape-font-specification:'Poppins, Semi-Bold';font-variant-ligatures:normal;font-variant-caps:normal;font-variant-numeric:normal;font-feature-settings:normal;text-align:start;letter-spacing:0px;word-spacing:0px;writing-mode:lr-tb;text-anchor:start;fill:#cccccc;fill-opacity:1;stroke:none"
       xml:space="preserve"><tspan
         y="1066.4354"
         x="62.998436"
         id="tspan950"
         sodipodi:role="line">0</tspan></text>
    <text
       id="text956"
       y="455.94986"
       x="53.532684"
       style="font-style:normal;font-variant:normal;font-weight:600;font-stretch:normal;font-size:32px;line-height:25px;font-family:Poppins;-inkscape-font-specification:'Poppins, Semi-Bold';font-variant-ligatures:normal;font-variant-caps:normal;font-variant-numeric:normal;font-feature-settings:normal;text-align:start;letter-spacing:0px;word-spacing:0px;writing-mode:lr-tb;text-anchor:start;fill:#cccccc;fill-opacity:1;stroke:none"
       xml:space="preserve"><tspan
         y="455.94986"
         x="53.532684"
         id="tspan954"
         sodipodi:role="line">30</tspan></text>
    <g
       id="g84">
      <rect
         id="rect78"
         transform="rotate(-90,932.18,753.32)"
         height="86.349998"
         width="598.59003"
         y="710.14001"
         x="632.89001"
         class="cls-8"
         style="fill:#31dd74;stroke:#022341;stroke-width:4.63000011px;stroke-linecap:round;stroke-miterlimit:10" />
      <line
         id="line80"
         y2="588.21997"
         x2="939.53003"
         y1="614.28003"
         x1="973.21997"
         class="cls-18"
         style="fill:none;stroke:#022341;stroke-width:4.63000011px;stroke-linecap:round;stroke-miterlimit:10" />
      <line
         id="line82"
         y2="544.33002"
         x2="918.03998"
         y1="586.10999"
         x1="972.06"
         class="cls-18"
         style="fill:none;stroke:#022341;stroke-width:4.63000011px;stroke-linecap:round;stroke-miterlimit:10" />
    </g>
  </g>
</svg>
