<?xml version="1.0" encoding="UTF-8" standalone="no"?>
<!-- Created with Inkscape (http://www.inkscape.org/) -->

<svg
   xmlns:dc="http://purl.org/dc/elements/1.1/"
   xmlns:cc="http://creativecommons.org/ns#"
   xmlns:rdf="http://www.w3.org/1999/02/22-rdf-syntax-ns#"
   xmlns:svg="http://www.w3.org/2000/svg"
   xmlns="http://www.w3.org/2000/svg"
   xmlns:sodipodi="http://sodipodi.sourceforge.net/DTD/sodipodi-0.dtd"
   xmlns:inkscape="http://www.inkscape.org/namespaces/inkscape"
   width="135.46666mm"
   height="95.761497mm"
   viewBox="0 0 135.46666 95.761497"
   version="1.1"
   id="svg8"
   inkscape:version="0.92.4 (5da689c313, 2019-01-14)"
   sodipodi:docname="youtube.svg">
  <defs
     id="defs2">
    <style
       id="style2">.cls-1{font-size:66px;}.cls-1,.cls-2{fill:#080444;font-family:Mont-Bold, Mont;}.cls-3{letter-spacing:-.09em;}.cls-4{letter-spacing:0em;}.cls-5{letter-spacing:-.04em;}.cls-6{fill:#fff;}.cls-7,.cls-8{fill:#31dd74;}.cls-9{fill:#d7cdee;}.cls-10{fill:#3ee680;}.cls-11{fill:#18725f;}.cls-12{fill:#39e180;}.cls-13{letter-spacing:-.02em;}.cls-14{letter-spacing:-.02em;}.cls-15{letter-spacing:-.01em;}.cls-16{fill:#6cf1c7;}.cls-16,.cls-8,.cls-17,.cls-18{stroke:#022341;stroke-width:4.63px;}.cls-16,.cls-8,.cls-17,.cls-18,.cls-19{stroke-linecap:round;stroke-miterlimit:10;}.cls-17{fill:#022341;}.cls-18,.cls-19{fill:none;}.cls-20{letter-spacing:-.01em;}.cls-21{letter-spacing:-.01em;}.cls-22{letter-spacing:-.01em;}.cls-2{font-size:46.77px;}.cls-23{letter-spacing:-.02em;}.cls-19{stroke:#31dd74;stroke-width:5px;}.cls-24{letter-spacing:-.02em;}.cls-25{letter-spacing:-.03em;}.cls-26{letter-spacing:-.01em;}.cls-27{letter-spacing:0em;}</style>
  </defs>
  <sodipodi:namedview
     id="base"
     pagecolor="#ffffff"
     bordercolor="#666666"
     borderopacity="1.0"
     inkscape:pageopacity="0.0"
     inkscape:pageshadow="2"
     inkscape:zoom="0.35"
     inkscape:cx="145.44141"
     inkscape:cy="12.179154"
     inkscape:document-units="mm"
     inkscape:current-layer="layer1"
     showgrid="false"
     fit-margin-top="0"
     fit-margin-left="0"
     fit-margin-right="0"
     fit-margin-bottom="0"
     inkscape:window-width="1920"
     inkscape:window-height="991"
     inkscape:window-x="-9"
     inkscape:window-y="-9"
     inkscape:window-maximized="1" />
  <metadata
     id="metadata5">
    <rdf:RDF>
      <cc:Work
         rdf:about="">
        <dc:format>image/svg+xml</dc:format>
        <dc:type
           rdf:resource="http://purl.org/dc/dcmitype/StillImage" />
        <dc:title></dc:title>
      </cc:Work>
    </rdf:RDF>
  </metadata>
  <g
     inkscape:label="Layer 1"
     inkscape:groupmode="layer"
     id="layer1"
     transform="translate(-37.344056,-109.26166)">
    <path
       style="fill:#31dd74;fill-opacity:1;stroke-width:0.26458332"
       d="m 84.96906,204.63132 c -11.77507,-0.58142 -31.136354,-2.30398 -34.528134,-3.07194 -4.4733,-1.01283 -8.75692,-4.83598 -10.40966,-9.29064 -1.28679,-3.46832 -2.68721,-21.77082 -2.68721,-35.11993 0,-13.34911 1.40042,-31.6516 2.68721,-35.11992 1.65303,-4.45544 5.94173,-8.28251 10.40966,-9.28917 1.78545,-0.40228 12.43225,-1.52835 20.47484,-2.16555 21.574664,-1.70932 45.385854,-1.75038 66.969954,-0.1155 7.12329,0.53955 20.15286,1.90027 21.82812,2.27958 4.4733,1.01283 8.75693,4.83598 10.40967,9.29064 1.28678,3.46832 2.68721,21.77081 2.68721,35.11992 0,13.35552 -1.40076,31.65584 -2.68818,35.11993 -1.63844,4.40858 -6.02714,8.32882 -10.4087,9.29765 -1.70087,0.37609 -14.81264,1.74118 -21.82812,2.27257 -15.85654,1.20105 -37.94233,1.53176 -52.91666,0.79236 z"
       id="path832"
       inkscape:connector-curvature="0" />
    <path
       style="fill:#ffffff;stroke-width:0.26458332"
       d="m 110.86435,168.39361 c 9.17845,-6.11188 16.68808,-11.17204 16.68808,-11.2448 0,-0.13273 -33.16745,-22.27993 -33.61415,-22.44548 -0.13974,-0.0518 -0.23797,9.21374 -0.23797,22.44548 0,13.23175 0.0982,22.49728 0.23797,22.44549 0.13089,-0.0485 7.74762,-5.08882 16.92607,-11.20069 z"
       id="path828"
       inkscape:connector-curvature="0" />
  </g>
</svg>
